<?xml version="1.0" encoding="UTF-8" standalone="no"?>
<!-- Created with Inkscape (http://www.inkscape.org/) -->

<svg
   width="594mm"
   height="420mm"
   viewBox="0 0 594 420"
   version="1.1"
   id="svg835"
   inkscape:version="1.1.2 (b8e25be833, 2022-02-05)"
   sodipodi:docname="LibreCellular_CIRAN1_Front Label Dimensions_v2.svg"
   xmlns:inkscape="http://www.inkscape.org/namespaces/inkscape"
   xmlns:sodipodi="http://sodipodi.sourceforge.net/DTD/sodipodi-0.dtd"
   xmlns="http://www.w3.org/2000/svg"
   xmlns:svg="http://www.w3.org/2000/svg">
  <sodipodi:namedview
     id="namedview837"
     pagecolor="#ffffff"
     bordercolor="#666666"
     borderopacity="1.0"
     inkscape:pageshadow="2"
     inkscape:pageopacity="0.0"
     inkscape:pagecheckerboard="0"
     inkscape:document-units="mm"
     showgrid="false"
     inkscape:zoom="5.1241862"
     inkscape:cx="286.58209"
     inkscape:cy="872.33364"
     inkscape:window-width="1920"
     inkscape:window-height="1137"
     inkscape:window-x="1912"
     inkscape:window-y="-8"
     inkscape:window-maximized="1"
     inkscape:current-layer="Layer_1-2"
     inkscape:snap-bbox="true"
     inkscape:bbox-paths="true"
     inkscape:bbox-nodes="true"
     inkscape:snap-bbox-edge-midpoints="true"
     inkscape:snap-bbox-midpoints="true"
     inkscape:object-paths="true"
     inkscape:snap-intersection-paths="true"
     inkscape:snap-smooth-nodes="true"
     inkscape:snap-midpoints="true" />
  <defs
     id="defs832">
    <marker
       style="overflow:visible;"
       id="marker3819"
       refX="0.0"
       refY="0.0"
       orient="auto"
       inkscape:stockid="Arrow1Lend"
       inkscape:isstock="true">
      <path
         transform="scale(0.8) rotate(180) translate(12.5,0)"
         style="fill-rule:evenodd;fill:context-stroke;stroke:context-stroke;stroke-width:1.0pt;"
         d="M 0.0,0.0 L 5.0,-5.0 L -12.5,0.0 L 5.0,5.0 L 0.0,0.0 z "
         id="path3817" />
    </marker>
    <marker
       style="overflow:visible"
       id="marker3809"
       refX="0.0"
       refY="0.0"
       orient="auto"
       inkscape:stockid="Arrow1Lstart"
       inkscape:isstock="true">
      <path
         transform="scale(0.8) translate(12.5,0)"
         style="fill-rule:evenodd;fill:context-stroke;stroke:context-stroke;stroke-width:1.0pt"
         d="M 0.0,0.0 L 5.0,-5.0 L -12.5,0.0 L 5.0,5.0 L 0.0,0.0 z "
         id="path3807" />
    </marker>
    <marker
       style="overflow:visible;"
       id="Arrow1Lend"
       refX="0.0"
       refY="0.0"
       orient="auto"
       inkscape:stockid="Arrow1Lend"
       inkscape:isstock="true">
      <path
         transform="scale(0.8) rotate(180) translate(12.5,0)"
         style="fill-rule:evenodd;fill:context-stroke;stroke:context-stroke;stroke-width:1.0pt;"
         d="M 0.0,0.0 L 5.0,-5.0 L -12.5,0.0 L 5.0,5.0 L 0.0,0.0 z "
         id="path3534" />
    </marker>
    <marker
       style="overflow:visible"
       id="Arrow1Lstart"
       refX="0.0"
       refY="0.0"
       orient="auto"
       inkscape:stockid="Arrow1Lstart"
       inkscape:isstock="true">
      <path
         transform="scale(0.8) translate(12.5,0)"
         style="fill-rule:evenodd;fill:context-stroke;stroke:context-stroke;stroke-width:1.0pt"
         d="M 0.0,0.0 L 5.0,-5.0 L -12.5,0.0 L 5.0,5.0 L 0.0,0.0 z "
         id="path3531" />
    </marker>
    <marker
       id="DistanceX"
       orient="auto"
       refX="0"
       refY="0"
       style="overflow:visible">
      <path
         d="M 3,-3 -3,3 M 0,-5 V 5"
         style="stroke:#000000;stroke-width:0.5"
         id="path11" />
    </marker>
    <pattern
       id="Hatch"
       patternUnits="userSpaceOnUse"
       width="8"
       height="8"
       x="0"
       y="0">
      <path
         d="M8 4 l-4,4"
         stroke="#000000"
         stroke-width="0.25"
         linecap="square"
         id="path14" />
      <path
         d="M6 2 l-4,4"
         stroke="#000000"
         stroke-width="0.25"
         linecap="square"
         id="path16" />
      <path
         d="M4 0 l-4,4"
         stroke="#000000"
         stroke-width="0.25"
         linecap="square"
         id="path18" />
    </pattern>
    <symbol
       id="*Model_Space" />
    <symbol
       id="*Paper_Space" />
    <marker
       id="DistanceX-8"
       orient="auto"
       refX="0.0"
       refY="0.0"
       style="overflow:visible">
      <path
         d="M 3,-3 L -3,3 M 0,-5 L  0,5"
         style="stroke:#000000; stroke-width:0.5"
         id="path100" />
    </marker>
    <pattern
       id="Hatch-7"
       patternUnits="userSpaceOnUse"
       width="8"
       height="8"
       x="0"
       y="0">
      <path
         d="M8 4 l-4,4"
         stroke="#000000"
         stroke-width="0.25"
         linecap="square"
         id="path103" />
      <path
         d="M6 2 l-4,4"
         stroke="#000000"
         stroke-width="0.25"
         linecap="square"
         id="path105" />
      <path
         d="M4 0 l-4,4"
         stroke="#000000"
         stroke-width="0.25"
         linecap="square"
         id="path107" />
    </pattern>
    <symbol
       id="*MODEL_SPACE" />
    <symbol
       id="*PAPER_SPACE" />
  </defs>
  <g
     inkscape:label="Layer 1"
     inkscape:groupmode="layer"
     id="layer1">
    <g
       id="g1229"
       transform="translate(55.56771,165.81771)">
      <g
         inkscape:label="Outline"
         id="layer1-0"
         transform="translate(136.30503,-104.11117)"
         style="display:inline">
        <g
           inkscape:label="0"
           id="g77"
           transform="matrix(0.26458333,0,0,0.26458333,105.12726,-290.52138)"
           style="fill:none;stroke:#000000">
          <path
             d="M 912,1492.0246 V 1825.001 H -912 v -332.9764 z"
             style="fill:#000000;stroke:none;stroke-linecap:round"
             id="path51" />
        </g>
      </g>
      <g
         id="layer2"
         inkscape:label="Cutouts"
         style="display:inline">
        <path
           d="m 345.2401,35.352208 a 1.5,1.5 0 1 0 -3,0 1.5,1.5 0 1 0 3,0 z"
           style="fill:#ff0000;stroke:none;stroke-width:0.264583;stroke-linecap:round"
           id="path25" />
        <path
           d="M 421.13021,79.234471 V 52.734466 h -102.8 v 26.500005 z"
           style="fill:#ff0000;stroke:none;stroke-width:0.264583;stroke-linecap:round"
           id="path27" />
        <path
           d="m 397.23925,35.352208 a 1.5000009,1.5000009 0 1 0 -3,0 1.5000009,1.5000009 0 1 0 3,0 z"
           style="fill:#ff0000;stroke:none;stroke-width:0.264583;stroke-linecap:round"
           id="path29" />
        <path
           d="m 383.83521,27.181517 h -28.21 a 1.3,1.3 0 0 0 -1.3,1.300004 v 9.95 a 1.3,1.3 0 0 0 1.3,1.300004 h 28.21 a 1.3,1.3 0 0 0 1.3,-1.300004 v -9.95 a 1.3,1.3 0 0 0 -1.3,-1.300004 z"
           style="fill:#ff0000;stroke:none;stroke-width:0.264583;stroke-linecap:round"
           id="path31" />
        <path
           d="m 412.88456,35.681723 a 1.65,1.65 0 1 0 -3.3,0 1.65,1.65 0 1 0 3.3,0 z"
           style="fill:#ff0000;stroke:none;stroke-width:0.264583;stroke-linecap:round"
           id="path33" />
        <path
           d="m -83.94331,1702.0356 v -11.4552 a 12,12 0 1 0 0,11.4552 z"
           style="fill:#ff0000;stroke:none;stroke-linecap:round"
           id="path35"
           transform="matrix(0.26458333,0,0,0.26458333,241.43229,-394.63255)" />
        <path
           d="m -364.34646,1564.0246 a 6.992126,6.992126 0 1 0 -13.98425,0 6.992126,6.992126 0 1 0 13.98425,0 z"
           style="fill:#ff0000;stroke:none;stroke-linecap:round"
           id="path37"
           transform="matrix(0.26458333,0,0,0.26458333,241.43229,-394.63255)" />
        <path
           d="m -553.32284,1564.0246 a 6.992126,6.992126 0 1 0 -13.98425,0 6.992126,6.992126 0 1 0 13.98425,0 z"
           style="fill:#ff0000;stroke:none;stroke-linecap:round"
           id="path39"
           transform="matrix(0.26458333,0,0,0.26458333,241.43229,-394.63255)" />
        <path
           d="m -83.94331,1626.4451 a 12,12 0 1 1 0,-11.4552 z"
           style="fill:#ff0000;stroke:none;stroke-linecap:round"
           id="path41"
           transform="matrix(0.26458333,0,0,0.26458333,241.43229,-394.63255)" />
        <path
           d="m -364.34646,1753.001 a 6.992126,6.992126 0 1 0 -13.98425,0 6.992126,6.992126 0 1 0 13.98425,0 z"
           style="fill:#ff0000;stroke:none;stroke-linecap:round"
           id="path43"
           transform="matrix(0.26458333,0,0,0.26458333,241.43229,-394.63255)" />
        <path
           d="m -358.11024,1693.9175 v -70.8095 a 113.38583,113.38583 0 0 0 -72.31182,-72.3118 h -70.80943 a 113.38583,113.38583 0 0 0 -72.31182,72.3118 v 70.8095 a 113.38583,113.38583 0 0 0 72.31182,72.3118 h 70.80943 a 113.38583,113.38583 0 0 0 72.31182,-72.3118 z"
           style="fill:#ff0000;stroke:none;stroke-linecap:round"
           id="path45"
           transform="matrix(0.26458333,0,0,0.26458333,241.43229,-394.63255)" />
        <path
           d="m -553.32284,1753.001 a 6.992126,6.992126 0 1 0 -13.98425,0 6.992126,6.992126 0 1 0 13.98425,0 z"
           style="fill:#ff0000;stroke:none;stroke-linecap:round"
           id="path47"
           transform="matrix(0.26458333,0,0,0.26458333,241.43229,-394.63255)" />
        <path
           d="m 109.6063,1658.5128 a 15.118112,15.118112 0 1 0 -30.236224,0 15.118112,15.118112 0 1 0 30.236224,0 z"
           style="fill:#ff0000;stroke:none;stroke-linecap:round"
           id="path49"
           transform="matrix(0.26458333,0,0,0.26458333,241.43229,-394.63255)" />
        <path
           d="m 892.35566,1500.3395 h -27.23097 a 19.653543,19.653543 0 0 0 0,28.3465 h 27.23097 a 19.653543,19.653543 0 0 0 0,-28.3465 z"
           style="fill:#ff0000;stroke:none;stroke-linecap:round"
           id="path53"
           transform="matrix(0.26458333,0,0,0.26458333,241.43229,-394.63255)" />
        <path
           d="m -865.12466,1500.3395 h -27.23096 a 19.653543,19.653543 0 0 0 0,28.3465 h 27.23096 a 19.653543,19.653543 0 0 0 0,-28.3465 z"
           style="fill:#ff0000;stroke:none;stroke-linecap:round"
           id="path55"
           transform="matrix(0.26458333,0,0,0.26458333,241.43229,-394.63255)" />
        <path
           d="m 892.35566,1788.3395 h -27.23097 a 19.653543,19.653543 0 0 0 0,28.3465 h 27.23097 a 19.653543,19.653543 0 0 0 0,-28.3465 z"
           style="fill:#ff0000;stroke:none;stroke-linecap:round"
           id="path57"
           transform="matrix(0.26458333,0,0,0.26458333,241.43229,-394.63255)" />
        <path
           d="m -865.12466,1788.3395 h -27.23096 a 19.653543,19.653543 0 0 0 0,28.3465 h 27.23096 a 19.653543,19.653543 0 0 0 0,-28.3465 z"
           style="fill:#ff0000;stroke:none;stroke-linecap:round"
           id="path59"
           transform="matrix(0.26458333,0,0,0.26458333,241.43229,-394.63255)" />
        <ellipse
           style="fill:#ff0000;stroke:none;stroke-width:0.24539"
           id="path157"
           cx="450.17889"
           cy="17.680086"
           rx="4.127305"
           ry="4.1273055" />
        <ellipse
           style="display:inline;fill:#ff0000;stroke:none;stroke-width:0.24539"
           id="path157-3"
           cx="450.17889"
           cy="70.684891"
           rx="4.127305"
           ry="4.1273055" />
        <ellipse
           style="display:inline;fill:#ff0000;stroke:none;stroke-width:0.24539"
           id="path157-1"
           cx="32.685688"
           cy="17.680086"
           rx="4.127305"
           ry="4.1273055" />
        <ellipse
           style="display:inline;fill:#ff0000;stroke:none;stroke-width:0.24539"
           id="path157-5"
           cx="32.685688"
           cy="70.684891"
           rx="4.127305"
           ry="4.1273055" />
      </g>
      <g
         id="layer3"
         inkscape:label="Text"
         style="display:inline">
        <g
           transform="matrix(0.26458333,0,0,0.26458333,3.084875,26.746)"
           data-name="Layer 1"
           id="Layer_1-2"
           style="display:inline">
          <path
             id="path1596"
             d="m 87.37,104.6 a 5.39,5.39 0 0 0 -0.86,-2.62 4.74,4.74 0 0 0 -1.89,-1.66 5.23,5.23 0 0 0 -4.6,0 4.59,4.59 0 0 0 -1.88,1.68 5.49,5.49 0 0 0 -0.84,2.62 z"
             class="cls-1" />
          <path
             id="path1598"
             d="m 129.31,104.6 a 5.39,5.39 0 0 0 -0.86,-2.62 4.68,4.68 0 0 0 -1.89,-1.66 5.23,5.23 0 0 0 -4.6,0 4.59,4.59 0 0 0 -1.88,1.66 5.49,5.49 0 0 0 -0.84,2.62 z"
             class="cls-1" />
          <path
             id="path1600"
             d="m 51.06,112.48 a 5.41,5.41 0 0 0 4.09,-1.61 v 0 a 7.59,7.59 0 0 0 0,-9.19 5.41,5.41 0 0 0 -4.09,-1.61 6.58,6.58 0 0 0 -3,0.71 8.53,8.53 0 0 0 -2.43,1.84 v 7.31 a 8.53,8.53 0 0 0 2.43,1.84 6.58,6.58 0 0 0 3,0.71 z"
             class="cls-1" />
          <path
             id="path1602"
             d="m 188.41,110.11 v -2.73 h -3.68 c -3.43,0 -5.17,0.88 -5.17,2.62 a 2.43,2.43 0 0 0 0.8,1.92 4.16,4.16 0 0 0 2.77,0.73 6.25,6.25 0 0 0 2.93,-0.74 8.07,8.07 0 0 0 2.35,-1.8 z"
             class="cls-1" />
          <path
             style="fill:#ffffff;fill-opacity:1;stroke:none"
             id="path1604"
             d="M 30.91,111.91 H 19.49 V 92 A 1.83,1.83 0 0 0 17.67,90.18 1.71,1.71 0 0 0 16.4,90.71 1.81,1.81 0 0 0 15.89,92 v 21.08 a 2.42,2.42 0 0 0 2.42,2.42 h 12.6 a 1.81,1.81 0 0 0 1.28,-0.51 1.73,1.73 0 0 0 0.53,-1.27 1.79,1.79 0 0 0 -0.53,-1.29 1.77,1.77 0 0 0 -1.28,-0.52 z"
             class="cls-2" />
          <path
             style="fill:#ffffff;fill-opacity:1;stroke:none"
             id="path1606"
             d="m 36.58,96.86 a 1.66,1.66 0 0 0 -1.26,0.54 1.74,1.74 0 0 0 -0.52,1.28 v 15.22 a 1.78,1.78 0 0 0 1.78,1.79 1.82,1.82 0 0 0 1.29,-0.52 1.71,1.71 0 0 0 0.53,-1.27 V 98.68 a 1.76,1.76 0 0 0 -1.82,-1.82 z"
             class="cls-2" />
          <path
             id="path1608"
             d="m 36.73,89.59 h -0.22 a 1.89,1.89 0 0 0 -1.4,0.58 1.93,1.93 0 0 0 -0.59,1.41 v 0.14 a 2,2 0 0 0 0.58,1.41 v 0 a 1.9,1.9 0 0 0 1.4,0.59 h 0.22 a 1.9,1.9 0 0 0 1.4,-0.59 1.93,1.93 0 0 0 0.59,-1.41 v -0.14 a 1.93,1.93 0 0 0 -0.59,-1.41 1.89,1.89 0 0 0 -1.39,-0.58 z"
             class="cls-2"
             style="fill:#ffffff;fill-opacity:1" />
          <path
             style="fill:#ffffff;fill-opacity:1;stroke:none"
             id="path1610"
             d="m 55.78,97.83 a 8.51,8.51 0 0 0 -4.26,-1.15 8.27,8.27 0 0 0 -5.88,2.44 V 90.87 A 1.78,1.78 0 0 0 43.82,89.05 1.69,1.69 0 0 0 42.55,89.59 1.77,1.77 0 0 0 42,90.87 v 23 a 1.73,1.73 0 0 0 0.51,1.27 1.76,1.76 0 0 0 1.27,0.52 1.78,1.78 0 0 0 1.28,-0.52 1.69,1.69 0 0 0 0.54,-1.27 v -0.47 a 8.3,8.3 0 0 0 5.88,2.43 8.5,8.5 0 0 0 4.26,-1.14 8.72,8.72 0 0 0 3.27,-3.33 11.09,11.09 0 0 0 0,-10.23 8.65,8.65 0 0 0 -3.23,-3.3 z m -10.14,4.79 a 8.53,8.53 0 0 1 2.43,-1.84 6.58,6.58 0 0 1 3,-0.71 5.41,5.41 0 0 1 4.09,1.61 7.59,7.59 0 0 1 0,9.19 v 0 a 5.41,5.41 0 0 1 -4.09,1.61 6.58,6.58 0 0 1 -3,-0.71 8.53,8.53 0 0 1 -2.43,-1.84 z"
             class="cls-2" />
          <path
             style="fill:#ffffff;fill-opacity:1;stroke:none"
             id="path1612"
             d="m 73.31,97.2 a 1.68,1.68 0 0 0 -1.25,-0.52 h -0.18 c -2,0 -3.78,1 -5.39,3 v -1 a 1.81,1.81 0 0 0 -1.82,-1.82 1.66,1.66 0 0 0 -1.26,0.54 1.78,1.78 0 0 0 -0.52,1.28 v 15.22 a 1.78,1.78 0 0 0 1.78,1.79 1.82,1.82 0 0 0 1.29,-0.52 1.71,1.71 0 0 0 0.53,-1.27 v -10.73 a 7.24,7.24 0 0 1 2.29,-2.17 5.94,5.94 0 0 1 3,-0.8 H 72 a 1.82,1.82 0 0 0 1.29,-0.48 1.59,1.59 0 0 0 0.52,-1.23 1.76,1.76 0 0 0 -0.5,-1.29 z"
             class="cls-2" />
          <path
             style="fill:#ffffff;fill-opacity:1;stroke:none"
             id="path1614"
             d="m 87,97.94 a 9.25,9.25 0 0 0 -9.47,0.09 8.09,8.09 0 0 0 -2.9,3.52 11.84,11.84 0 0 0 -0.94,4.72 9.71,9.71 0 0 0 2.48,7.07 9.3,9.3 0 0 0 6.9,2.52 13.35,13.35 0 0 0 3.53,-0.39 13.69,13.69 0 0 0 2.77,-1.19 1.72,1.72 0 0 0 1,-1.48 1.49,1.49 0 0 0 -0.48,-1.13 1.63,1.63 0 0 0 -1.12,-0.44 1.56,1.56 0 0 0 -0.72,0.17 11.64,11.64 0 0 1 -2.15,0.8 10.66,10.66 0 0 1 -2.56,0.28 6.2,6.2 0 0 1 -4.24,-1.34 5.59,5.59 0 0 1 -1.76,-3.55 h 11.79 a 1.76,1.76 0 0 0 1.32,-0.51 1.78,1.78 0 0 0 0.5,-1.27 10.27,10.27 0 0 0 -1,-4.53 A 8.15,8.15 0 0 0 87,97.94 Z m -7,2.38 a 5.23,5.23 0 0 1 4.6,0 4.74,4.74 0 0 1 1.91,1.68 5.39,5.39 0 0 1 0.86,2.62 H 77.3 A 5.49,5.49 0 0 1 78.14,102 4.59,4.59 0 0 1 80,100.32 Z"
             class="cls-2" />
          <path
             style="fill:#ffffff;fill-opacity:1;stroke:none"
             id="path1616"
             d="m 100.59,94.7 a 10,10 0 0 1 5.11,-1.23 12.32,12.32 0 0 1 3.39,0.42 16,16 0 0 1 3,1.23 1.69,1.69 0 0 0 0.72,0.16 1.52,1.52 0 0 0 1.16,-0.47 1.46,1.46 0 0 0 0.45,-1.06 1.6,1.6 0 0 0 -0.88,-1.51 18.09,18.09 0 0 0 -3.82,-1.65 15.34,15.34 0 0 0 -4.36,-0.58 13.28,13.28 0 0 0 -6.46,1.57 11.38,11.38 0 0 0 -4.51,4.51 15.13,15.13 0 0 0 0,13.7 11.44,11.44 0 0 0 4.51,4.51 13.28,13.28 0 0 0 6.46,1.56 15.31,15.31 0 0 0 4.36,-0.57 18.62,18.62 0 0 0 3.82,-1.65 1.62,1.62 0 0 0 0.88,-1.51 1.48,1.48 0 0 0 -0.42,-1.13 1.58,1.58 0 0 0 -1.16,-0.44 1.55,1.55 0 0 0 -0.72,0.16 16,16 0 0 1 -3,1.23 12.72,12.72 0 0 1 -3.39,0.42 10,10 0 0 1 -5.11,-1.24 8.05,8.05 0 0 1 -3.16,-3.36 11.72,11.72 0 0 1 0,-9.74 8,8 0 0 1 3.13,-3.33 z"
             class="cls-2" />
          <path
             style="fill:#ffffff;fill-opacity:1;stroke:none"
             id="path1618"
             d="m 128.9,97.94 a 9.25,9.25 0 0 0 -9.47,0.09 8.16,8.16 0 0 0 -2.9,3.52 11.84,11.84 0 0 0 -0.94,4.72 9.67,9.67 0 0 0 2.49,7.07 9.26,9.26 0 0 0 6.89,2.52 13.29,13.29 0 0 0 3.53,-0.39 13.69,13.69 0 0 0 2.77,-1.19 1.71,1.71 0 0 0 1,-1.48 1.5,1.5 0 0 0 -0.49,-1.13 1.61,1.61 0 0 0 -1.12,-0.44 1.59,1.59 0 0 0 -0.72,0.17 11.82,11.82 0 0 1 -2.14,0.8 10.8,10.8 0 0 1 -2.57,0.28 6.2,6.2 0 0 1 -4.24,-1.34 5.59,5.59 0 0 1 -1.76,-3.55 h 11.82 a 1.79,1.79 0 0 0 1.33,-0.51 1.82,1.82 0 0 0 0.49,-1.27 10.27,10.27 0 0 0 -1,-4.53 8.15,8.15 0 0 0 -2.97,-3.34 z m -6.9,2.38 a 5.23,5.23 0 0 1 4.6,0 4.68,4.68 0 0 1 1.89,1.66 5.39,5.39 0 0 1 0.86,2.62 h -10.11 a 5.49,5.49 0 0 1 0.84,-2.62 4.59,4.59 0 0 1 1.92,-1.66 z"
             class="cls-2" />
          <path
             style="fill:#ffffff;fill-opacity:1;stroke:none"
             id="path1620"
             d="m 137.11,89.05 a 1.69,1.69 0 0 0 -1.27,0.54 1.77,1.77 0 0 0 -0.51,1.28 v 23 a 1.76,1.76 0 0 0 1.78,1.79 1.78,1.78 0 0 0 1.28,-0.52 1.69,1.69 0 0 0 0.54,-1.27 v -23 a 1.78,1.78 0 0 0 -1.82,-1.82 z"
             class="cls-2" />
          <path
             style="fill:#ffffff;fill-opacity:1;stroke:none"
             id="path1622"
             d="m 144.36,89.05 a 1.7,1.7 0 0 0 -1.27,0.54 1.77,1.77 0 0 0 -0.51,1.28 v 23 a 1.78,1.78 0 0 0 1.78,1.79 1.82,1.82 0 0 0 1.29,-0.52 1.71,1.71 0 0 0 0.53,-1.27 v -23 a 1.77,1.77 0 0 0 -0.51,-1.3 1.8,1.8 0 0 0 -1.31,-0.52 z"
             class="cls-2" />
          <path
             style="fill:#ffffff;fill-opacity:1;stroke:none"
             id="path1624"
             d="m 164.48,96.86 a 1.77,1.77 0 0 0 -1.28,0.51 1.7,1.7 0 0 0 -0.54,1.27 v 10.58 a 11.22,11.22 0 0 1 -2.56,2.4 5.49,5.49 0 0 1 -3.07,0.89 c -2.51,0 -3.72,-1.35 -3.72,-4.14 v -9.73 a 1.74,1.74 0 0 0 -0.52,-1.26 1.7,1.7 0 0 0 -1.26,-0.52 1.81,1.81 0 0 0 -1.29,0.51 1.73,1.73 0 0 0 -0.53,1.27 v 10.08 a 8.28,8.28 0 0 0 0.78,3.6 6.14,6.14 0 0 0 2.27,2.59 v 0 a 6.36,6.36 0 0 0 3.49,1 7.53,7.53 0 0 0 3.75,-0.91 11.74,11.74 0 0 0 2.63,-2.07 v 1 a 1.84,1.84 0 0 0 1.82,1.82 1.69,1.69 0 0 0 1.27,-0.54 1.79,1.79 0 0 0 0.51,-1.28 V 98.64 a 1.76,1.76 0 0 0 -1.78,-1.78 z"
             class="cls-2" />
          <path
             style="fill:#ffffff;fill-opacity:1;stroke:none"
             id="path1626"
             d="m 171.72,89.05 a 1.69,1.69 0 0 0 -1.27,0.54 1.78,1.78 0 0 0 -0.52,1.28 v 23 a 1.78,1.78 0 0 0 1.79,1.79 1.82,1.82 0 0 0 1.28,-0.52 1.71,1.71 0 0 0 0.53,-1.27 v -23 a 1.76,1.76 0 0 0 -1.81,-1.82 z"
             class="cls-2" />
          <path
             style="fill:#ffffff;fill-opacity:1;stroke:none"
             id="path1628"
             d="m 188.64,97.7 a 8.3,8.3 0 0 0 -4.23,-1 15.79,15.79 0 0 0 -6.21,1.3 1.54,1.54 0 0 0 -1,1.51 1.46,1.46 0 0 0 0.45,1.09 1.42,1.42 0 0 0 1,0.45 2.45,2.45 0 0 0 0.52,-0.08 20.6,20.6 0 0 1 2.3,-0.64 12.83,12.83 0 0 1 2.36,-0.2 5.17,5.17 0 0 1 3.48,1 4.13,4.13 0 0 1 1.09,3.23 v 0.1 h -4.1 a 10.22,10.22 0 0 0 -6.19,1.6 5.15,5.15 0 0 0 -2.15,4.33 5.35,5.35 0 0 0 0.81,2.93 5.23,5.23 0 0 0 2.18,1.93 6.91,6.91 0 0 0 3,0.65 9.15,9.15 0 0 0 6.48,-2.44 v 0.48 a 1.78,1.78 0 0 0 1.79,1.79 1.82,1.82 0 0 0 1.28,-0.52 1.71,1.71 0 0 0 0.53,-1.27 v -10 a 7.65,7.65 0 0 0 -0.82,-3.51 6.42,6.42 0 0 0 -2.57,-2.73 z m -5.51,15 a 4.16,4.16 0 0 1 -2.77,-0.73 2.43,2.43 0 0 1 -0.8,-1.92 c 0,-1.74 1.74,-2.62 5.17,-2.62 h 3.68 v 2.73 a 8.07,8.07 0 0 1 -2.35,1.8 6.25,6.25 0 0 1 -2.93,0.69 z"
             class="cls-2" />
          <path
             style="fill:#ffffff;fill-opacity:1;stroke:none"
             id="path1630"
             d="m 205.71,97.2 a 1.68,1.68 0 0 0 -1.25,-0.52 h -0.17 a 6.94,6.94 0 0 0 -5.39,3 v -1 a 1.83,1.83 0 0 0 -1.82,-1.82 1.69,1.69 0 0 0 -1.27,0.54 1.77,1.77 0 0 0 -0.51,1.28 v 15.22 a 1.73,1.73 0 0 0 0.51,1.27 1.76,1.76 0 0 0 1.27,0.52 1.78,1.78 0 0 0 1.28,-0.52 1.69,1.69 0 0 0 0.54,-1.27 v -10.73 a 7.1,7.1 0 0 1 2.28,-2.19 6,6 0 0 1 3,-0.8 h 0.18 a 1.83,1.83 0 0 0 1.3,-0.48 1.62,1.62 0 0 0 0.52,-1.23 1.77,1.77 0 0 0 -0.47,-1.27 z"
             class="cls-2" />
          <path
             style="fill:#00e049;fill-opacity:1"
             id="path1632"
             d="m 141.07,43.63 a 16,16 0 0 0 -1.42,-3.73 l -0.06,-0.12 -0.07,-0.09 c -1.52,-2 -3.08,-4.06 -4.62,-6.09 -1.54,-2.03 -3.08,-4.06 -4.67,-6.06 l -2.4,-3 -2.46,-2.94 c -1.66,-1.93 -3.35,-3.86 -5.13,-5.71 1.21,2.27 2.53,4.46 3.86,6.64 l 2.05,3.24 2.1,3.2 c 1.41,2.13 2.87,4.21 4.33,6.3 1.46,2.09 2.84,4.1 4.28,6.13 a 14.41,14.41 0 0 1 1.06,3 13.85,13.85 0 0 1 0.37,3.2 14.24,14.24 0 0 1 -1.42,6.18 l -4.28,6.13 c -1.47,2.09 -2.92,4.19 -4.33,6.31 l -2.1,3.2 -2,3.24 c -1.34,2.18 -2.66,4.37 -3.88,6.63 1.77,-1.86 3.46,-3.78 5.12,-5.73 l 2.46,-2.94 2.4,-3 c 1.59,-2 3.14,-4 4.68,-6 l 4.62,-6.1 0.06,-0.08 0.07,-0.13 a 17.42,17.42 0 0 0 1.42,-3.72 17.11,17.11 0 0 0 0.48,-4 16.57,16.57 0 0 0 -0.52,-3.96 z"
             class="cls-3" />
          <path
             style="fill:#00e049;fill-opacity:1"
             id="path1634"
             d="m 116.69,28.74 a 3.25,3.25 0 0 0 3.48,3.4 4.12,4.12 0 0 0 3.61,-4.14 3.24,3.24 0 0 0 -3.61,-3.39 4.17,4.17 0 0 0 -3.48,4.13 z m -14,10.14 a 3.09,3.09 0 0 0 3,3.32 3.47,3.47 0 0 0 3.07,-3.63 3.07,3.07 0 0 0 -3.07,-3.31 3.5,3.5 0 0 0 -2.98,3.62 z m 3,-14.41 a 3.92,3.92 0 0 0 3.07,-3.94 c 0,-1.94 -1.39,-3.29 -3.07,-3 a 4,4 0 0 0 -3,3.92 c 0.02,1.88 1.31,3.24 2.99,3.02 z m 9.4,-1.25 a 4.22,4.22 0 0 0 3.4,-4.22 2.93,2.93 0 0 0 -3.41,-3.13 4.26,4.26 0 0 0 -3.29,4.16 3,3 0 0 0 3.29,3.19 z m 16.16,20.4 a 4,4 0 1 0 4,4 4,4 0 0 0 -4.01,-4 z m -5.7,10 a 3.58,3.58 0 0 0 -3.67,3.67 4.06,4.06 0 0 0 3.67,4 3.57,3.57 0 0 0 3.82,-3.66 4,4 0 0 0 -3.83,-4.02 z m -10.47,7 v 0 a 3.29,3.29 0 0 0 3.41,-3.48 3.73,3.73 0 0 0 -3.41,-3.83 v 0 a 3.33,3.33 0 0 0 -3.3,3.49 3.76,3.76 0 0 0 3.29,3.79 z m -1.57,-13 a 3.2,3.2 0 1 0 -3.23,3.55 3.37,3.37 0 0 0 3.22,-3.57 z m 1.57,-5.69 h 0.35 a 3.79,3.79 0 0 0 3.07,-3.8 3.29,3.29 0 0 0 -3.41,-3.48 2.09,2.09 0 0 0 -0.35,0 3.8,3.8 0 0 0 -3,3.78 3.33,3.33 0 0 0 3.33,3.48 z m 6.8,-4 a 3.59,3.59 0 0 0 3.67,3.67 4,4 0 0 0 3.82,-4.06 3.59,3.59 0 0 0 -3.82,-3.67 4.07,4.07 0 0 0 -3.68,4.04 z M 120.17,63 a 3.26,3.26 0 0 0 -3.48,3.41 4.17,4.17 0 0 0 3.48,4.11 3.24,3.24 0 0 0 3.61,-3.39 4.14,4.14 0 0 0 -3.61,-4.13 z m -5.09,9 a 3,3 0 0 0 -3.29,3.15 4.26,4.26 0 0 0 3.29,4.16 2.93,2.93 0 0 0 3.41,-3.13 4.22,4.22 0 0 0 -3.41,-4.18 z m -9.4,-1.25 c -1.65,-0.22 -3,1.14 -3,3 a 4,4 0 0 0 3,3.92 c 1.68,0.29 3.07,-1.06 3.07,-3 a 3.92,3.92 0 0 0 -3.07,-3.95 z m 0,-17.73 a 3.09,3.09 0 0 0 -3,3.32 3.5,3.5 0 0 0 3,3.62 3.07,3.07 0 0 0 3.07,-3.31 3.47,3.47 0 0 0 -3.07,-3.65 z m -1.41,12.19 a 3.56,3.56 0 0 0 -2.92,-3.68 c -1.57,-0.13 -2.82,1.26 -2.82,3.1 a 3.58,3.58 0 0 0 2.82,3.66 c 1.65,0.17 2.92,-1.21 2.92,-3.11 z m -7.06,4.39 c -1.49,-0.2 -2.69,1.1 -2.69,2.89 a 3.72,3.72 0 0 0 2.69,3.71 c 1.52,0.26 2.78,-1 2.78,-2.88 A 3.66,3.66 0 0 0 97.21,69.6 Z m -7.7,-1 c -1.36,-0.18 -2.44,1.07 -2.44,2.78 a 3.49,3.49 0 0 0 2.44,3.52 c 1.38,0.23 2.52,-1 2.52,-2.76 0,-1.76 -1.14,-3.38 -2.52,-3.57 z m -1.16,-5 c 0,-1.72 -1.09,-3.21 -2.41,-3.32 -1.32,-0.11 -2.34,1.17 -2.34,2.84 0,1.67 1,3.15 2.34,3.31 1.34,0.16 2.41,-1.15 2.41,-2.87 z m 8.86,-10.83 a 2.89,2.89 0 0 0 -2.69,3.16 3.28,3.28 0 0 0 2.69,3.44 c 1.52,0.11 2.78,-1.31 2.78,-3.16 a 3.24,3.24 0 0 0 -2.78,-3.48 z m 1.32,-22.14 c 0,1.84 1.25,3.23 2.82,3.1 A 3.56,3.56 0 0 0 104.27,30 c 0,-1.9 -1.32,-3.28 -2.92,-3.09 a 3.6,3.6 0 0 0 -2.82,3.68 z M 97.21,42.46 A 3.24,3.24 0 0 0 100,39 c 0,-1.85 -1.26,-3.27 -2.78,-3.16 a 3.28,3.28 0 0 0 -2.69,3.44 2.89,2.89 0 0 0 2.68,3.18 z M 85.94,35 c 1.32,-0.11 2.41,-1.6 2.41,-3.32 0,-1.72 -1.09,-3 -2.41,-2.83 -1.32,0.17 -2.34,1.64 -2.34,3.31 0,1.67 1.04,2.9 2.34,2.84 z m 3.57,-8.33 c 1.38,-0.19 2.52,-1.77 2.52,-3.53 0,-1.76 -1.14,-3 -2.52,-2.77 a 3.49,3.49 0 0 0 -2.44,3.52 c 0,1.66 1.08,2.91 2.44,2.73 z m 7.7,-1 A 3.66,3.66 0 0 0 100,21.87 C 100,20.02 98.74,18.73 97.22,19 a 3.7,3.7 0 0 0 -2.69,3.71 c -0.01,1.78 1.19,3.08 2.68,2.88 z m -1.29,22 c 0,-1.81 -1.19,-3.25 -2.64,-3.23 -1.45,0.02 -2.56,1.48 -2.56,3.23 0,1.75 1.13,3.19 2.56,3.22 1.43,0.03 2.64,-1.49 2.64,-3.29 z m -6.4,4.89 h -0.26 a 2.8,2.8 0 0 0 -2.19,3 c 0,1.71 1.08,3.18 2.44,3.27 v 0 c 1.38,0.1 2.52,-1.25 2.52,-3 0,-1.75 -1.13,-3.3 -2.51,-3.34 z m -4.71,2.84 c 0,-1.69 -1,-3.09 -2.31,-3.13 -1.31,-0.04 -2.23,1.26 -2.23,2.9 0,1.64 1,3 2.23,3.12 1.23,0.12 2.31,-1.21 2.31,-2.89 z m -3.37,-7.8 c 0,-1.65 -1,-3 -2.2,-3 -1.2,0 -2.14,1.4 -2.14,3 0,1.6 1,2.91 2.14,2.94 1.14,0.03 2.2,-1.3 2.2,-2.94 z m 1.06,-4.68 c 1.27,0 2.31,-1.44 2.31,-3.13 0,-1.69 -1,-3 -2.31,-2.89 -1.31,0.11 -2.23,1.49 -2.23,3.1 0,1.61 0.99,3 2.23,2.92 z m 7,-6.51 v 0 c -1.36,0.09 -2.44,1.56 -2.44,3.27 0,1.71 1.08,3.06 2.44,3 v 0 c 1.4,-0.03 2.5,-1.49 2.5,-3.26 0,-1.77 -1.1,-3.11 -2.48,-3.01 z"
             class="cls-4" />
          <path
             id="path1636"
             d="m 111.05,127.8 a 4,4 0 1 0 -4,4 4,4 0 0 0 4,-4 z"
             class="cls-1" />
          <path
             id="path1638"
             d="m 111.05,119.84 a 4,4 0 1 0 -4,4 4,4 0 0 0 4,-4 z"
             class="cls-1" />
          <path
             id="path1640"
             d="m 119,119.84 a 4,4 0 1 0 -4,4 4,4 0 0 0 4,-4 z"
             class="cls-1" />
          <path
             id="path1642"
             d="m 119,127.8 a 4,4 0 1 0 -4,4 4,4 0 0 0 4,-4 z"
             class="cls-1" />
          <path
             id="path1644"
             d="m 111.05,11.93 a 4,4 0 1 0 -4,4 4,4 0 0 0 4,-4 z"
             class="cls-1" />
          <path
             id="path1646"
             d="m 111.05,4 a 4,4 0 1 0 -4,4 4,4 0 0 0 4,-4 z"
             class="cls-1" />
          <path
             id="path1648"
             d="m 119,4 a 4,4 0 1 0 -4,4 4,4 0 0 0 4,-4 z"
             class="cls-1" />
          <path
             id="path1650"
             d="m 119,11.93 a 4,4 0 1 0 -4,4 4,4 0 0 0 4,-4 z"
             class="cls-1" />
          <path
             id="path1652"
             d="m 7.94,108.58 a 4,4 0 1 0 -4.05,4 4,4 0 0 0 4.05,-4 z"
             class="cls-1" />
          <path
             id="path1654"
             d="m 7.94,100.62 a 4,4 0 1 0 -4.05,4 4,4 0 0 0 4.05,-4 z"
             class="cls-1" />
          <path
             id="path1656"
             d="m 15.89,100.62 a 4,4 0 1 0 -4.05,4 4,4 0 0 0 4.05,-4 z"
             class="cls-1" />
          <path
             id="path1658"
             d="m 15.89,108.58 a 4,4 0 1 0 -4.05,4 4,4 0 0 0 4.05,-4 z"
             class="cls-1" />
          <path
             id="path1660"
             d="m 214.15,108.58 a 4,4 0 1 0 -4.05,4 4,4 0 0 0 4.05,-4 z"
             class="cls-1" />
          <path
             id="path1662"
             d="m 214.15,100.62 a 4,4 0 1 0 -4.05,4 4,4 0 0 0 4.05,-4 z"
             class="cls-1" />
          <path
             id="path1664"
             d="m 222.1,100.62 a 4,4 0 1 0 -4,4 4,4 0 0 0 4,-4 z"
             class="cls-1" />
          <path
             id="path1666"
             d="m 222.1,108.58 a 4,4 0 1 0 -4,4 4,4 0 0 0 4,-4 z"
             class="cls-1" />
        </g>
        <text
           xml:space="preserve"
           style="font-size:8px;line-height:1.25;font-family:sans-serif;-inkscape-font-specification:sans-serif;text-align:end;letter-spacing:-0.396875px;text-anchor:end;display:inline;fill:#00e049;fill-opacity:1;stroke:none;stroke-width:0.264583"
           x="476.17953"
           y="46.974277"
           id="text935"><tspan
             sodipodi:role="line"
             id="tspan933"
             x="475.78265"
             y="46.974277"
             style="font-style:normal;font-variant:normal;font-weight:normal;font-stretch:normal;font-size:8px;font-family:'Varela Round';-inkscape-font-specification:'Varela Round';text-align:end;text-anchor:end;fill:#00e049;fill-opacity:1;stroke:none;stroke-width:0.264583"
             dx="0">CIRAN1</tspan></text>
        <text
           id="text1061"
           y="46.994289"
           x="249.26662"
           style="font-style:normal;font-variant:normal;font-weight:normal;font-stretch:normal;font-size:8px;line-height:1.25;font-family:'Varela Round';-inkscape-font-specification:'Varela Round';text-align:center;text-anchor:middle;stroke-width:0.264583"
           xml:space="preserve"><tspan
             rotate="0 0 0 0"
             style="font-style:normal;font-variant:normal;font-weight:normal;font-stretch:normal;font-size:8px;font-family:'Varela Round';-inkscape-font-specification:'Varela Round';text-align:center;text-anchor:middle;fill:#ffffff;stroke-width:0.264583"
             y="46.994289"
             x="249.26662"
             id="tspan1059"
             sodipodi:role="line">12V</tspan></text>
        <text
           id="text1061-0"
           y="31.893658"
           x="411.08755"
           style="font-style:normal;font-variant:normal;font-weight:normal;font-stretch:normal;font-size:3.5px;line-height:1.25;font-family:'Varela Round';-inkscape-font-specification:'Varela Round';text-align:center;text-anchor:middle;display:inline;stroke-width:0.264583"
           xml:space="preserve"><tspan
             rotate="0 0 0 0 0 0"
             style="font-style:normal;font-variant:normal;font-weight:normal;font-stretch:normal;font-size:3.5px;font-family:'Varela Round';-inkscape-font-specification:'Varela Round';text-align:center;text-anchor:middle;fill:#ffffff;stroke-width:0.264583"
             y="31.893658"
             x="411.08755"
             id="tspan1059-80"
             sodipodi:role="line">RESET</tspan></text>
        <text
           id="text1061-3"
           y="21.45443"
           x="369.73022"
           style="font-style:normal;font-variant:normal;font-weight:normal;font-stretch:normal;font-size:8px;line-height:1.25;font-family:'Varela Round';-inkscape-font-specification:'Varela Round';text-align:center;text-anchor:middle;display:inline;stroke-width:0.264583"
           xml:space="preserve"><tspan
             rotate="0 0 0 0 0 0"
             style="font-style:normal;font-variant:normal;font-weight:normal;font-stretch:normal;font-size:8px;font-family:'Varela Round';-inkscape-font-specification:'Varela Round';text-align:center;text-anchor:middle;fill:#ffffff;stroke-width:0.264583"
             y="21.45443"
             x="369.73022"
             id="tspan1059-8"
             sodipodi:role="line">CONIO</tspan></text>
        <text
           id="text1061-3-0"
           y="68.774277"
           x="313.39478"
           style="font-style:normal;font-variant:normal;font-weight:normal;font-stretch:normal;font-size:8px;line-height:1.25;font-family:'Varela Round';-inkscape-font-specification:'Varela Round';text-align:center;text-anchor:middle;display:inline;stroke-width:0.264583"
           xml:space="preserve"><tspan
             rotate="0 0 0 0"
             style="font-style:normal;font-variant:normal;font-weight:normal;font-stretch:normal;font-size:8px;font-family:'Varela Round';-inkscape-font-specification:'Varela Round';text-align:end;text-anchor:end;fill:#ffffff;stroke-width:0.264583"
             y="68.774277"
             x="313.39478"
             id="tspan1059-8-5"
             sodipodi:role="line">SSD</tspan></text>
        <text
           id="text1061-9"
           y="23.472347"
           x="216.11179"
           style="font-style:normal;font-variant:normal;font-weight:normal;font-stretch:normal;font-size:8px;line-height:1.25;font-family:'Varela Round';-inkscape-font-specification:'Varela Round';text-align:center;text-anchor:middle;display:inline;stroke-width:0.264583"
           xml:space="preserve"><tspan
             rotate="0 0 0 0 0 0 0 0"
             style="font-style:normal;font-variant:normal;font-weight:normal;font-stretch:normal;font-size:8px;font-family:'Varela Round';-inkscape-font-specification:'Varela Round';text-align:center;text-anchor:middle;fill:#ffffff;stroke-width:0.264583"
             y="23.472347"
             x="216.11179"
             id="tspan1059-1"
             sodipodi:role="line">MONITOR</tspan></text>
        <text
           id="text1061-9-7"
           y="36.719784"
           x="208.08736"
           style="font-style:normal;font-variant:normal;font-weight:normal;font-stretch:normal;font-size:7px;line-height:1.25;font-family:'Varela Round';-inkscape-font-specification:'Varela Round';text-align:center;text-anchor:middle;display:inline;stroke-width:0.264583"
           xml:space="preserve"><tspan
             rotate="0 0 0 0 0"
             style="font-style:normal;font-variant:normal;font-weight:normal;font-stretch:normal;font-size:7px;font-family:'Varela Round';-inkscape-font-specification:'Varela Round';text-align:end;text-anchor:end;fill:#ffffff;stroke-width:0.264583"
             y="36.719784"
             x="208.08736"
             id="tspan1059-1-2"
             sodipodi:role="line">Ch A</tspan></text>
        <text
           id="text1061-9-7-0"
           y="56.719769"
           x="208.27429"
           style="font-style:normal;font-variant:normal;font-weight:normal;font-stretch:normal;font-size:7px;line-height:1.25;font-family:'Varela Round';-inkscape-font-specification:'Varela Round';text-align:center;text-anchor:middle;display:inline;stroke-width:0.264583"
           xml:space="preserve"><tspan
             rotate="0 0 0 0 0"
             style="font-style:normal;font-variant:normal;font-weight:normal;font-stretch:normal;font-size:7px;font-family:'Varela Round';-inkscape-font-specification:'Varela Round';text-align:end;text-anchor:end;fill:#ffffff;stroke-width:0.264583"
             y="56.719769"
             x="208.27429"
             id="tspan1059-1-2-5"
             sodipodi:role="line">Ch B</tspan></text>
      </g>
      <g
         id="layer5"
         inkscape:label="Shapes" />
      <g
         id="layer4"
         inkscape:label="Scratch"
         style="display:none">
        <path
           style="fill:none;stroke:#ffff00;stroke-width:0.264583px;stroke-linecap:butt;stroke-linejoin:miter;stroke-opacity:1"
           d="m 473.9323,9.8322822 v 68.6999868 0"
           id="path7975" />
        <circle
           style="fill:none;stroke:#ffff00;stroke-width:0.294676;stroke-linejoin:round"
           id="path44587"
           cx="266.43228"
           cy="44.182289"
           r="6.3526616" />
      </g>
      <g
         id="layer6"
         inkscape:label="Scratch 1"
         style="display:none">
        <g
           id="g252"
           transform="matrix(0.99998375,0,0,1.0000909,111.19975,29.947907)">
          <g
             inkscape:label="0"
             id="g166"
             transform="matrix(0.26458333,0,0,0.26458333,130.23466,-424.58154)"
             style="stroke:#ffff00">
            <path
               d="m 392.35075,1625.1415 a 5.669295,5.669295 0 1 0 -11.33859,0 5.669295,5.669295 0 1 0 11.33859,0 z"
               style="fill:none;stroke:#ffff00"
               id="path114" />
            <path
               d="M 679.1811,1790.9852 V 1690.8277 H 290.64567 v 100.1575 z"
               style="fill:none;stroke:#ffff00"
               id="path116" />
            <path
               d="m 588.88618,1625.1415 a 5.6692915,5.6692915 0 1 0 -11.33858,0 5.6692915,5.6692915 0 1 0 11.33858,0 z"
               style="fill:none;stroke:#ffff00"
               id="path118" />
            <path
               d="M 538.22362,1594.2608 H 431.60315 a 4.913386,4.913386 0 0 0 -4.91338,4.9134 v 37.6063 a 4.913386,4.913386 0 0 0 4.91338,4.9134 h 106.62047 a 4.913386,4.913386 0 0 0 4.91339,-4.9134 v -37.6063 a 4.913386,4.913386 0 0 0 -4.91339,-4.9134 z"
               style="fill:none;stroke:#ffff00"
               id="path120" />
            <path
               d="m 648.01899,1626.3868 a 6.2362205,6.2362205 0 1 0 -12.47244,0 6.2362205,6.2362205 0 1 0 12.47244,0 z"
               style="fill:none;stroke:#ffff00"
               id="path122" />
            <path
               d="m -83.94331,1702.0356 v -11.4552 a 12,12 0 1 0 0,11.4552 z"
               style="fill:none;stroke:#ffff00"
               id="path124" />
            <path
               d="m -364.34646,1564.0246 a 6.992126,6.992126 0 1 0 -13.98425,0 6.992126,6.992126 0 1 0 13.98425,0 z"
               style="fill:none;stroke:#ffff00"
               id="path126" />
            <path
               d="m -553.32284,1564.0246 a 6.992126,6.992126 0 1 0 -13.98425,0 6.992126,6.992126 0 1 0 13.98425,0 z"
               style="fill:none;stroke:#ffff00"
               id="path128" />
            <path
               d="m -83.94331,1626.4451 a 12,12 0 1 1 0,-11.4552 z"
               style="fill:none;stroke:#ffff00"
               id="path130" />
            <path
               d="m -364.34646,1753.001 a 6.992126,6.992126 0 1 0 -13.98425,0 6.992126,6.992126 0 1 0 13.98425,0 z"
               style="fill:none;stroke:#ffff00"
               id="path132" />
            <path
               d="m -358.11024,1693.9175 v -70.8095 a 113.38583,113.38583 0 0 0 -72.31182,-72.3118 h -70.80943 a 113.38583,113.38583 0 0 0 -72.31182,72.3118 v 70.8095 a 113.38583,113.38583 0 0 0 72.31182,72.3118 h 70.80943 a 113.38583,113.38583 0 0 0 72.31182,-72.3118 z"
               style="fill:none;stroke:#ffff00"
               id="path134" />
            <path
               d="m -553.32284,1753.001 a 6.992126,6.992126 0 1 0 -13.98425,0 6.992126,6.992126 0 1 0 13.98425,0 z"
               style="fill:none;stroke:#ffff00"
               id="path136" />
            <path
               d="m 109.6063,1658.5128 a 15.118112,15.118112 0 1 0 -30.236224,0 15.118112,15.118112 0 1 0 30.236224,0 z"
               style="fill:none;stroke:#ffff00"
               id="path138" />
            <path
               d="M 912,1492.0246 V 1825.001 H -912 v -332.9764 z"
               style="fill:none;stroke:#ffff00"
               id="path140" />
            <path
               d="m 892.35566,1500.3395 h -27.23097 a 19.653543,19.653543 0 0 0 0,28.3465 h 27.23097 a 19.653543,19.653543 0 0 0 0,-28.3465 z"
               style="fill:none;stroke:#ffff00"
               id="path142" />
            <path
               d="m -865.12466,1500.3395 h -27.23096 a 19.653543,19.653543 0 0 0 0,28.3465 h 27.23096 a 19.653543,19.653543 0 0 0 0,-28.3465 z"
               style="fill:none;stroke:#ffff00"
               id="path144" />
            <path
               d="m 892.35566,1788.3395 h -27.23097 a 19.653543,19.653543 0 0 0 0,28.3465 h 27.23097 a 19.653543,19.653543 0 0 0 0,-28.3465 z"
               style="fill:none;stroke:#ffff00"
               id="path146" />
            <path
               d="m -865.12466,1788.3395 h -27.23096 a 19.653543,19.653543 0 0 0 0,28.3465 h 27.23096 a 19.653543,19.653543 0 0 0 0,-28.3465 z"
               style="fill:none;stroke:#ffff00"
               id="path148" />
            <path
               d="m 797.48032,1558.3553 a 8.50394,8.50394 0 1 0 -17.00788,0 8.50394,8.50394 0 1 0 17.00788,0 z"
               style="fill:none;stroke:#ffff00"
               id="path150" />
            <path
               d="m 797.48032,1558.3553 a 8.50394,8.50394 0 1 0 -17.00788,0 8.50394,8.50394 0 1 0 17.00788,0 z"
               style="fill:none;stroke:#ffff00"
               id="path152" />
            <path
               d="m 797.48032,1758.6702 a 8.50394,8.50394 0 1 0 -17.00788,0 8.50394,8.50394 0 1 0 17.00788,0 z"
               style="fill:none;stroke:#ffff00"
               id="path154" />
            <path
               d="m 797.48032,1758.6702 a 8.50394,8.50394 0 1 0 -17.00788,0 8.50394,8.50394 0 1 0 17.00788,0 z"
               style="fill:none;stroke:#ffff00"
               id="path156" />
            <path
               d="m -780.47244,1758.6702 a 8.50394,8.50394 0 1 0 -17.00788,0 8.50394,8.50394 0 1 0 17.00788,0 z"
               style="fill:none;stroke:#ffff00"
               id="path158" />
            <path
               d="m -780.47244,1758.6702 a 8.50394,8.50394 0 1 0 -17.00788,0 8.50394,8.50394 0 1 0 17.00788,0 z"
               style="fill:none;stroke:#ffff00"
               id="path160" />
            <path
               d="m -780.47244,1558.3553 a 8.50394,8.50394 0 1 0 -17.00788,0 8.50394,8.50394 0 1 0 17.00788,0 z"
               style="fill:none;stroke:#ffff00"
               id="path162" />
            <path
               d="m -780.47244,1558.3553 a 8.50394,8.50394 0 1 0 -17.00788,0 8.50394,8.50394 0 1 0 17.00788,0 z"
               style="fill:none;stroke:#ffff00"
               id="path164" />
          </g>
        </g>
      </g>
    </g>
    <path
       style="fill:none;stroke:#000000;stroke-width:0.237291px;stroke-linecap:butt;stroke-linejoin:miter;stroke-opacity:1"
       d="m 55.700003,165.95 v -25"
       id="path2213" />
    <path
       style="fill:none;stroke:#000000;stroke-width:0.237291px;stroke-linecap:butt;stroke-linejoin:miter;stroke-opacity:1"
       d="m 538.3,165.95 v -25"
       id="path2213-3" />
    <path
       style="fill:none;stroke:#000000;stroke-width:0.237291px;stroke-linecap:butt;stroke-linejoin:miter;stroke-opacity:1"
       d="m 55.700003,165.95 h -25"
       id="path2213-3-0" />
    <path
       style="fill:none;stroke:#000000;stroke-width:0.237291px;stroke-linecap:butt;stroke-linejoin:miter;stroke-opacity:1"
       d="m 55.700003,254.05 h -25"
       id="path2213-3-0-2" />
    <path
       style="fill:none;stroke:#000000;stroke-width:0.264583px;stroke-linecap:butt;stroke-linejoin:miter;stroke-opacity:1;marker-start:url(#marker3809);marker-end:url(#marker3819)"
       d="m 43.200002,165.95 c 0,88.1 0,88.1 0,88.1"
       id="path2620" />
    <path
       style="fill:none;stroke:#000000;stroke-width:0.264583px;stroke-linecap:butt;stroke-linejoin:miter;stroke-opacity:1;marker-start:url(#Arrow1Lstart);marker-end:url(#Arrow1Lend)"
       d="M 55.700003,153.45 C 538.3,153.45 538.3,153.45 538.3,153.45"
       id="path2622" />
    <text
       xml:space="preserve"
       style="font-style:normal;font-weight:normal;font-size:10.5833px;line-height:1.25;font-family:sans-serif;fill:#000000;fill-opacity:1;stroke:none;stroke-width:0.264583"
       x="269.72269"
       y="150.88232"
       id="text4445"><tspan
         sodipodi:role="line"
         id="tspan4443"
         style="stroke-width:0.264583"
         x="269.72269"
         y="150.88232">482.6 mm</tspan></text>
    <text
       xml:space="preserve"
       style="font-style:normal;font-weight:normal;font-size:10.5833px;line-height:1.25;font-family:sans-serif;fill:#000000;fill-opacity:1;stroke:none;stroke-width:0.264583"
       x="-234.02946"
       y="41.215958"
       id="text6765"
       transform="rotate(-90)"><tspan
         sodipodi:role="line"
         id="tspan6763"
         style="stroke-width:0.264583"
         x="-234.02946"
         y="41.215958">88.1 mm</tspan></text>
    <text
       xml:space="preserve"
       style="font-style:normal;font-weight:normal;font-size:10.5833px;line-height:1.25;font-family:sans-serif;fill:#000000;fill-opacity:1;stroke:none;stroke-width:0.264583"
       x="234.27277"
       y="275.29526"
       id="text8191"><tspan
         sodipodi:role="line"
         id="tspan8189"
         style="stroke-width:0.264583"
         x="234.27277"
         y="275.29526">Notes:</tspan><tspan
         sodipodi:role="line"
         style="stroke-width:0.264583"
         x="234.27277"
         y="288.52438"
         id="tspan8193">- Red areas are cutouts</tspan></text>
  </g>
</svg>
