0
SECTION
2
HEADER
9
$INSUNITS
70
4
9
$ACADVER
1
AC1014
9
$HANDSEED
5
FFFF
0
ENDSEC
0
SECTION
2
TABLES
0
TABLE
2
VPORT
5
8
100
AcDbSymbolTable
0
ENDTAB
0
TABLE
2
LTYPE
5
5
100
AcDbSymbolTable
0
LTYPE
5
14
100
AcDbSymbolTableRecord
100
AcDbLinetypeTableRecord
2
BYBLOCK
70
0
0
LTYPE
5
15
100
AcDbSymbolTableRecord
100
AcDbLinetypeTableRecord
2
BYLAYER
70
0
0
ENDTAB
0
TABLE
2
LAYER
5
2
100
AcDbSymbolTable
70
2
0
LAYER
5
50
100
AcDbSymbolTableRecord
100
AcDbLayerTableRecord
2
0
70
0
6
CONTINUOUS
0
ENDTAB
0
TABLE
2
STYLE
5
3
100
AcDbSymbolTable
70
1
0
STYLE
5
11
100
AcDbSymbolTableRecord
100
AcDbTextStyleTableRecord
2
STANDARD
70
0
0
ENDTAB
0
TABLE
2
VIEW
5
6
100
AcDbSymbolTable
70
0
0
ENDTAB
0
TABLE
2
UCS
5
7
100
AcDbSymbolTable
70
0
0
ENDTAB
0
TABLE
2
APPID
5
9
100
AcDbSymbolTable
70
2
0
APPID
5
12
100
AcDbSymbolTableRecord
100
AcDbRegAppTableRecord
2
ACAD
70
0
0
ENDTAB
0
TABLE
2
DIMSTYLE
5
A
100
AcDbSymbolTable
70
1
0
ENDTAB
0
TABLE
2
BLOCK_RECORD
5
1
100
AcDbSymbolTable
70
1
0
BLOCK_RECORD
5
1F
100
AcDbSymbolTableRecord
100
AcDbBlockTableRecord
2
*MODEL_SPACE
0
BLOCK_RECORD
5
1B
100
AcDbSymbolTableRecord
100
AcDbBlockTableRecord
2
*PAPER_SPACE
0
ENDTAB
0
ENDSEC
0
SECTION
2
BLOCKS
0
BLOCK
5
20
100
AcDbEntity
100
AcDbBlockBegin
2
*MODEL_SPACE
0
ENDBLK
5
21
100
AcDbEntity
100
AcDbBlockEnd
0
BLOCK
5
1C
100
AcDbEntity
100
AcDbBlockBegin
2
*PAPER_SPACE
0
ENDBLK
5
1D
100
AcDbEntity
100
AcDbBlockEnd
0
ENDSEC
0
SECTION
2
ENTITIES
0
CIRCLE
5
100
100
AcDbEntity
8
0
100
AcDbCircle
10
74.571629362865437
20
6.9499983642167438
30
0
40
1.6000000000000216
210
2.4811369464360996e-48
220
-1.8349424414464378e-79
230
1
0
CIRCLE
5
101
100
AcDbEntity
8
0
100
AcDbCircle
10
13.571629362865334
20
6.9499983642167509
30
0
40
1.6000000000000172
210
-1.1108734470137894e-48
220
6.8462861952912341e-80
230
1
0
CIRCLE
5
102
100
AcDbEntity
8
0
100
AcDbCircle
10
-108.42837063713488
20
6.9499983642167615
30
0
40
1.6000000000000216
210
2.4811369464360996e-48
220
-1.8349424414464378e-79
230
1
0
CIRCLE
5
103
100
AcDbEntity
8
0
100
AcDbCircle
10
-35.928370637134869
20
30.94999836421681
30
-7.1054273576010019e-14
40
1.6000000000000083
210
2.4811369464360987e-48
220
-1.8349424414464384e-79
230
1
0
CIRCLE
5
104
100
AcDbEntity
8
0
100
AcDbCircle
10
-157.92837063713503
20
30.9499983642168
30
0
40
1.6000000000000039
210
2.4811369464360999e-48
220
-1.8349424414464387e-79
230
1
0
LWPOLYLINE
5
105
100
AcDbEntity
8
0
100
AcDbPolyline
90
4
70
1
43
0.0
10
-149.26200945633968
20
-19.550001635783335
10
-147.46210496378302
20
-19.550001635783318
10
-147.46210496378535
20
-20.122223586690474
42
-14.37487863972879
10
-149.26200945633965
20
-20.103681265292209
0
LWPOLYLINE
5
106
100
AcDbEntity
8
0
100
AcDbPolyline
90
4
70
1
43
0.0
10
-88.262009456339584
20
-19.550001635783339
10
-86.462104963782906
20
-19.550001635783321
10
-86.462104963785222
20
-20.122223586690488
42
-14.374878639728882
10
-88.262009456339541
20
-20.103681265292217
0
LWPOLYLINE
5
107
100
AcDbEntity
8
0
100
AcDbPolyline
90
4
70
1
43
0.0
10
-27.262009456339499
20
-19.550001635783346
10
-25.462104963782821
20
-19.550001635783325
10
-25.46210496378513
20
-20.122223586690495
42
-14.37487863972879
10
-27.262009456339442
20
-20.103681265292224
0
LWPOLYLINE
5
108
100
AcDbEntity
8
0
100
AcDbPolyline
90
4
70
1
43
0.0
10
33.737990543660615
20
-19.550001635783353
10
35.537895036217293
20
-19.550001635783328
10
35.537895036214991
20
-20.122223586690499
42
-14.374878639728651
10
33.737990543660665
20
-20.103681265292227
0
LWPOLYLINE
5
109
100
AcDbEntity
8
0
100
AcDbPolyline
90
4
70
1
43
0.0
10
94.737990543660743
20
-19.55000163578336
10
96.537895036217407
20
-19.550001635783328
10
96.537895036215104
20
-20.122223586690499
42
-14.37487863972879
10
94.7379905436608
20
-20.103681265292238
0
CIRCLE
5
110
100
AcDbEntity
8
0
100
AcDbCircle
10
148.07162936286605
20
-0.050001798583629631
30
0
40
1.6000000000000039
210
-1.928806279235785e-48
220
9.5097491714618952e-80
230
1
0
CIRCLE
5
111
100
AcDbEntity
8
0
100
AcDbCircle
10
65.071629362865323
20
18.949998364216768
30
0
40
12.000000000000018
210
2.7616533360015797e-49
220
-1.7020002738631389e-80
230
1
0
CIRCLE
5
112
100
AcDbEntity
8
0
100
AcDbCircle
10
-56.92837063713489
20
18.949998364216775
30
0
40
12.000000000000018
210
2.7616533360015797e-49
220
-1.7020002738631389e-80
230
1
0
CIRCLE
5
113
100
AcDbEntity
8
0
100
AcDbCircle
10
-178.92837063713512
20
18.949998364216775
30
0
40
12.000000000000011
210
2.4811369464361011e-48
220
-1.8349424414464402e-79
230
1
0
CIRCLE
5
114
100
AcDbEntity
8
0
100
AcDbCircle
10
-87.428370637134918
20
18.949998364216771
30
0
40
12.000000000000018
210
2.7616533360015797e-49
220
-1.7020002738631389e-80
230
1
0
CIRCLE
5
115
100
AcDbEntity
8
0
100
AcDbCircle
10
34.571629362865288
20
18.949998364216771
30
0
40
12.000000000000014
210
2.4811369464360999e-48
220
-1.8349424414464381e-79
230
1
0
CIRCLE
5
116
100
AcDbEntity
8
0
100
AcDbCircle
10
188.07162936286608
20
-0.050001798583559409
30
0
40
1.6000000000000039
210
-1.928806279235785e-48
220
9.5097491714618952e-80
230
1
0
LWPOLYLINE
5
117
100
AcDbEntity
8
0
100
AcDbPolyline
90
4
70
1
43
0.0
10
94.720407673000722
20
-0.10597963719426229
42
14.374878276209607
10
96.520356052431197
20
-0.11961163578318827
10
96.520356052431225
20
0.44999836421681144
10
94.720407673000665
20
0.44999836421654277
0
LWPOLYLINE
5
118
100
AcDbEntity
8
0
100
AcDbPolyline
90
4
70
1
43
0.0
10
33.720407673000608
20
-0.10597963719425452
42
14.374878276209653
10
35.520356052431069
20
-0.11961163578318404
10
35.520356052431111
20
0.44999836421681805
10
33.720407673000537
20
0.44999836421656336
0
LWPOLYLINE
5
119
100
AcDbEntity
8
0
100
AcDbPolyline
90
4
70
1
43
0.0
10
-27.279592326999492
20
-0.10597963719424897
42
14.374878276209746
10
-25.479643947569045
20
-0.119611635783178
10
-25.479643947568995
20
0.44999836421682421
10
-27.279592326999573
20
0.44999836421658329
0
LWPOLYLINE
5
120
100
AcDbEntity
8
0
100
AcDbPolyline
90
4
70
1
43
0.0
10
-88.279592326999591
20
-0.1059796371942423
42
14.374878276209746
10
-86.47964394756913
20
-0.11961163578317044
10
-86.479643947569102
20
0.44999836421682976
10
-88.279592326999662
20
0.44999836421660272
0
LWPOLYLINE
5
121
100
AcDbEntity
8
0
100
AcDbPolyline
90
4
70
1
43
0.0
10
-149.2795923269997
20
-0.10597963719423453
42
14.374878276209746
10
-147.47964394756923
20
-0.11961163578316378
10
-147.4796439475692
20
0.44999836421683587
10
-149.27959232699976
20
0.44999836421662276
0
CIRCLE
5
122
100
AcDbEntity
8
0
100
AcDbCircle
10
-188.42837063713515
20
30.9499983642168
30
0
40
1.6000000000000039
210
2.4811369464360999e-48
220
-1.8349424414464387e-79
230
1
0
CIRCLE
5
123
100
AcDbEntity
8
0
100
AcDbCircle
10
-66.428370637134947
20
30.94999836421681
30
0
40
1.6000000000000127
210
2.4811369464360993e-48
220
-2.4651903288156619e-32
230
1
0
CIRCLE
5
124
100
AcDbEntity
8
0
100
AcDbCircle
10
-138.92837063713492
20
6.949998364216766
30
0
40
1.6000000000000216
210
2.4811369464360996e-48
220
-1.8349424414464378e-79
230
1
0
CIRCLE
5
125
100
AcDbEntity
8
0
100
AcDbCircle
10
-16.928370637134719
20
6.9499983642167527
30
0
40
1.6000000000000172
210
2.4811369464360999e-48
220
-1.8349424414464393e-79
230
1
0
CIRCLE
5
126
100
AcDbEntity
8
0
100
AcDbCircle
10
55.571629362865274
20
30.949998364216814
30
0
40
1.6000000000000127
210
2.4811369464360993e-48
220
-2.4651903288156619e-32
230
1
0
CIRCLE
5
127
100
AcDbEntity
8
0
100
AcDbCircle
10
128.07162936286605
20
-0.050001798583552748
30
0
40
2.6000000000000019
210
-1.9288062792357838e-48
220
9.5097491714618742e-80
230
1
0
CIRCLE
5
128
100
AcDbEntity
8
0
100
AcDbCircle
10
25.071629362865234
20
30.94999836421681
30
0
40
1.6000000000000083
210
2.4811369464360987e-48
220
-1.8349424414464384e-79
230
1
0
CIRCLE
5
129
100
AcDbEntity
8
0
100
AcDbCircle
10
-77.928370637134833
20
6.9499983642167598
30
0
40
1.6000000000000216
210
2.4811369464360996e-48
220
-1.8349424414464378e-79
230
1
0
CIRCLE
5
130
100
AcDbEntity
8
0
100
AcDbCircle
10
-5.4283706371348188
20
30.94999836421681
30
0
40
1.6000000000000103
210
-1.97215226305253e-31
220
9.7234613716579573e-63
230
1
0
CIRCLE
5
131
100
AcDbEntity
8
0
100
AcDbCircle
10
-127.428370637135
20
30.9499983642168
30
0
40
1.6000000000000039
210
2.4811369464360999e-48
220
-1.8349424414464387e-79
230
1
0
LWPOLYLINE
5
132
100
AcDbEntity
8
0
100
AcDbPolyline
90
4
70
1
43
0.0
10
-179.77959232699988
20
0.44999836421663214
10
-177.97964394756931
20
0.4499983642168392
10
-177.97964394756934
20
-0.11961163578316034
42
-14.374878276210023
10
-179.77959232699976
20
-0.10597963719422898
0
LWPOLYLINE
5
133
100
AcDbEntity
8
0
100
AcDbPolyline
90
4
70
1
43
0.0
10
-118.77959232699965
20
-0.10597963719424008
42
14.374878276209746
10
-116.9796439475692
20
-0.11961163578316822
10
-116.97964394756916
20
0.44999836421683304
10
-118.77959232699972
20
0.44999836421661277
0
LWPOLYLINE
5
134
100
AcDbEntity
8
0
100
AcDbPolyline
90
4
70
1
43
0.0
10
-57.779592326999548
20
-0.10597963719424341
42
14.374878276209838
10
-55.979643947569109
20
-0.11961163578317432
10
-55.979643947569066
20
0.44999836421682698
10
-57.779592326999634
20
0.44999836421659273
0
LWPOLYLINE
5
135
100
AcDbEntity
8
0
100
AcDbPolyline
90
4
70
1
43
0.0
10
3.2204076730005617
20
-0.1059796371942523
42
14.374878276209746
10
5.0203560524310138
20
-0.11961163578318071
10
5.0203560524310493
20
0.44999836421682088
10
3.2204076730004791
20
0.44999836421657335
0
LWPOLYLINE
5
136
100
AcDbEntity
8
0
100
AcDbPolyline
90
4
70
1
43
0.0
10
64.237990543660658
20
-19.550001635783353
10
66.037895036217336
20
-19.550001635783325
10
66.037895036215048
20
-20.122223586690499
42
-14.374878639728651
10
64.2379905436607
20
-20.103681265292231
0
CIRCLE
5
137
100
AcDbEntity
8
0
100
AcDbCircle
10
86.071629362865366
20
30.949998364216814
30
0
40
1.6000000000000039
210
2.4811369464360999e-48
220
-1.8349424414464387e-79
230
1
0
CIRCLE
5
138
100
AcDbEntity
8
0
100
AcDbCircle
10
95.571629362865423
20
18.949998364216768
30
0
40
12.000000000000028
210
2.4811369464361023e-48
220
-1.8349424414464411e-79
230
1
0
CIRCLE
5
139
100
AcDbEntity
8
0
100
AcDbCircle
10
-26.428370637134822
20
18.949998364216768
30
0
40
12.000000000000018
210
2.7616533360015797e-49
220
-1.7020002738631389e-80
230
1
0
CIRCLE
5
140
100
AcDbEntity
8
0
100
AcDbCircle
10
-148.428370637135
20
18.949998364216775
30
0
40
12.000000000000028
210
2.4811369464361023e-48
220
-1.8349424414464411e-79
230
1
0
CIRCLE
5
141
100
AcDbEntity
8
0
100
AcDbCircle
10
-117.92837063713498
20
18.949998364216775
30
-7.1054273576010019e-14
40
12.000000000000028
210
2.4811369464361023e-48
220
-1.8349424414464411e-79
230
1
0
CIRCLE
5
142
100
AcDbEntity
8
0
100
AcDbCircle
10
4.0716293628652274
20
18.949998364216768
30
0
40
12.000000000000018
210
2.7616533360015797e-49
220
-1.7020002738631389e-80
230
1
0
LWPOLYLINE
5
143
100
AcDbEntity
8
0
100
AcDbPolyline
90
8
70
1
43
0.0
10
180.32162936286613
20
-11.300001798583583
10
155.82162936286613
20
-11.300001798583587
42
-0.41421356237309775
10
152.82162936286613
20
-8.3000017985835886
10
152.82162936286613
20
8.1999982014163457
42
-0.41421356237309481
10
155.82162936286625
20
11.199998201416438
10
180.32162936286593
20
11.199998201416431
42
-0.41421356237292117
10
183.32162936286613
20
8.1999982014143686
10
183.32162936286613
20
-8.3000017985835637
42
-0.41421356237310408
0
CIRCLE
5
144
100
AcDbEntity
8
0
100
AcDbCircle
10
105.07162936286551
20
6.949998364216742
30
0
40
1.6000000000000216
210
2.4811369464360996e-48
220
-1.8349424414464378e-79
230
1
0
LWPOLYLINE
5
145
100
AcDbEntity
8
0
100
AcDbPolyline
90
4
70
1
43
0.0
10
64.220407673000665
20
-0.10597963719425785
42
14.374878276209838
10
66.020356052431111
20
-0.11961163578318647
10
66.020356052431154
20
0.44999836421681422
10
64.22040767300058
20
0.44999836421655276
0
LWPOLYLINE
5
146
100
AcDbEntity
8
0
100
AcDbPolyline
90
4
70
1
43
0.0
10
3.2379905436605583
20
-19.550001635783346
10
5.0378950362172343
20
-19.550001635783325
10
5.0378950362149304
20
-20.122223586690495
42
-14.374878639728744
10
3.2379905436606093
20
-20.103681265292224
0
LWPOLYLINE
5
147
100
AcDbEntity
8
0
100
AcDbPolyline
90
4
70
1
43
0.0
10
-57.762009456339555
20
-19.550001635783339
10
-55.962104963782878
20
-19.550001635783321
10
-55.962104963785187
20
-20.122223586690492
42
-14.37487863972879
10
-57.762009456339499
20
-20.10368126529222
0
LWPOLYLINE
5
148
100
AcDbEntity
8
0
100
AcDbPolyline
90
4
70
1
43
0.0
10
-118.76200945633965
20
-19.550001635783335
10
-116.96210496378298
20
-19.550001635783318
10
-116.96210496378528
20
-20.122223586690488
42
-14.37487863972879
10
-118.7620094563396
20
-20.103681265292217
0
LWPOLYLINE
5
149
100
AcDbEntity
8
0
100
AcDbPolyline
90
4
70
1
43
0.0
10
-177.96210496378313
20
-19.550001635783318
10
-177.96210496378541
20
-20.122223586690478
42
-14.374878639728559
10
-179.76200945633977
20
-20.103681265292209
10
-179.7620094563398
20
-19.550001635783328
0
CIRCLE
5
150
100
AcDbEntity
8
0
100
AcDbCircle
10
-96.928370637134961
20
30.9499983642168
30
0
40
1.6000000000000039
210
2.4811369464360999e-48
220
-1.8349424414464387e-79
230
1
0
CIRCLE
5
151
100
AcDbEntity
8
0
100
AcDbCircle
10
-169.42837063713506
20
6.9499983642167678
30
0
40
1.6000000000000039
210
2.4811369464360999e-48
220
-1.8349424414464387e-79
230
1
0
CIRCLE
5
152
100
AcDbEntity
8
0
100
AcDbCircle
10
-47.42837063713479
20
6.9499983642167571
30
0
40
1.6000000000000216
210
2.4811369464360996e-48
220
-1.8349424414464378e-79
230
1
0
CIRCLE
5
153
100
AcDbEntity
8
0
100
AcDbCircle
10
44.07162936286538
20
6.9499983642167464
30
0
40
1.6000000000000216
210
2.4811369464360996e-48
220
-1.8349424414464378e-79
230
1
0
LWPOLYLINE
5
154
100
AcDbEntity
8
0
100
AcDbPolyline
90
4
70
1
43
0.0
10
169.02035716831881
20
-19.55000163585327
10
169.02035716831688
20
-20.119611635853264
42
-14.374878639753456
10
167.22040879124935
20
-20.105979325262272
10
167.22040879125117
20
-19.55000163585327
0
LWPOLYLINE
5
155
100
AcDbEntity
8
0
100
AcDbPolyline
90
12
70
1
43
0.0
10
-198.92837063713475
20
-35.850001798583506
10
-198.92837063713475
20
-36.850001798583506
10
203.07162936286591
20
-36.850001798583556
10
203.07162936286591
20
-35.850001798583556
10
215.57162936286596
20
-35.850001798583556
10
215.57162936286591
20
35.749998201416432
10
203.07162936286591
20
35.749998201416432
10
203.07162936286596
20
36.749998201416531
10
-198.92837063713472
20
36.749998201416581
10
-198.92837063713472
20
35.749998201416474
10
-211.42837063713475
20
35.749998201416474
10
-211.42837063713472
20
-35.850001798583506
0
CIRCLE
5
156
100
AcDbEntity
8
0
100
AcDbCircle
10
210.82162936286593
20
26.449998201416523
30
0
40
3.2000000000000153
210
2.75807428027462e-32
220
2.4651903288156613e-32
230
1
0
CIRCLE
5
157
100
AcDbEntity
8
0
100
AcDbCircle
10
210.82162936286591
20
-26.550001798583544
30
0
40
3.2000000000000153
210
2.75807428027462e-32
220
2.4651903288156613e-32
230
1
0
CIRCLE
5
158
100
AcDbEntity
8
0
100
AcDbCircle
10
-206.67837063713475
20
-26.550001798583498
30
0
40
3.2000000000000153
210
2.75807428027462e-32
220
2.4651903288156613e-32
230
1
0
CIRCLE
5
159
100
AcDbEntity
8
0
100
AcDbCircle
10
-206.67837063713472
20
26.449998201416566
30
0
40
3.2000000000000153
210
2.75807428027462e-32
220
2.4651903288156613e-32
230
1
0
ENDSEC
0
SECTION
2
OBJECTS
0
DICTIONARY
5
C
100
AcDbDictionary
3
ACAD_GROUP
350
D
3
ACAD_MLINESTYLE
350
17
0
DICTIONARY
5
D
100
AcDbDictionary
0
DICTIONARY
5
1A
330
C
100
AcDbDictionary
0
DICTIONARY
5
17
100
AcDbDictionary
0
ENDSEC
0
EOF
