0
SECTION
2
HEADER
9
$INSUNITS
70
4
9
$ACADVER
1
AC1014
9
$HANDSEED
5
FFFF
0
ENDSEC
0
SECTION
2
TABLES
0
TABLE
2
VPORT
5
8
100
AcDbSymbolTable
0
ENDTAB
0
TABLE
2
LTYPE
5
5
100
AcDbSymbolTable
0
LTYPE
5
14
100
AcDbSymbolTableRecord
100
AcDbLinetypeTableRecord
2
BYBLOCK
70
0
0
LTYPE
5
15
100
AcDbSymbolTableRecord
100
AcDbLinetypeTableRecord
2
BYLAYER
70
0
0
ENDTAB
0
TABLE
2
LAYER
5
2
100
AcDbSymbolTable
70
2
0
LAYER
5
50
100
AcDbSymbolTableRecord
100
AcDbLayerTableRecord
2
0
70
0
6
CONTINUOUS
0
ENDTAB
0
TABLE
2
STYLE
5
3
100
AcDbSymbolTable
70
1
0
STYLE
5
11
100
AcDbSymbolTableRecord
100
AcDbTextStyleTableRecord
2
STANDARD
70
0
0
ENDTAB
0
TABLE
2
VIEW
5
6
100
AcDbSymbolTable
70
0
0
ENDTAB
0
TABLE
2
UCS
5
7
100
AcDbSymbolTable
70
0
0
ENDTAB
0
TABLE
2
APPID
5
9
100
AcDbSymbolTable
70
2
0
APPID
5
12
100
AcDbSymbolTableRecord
100
AcDbRegAppTableRecord
2
ACAD
70
0
0
ENDTAB
0
TABLE
2
DIMSTYLE
5
A
100
AcDbSymbolTable
70
1
0
ENDTAB
0
TABLE
2
BLOCK_RECORD
5
1
100
AcDbSymbolTable
70
1
0
BLOCK_RECORD
5
1F
100
AcDbSymbolTableRecord
100
AcDbBlockTableRecord
2
*MODEL_SPACE
0
BLOCK_RECORD
5
1B
100
AcDbSymbolTableRecord
100
AcDbBlockTableRecord
2
*PAPER_SPACE
0
ENDTAB
0
ENDSEC
0
SECTION
2
BLOCKS
0
BLOCK
5
20
100
AcDbEntity
100
AcDbBlockBegin
2
*MODEL_SPACE
0
ENDBLK
5
21
100
AcDbEntity
100
AcDbBlockEnd
0
BLOCK
5
1C
100
AcDbEntity
100
AcDbBlockBegin
2
*PAPER_SPACE
0
ENDBLK
5
1D
100
AcDbEntity
100
AcDbBlockEnd
0
ENDSEC
0
SECTION
2
ENTITIES
0
CIRCLE
5
100
100
AcDbEntity
8
0
100
AcDbCircle
10
45.678370637134229
20
9.9999982014163127
30
-2.7755575615628914e-16
40
4.1000000000000076
210
2.7078392067101809e-48
220
2.002601707310934e-79
230
1
0
CIRCLE
5
101
100
AcDbEntity
8
0
100
AcDbCircle
10
-150.32162936286619
20
30.649998201417556
30
0
40
2.0999999999999943
210
2.70783920671018e-48
220
2.002601707310934e-79
230
1
0
CIRCLE
5
102
100
AcDbEntity
8
0
100
AcDbCircle
10
-100.32162936286642
20
-19.350001798583065
30
0
40
2.0999999999999943
210
2.70783920671018e-48
220
2.002601707310934e-79
230
1
0
CIRCLE
5
103
100
AcDbEntity
8
0
100
AcDbCircle
10
45.678370637134229
20
-10.000001798583703
30
0
40
4.1000000000000076
210
2.7078392067101809e-48
220
2.002601707310934e-79
230
1
0
CIRCLE
5
104
100
AcDbEntity
8
0
100
AcDbCircle
10
-100.32162936286609
20
30.649998201417002
30
0
40
2.1000000000000121
210
3.9352565471080338e-48
220
3.3954047334687202e-79
230
1
0
CIRCLE
5
105
100
AcDbEntity
8
0
100
AcDbCircle
10
-125.32162936286636
20
5.6499982014171941
30
0
40
26.500000000000043
210
2.70783920671018e-48
220
2.0026017073109334e-79
230
1
0
CIRCLE
5
106
100
AcDbEntity
8
0
100
AcDbCircle
10
-150.32162936286659
20
-19.35000179858261
30
0
40
2.1000000000000121
210
3.9352565471080338e-48
220
3.3954047334687202e-79
230
1
0
LWPOLYLINE
5
107
100
AcDbEntity
8
0
100
AcDbPolyline
90
4
70
1
43
0.0
10
163.37837063713499
20
1.19999820141632
10
164.45063172034239
20
1.1999982014163106
42
-16.606449097327232
10
164.45063172034239
20
-1.2000017985836828
10
163.37837063713499
20
-1.2000017985836826
0
LWPOLYLINE
5
108
100
AcDbEntity
8
0
100
AcDbPolyline
90
4
70
1
43
0.0
10
239.22837063713487
20
-44.050001798583729
10
239.22837063713487
20
44.049998201416386
10
-243.37162936286597
20
44.049998201416329
10
-243.37162936286597
20
-44.050001798583779
0
LWPOLYLINE
5
109
100
AcDbEntity
8
0
100
AcDbPolyline
90
4
70
1
43
0.0
10
226.8259409015258
20
41.849998201416376
10
234.03080037274384
20
41.849998201416398
42
-0.42601873717093197
10
234.03080037274381
20
34.349998201416348
10
226.8259409015258
20
34.349998201416369
42
-0.42601873717093108
0
LWPOLYLINE
5
110
100
AcDbEntity
8
0
100
AcDbPolyline
90
4
70
1
43
0.0
10
226.8259409015258
20
-34.350001798583719
10
234.03080037274384
20
-34.350001798583705
42
-0.42601873717093214
10
234.03080037274381
20
-41.850001798583747
10
226.8259409015258
20
-41.850001798583719
42
-0.42601873717093108
0
LWPOLYLINE
5
111
100
AcDbEntity
8
0
100
AcDbPolyline
90
4
70
1
43
0.0
10
-238.17405909847491
20
-34.350001798583769
10
-230.96919962725684
20
-34.350001798583762
42
-0.42601873717093214
10
-230.9691996272569
20
-41.850001798583804
10
-238.17405909847491
20
-41.850001798583776
42
-0.42601873717093108
0
LWPOLYLINE
5
112
100
AcDbEntity
8
0
100
AcDbPolyline
90
4
70
1
43
0.0
10
-238.17405909847491
20
41.849998201416327
10
-230.96919962725693
20
41.849998201416312
42
-0.4260187371709302
10
-230.9691996272569
20
34.349998201416341
10
-238.17405909847491
20
34.349998201416319
42
-0.42601873717093108
0
CIRCLE
5
113
100
AcDbEntity
8
0
100
AcDbCircle
10
-210.82162936286585
20
26.44999820141631
30
0
40
2.2500000000000036
210
1.105559255368767e-32
220
-1.2325951644078308e-32
230
1
0
CIRCLE
5
114
100
AcDbEntity
8
0
100
AcDbCircle
10
-210.82162936286585
20
-26.550001798583757
30
0
40
2.2500000000000036
210
1.105559255368767e-32
220
-1.2325951644078308e-32
230
1
0
CIRCLE
5
115
100
AcDbEntity
8
0
100
AcDbCircle
10
206.67837063713478
20
26.449998201416353
30
0
40
2.2500000000000036
210
1.105559255368767e-32
220
-1.2325951644078308e-32
230
1
0
CIRCLE
5
116
100
AcDbEntity
8
0
100
AcDbCircle
10
206.67837063713478
20
-26.550001798583711
30
0
40
2.2500000000000036
210
1.105559255368767e-32
220
-1.2325951644078308e-32
230
1
0
ENDSEC
0
SECTION
2
OBJECTS
0
DICTIONARY
5
C
100
AcDbDictionary
3
ACAD_GROUP
350
D
3
ACAD_MLINESTYLE
350
17
0
DICTIONARY
5
D
100
AcDbDictionary
0
DICTIONARY
5
1A
330
C
100
AcDbDictionary
0
DICTIONARY
5
17
100
AcDbDictionary
0
ENDSEC
0
EOF
