0
SECTION
2
HEADER
9
$INSUNITS
70
4
9
$ACADVER
1
AC1014
9
$HANDSEED
5
FFFF
0
ENDSEC
0
SECTION
2
TABLES
0
TABLE
2
VPORT
5
8
100
AcDbSymbolTable
0
ENDTAB
0
TABLE
2
LTYPE
5
5
100
AcDbSymbolTable
0
LTYPE
5
14
100
AcDbSymbolTableRecord
100
AcDbLinetypeTableRecord
2
BYBLOCK
70
0
0
LTYPE
5
15
100
AcDbSymbolTableRecord
100
AcDbLinetypeTableRecord
2
BYLAYER
70
0
0
ENDTAB
0
TABLE
2
LAYER
5
2
100
AcDbSymbolTable
70
2
0
LAYER
5
50
100
AcDbSymbolTableRecord
100
AcDbLayerTableRecord
2
0
70
0
6
CONTINUOUS
0
ENDTAB
0
TABLE
2
STYLE
5
3
100
AcDbSymbolTable
70
1
0
STYLE
5
11
100
AcDbSymbolTableRecord
100
AcDbTextStyleTableRecord
2
STANDARD
70
0
0
ENDTAB
0
TABLE
2
VIEW
5
6
100
AcDbSymbolTable
70
0
0
ENDTAB
0
TABLE
2
UCS
5
7
100
AcDbSymbolTable
70
0
0
ENDTAB
0
TABLE
2
APPID
5
9
100
AcDbSymbolTable
70
2
0
APPID
5
12
100
AcDbSymbolTableRecord
100
AcDbRegAppTableRecord
2
ACAD
70
0
0
ENDTAB
0
TABLE
2
DIMSTYLE
5
A
100
AcDbSymbolTable
70
1
0
ENDTAB
0
TABLE
2
BLOCK_RECORD
5
1
100
AcDbSymbolTable
70
1
0
BLOCK_RECORD
5
1F
100
AcDbSymbolTableRecord
100
AcDbBlockTableRecord
2
*MODEL_SPACE
0
BLOCK_RECORD
5
1B
100
AcDbSymbolTableRecord
100
AcDbBlockTableRecord
2
*PAPER_SPACE
0
ENDTAB
0
ENDSEC
0
SECTION
2
BLOCKS
0
BLOCK
5
20
100
AcDbEntity
100
AcDbBlockBegin
2
*MODEL_SPACE
0
ENDBLK
5
21
100
AcDbEntity
100
AcDbBlockEnd
0
BLOCK
5
1C
100
AcDbEntity
100
AcDbBlockBegin
2
*PAPER_SPACE
0
ENDBLK
5
1D
100
AcDbEntity
100
AcDbBlockEnd
0
ENDSEC
0
SECTION
2
ENTITIES
0
LWPOLYLINE
5
100
100
AcDbEntity
8
0
100
AcDbPolyline
90
8
70
1
43
0.0
10
140.7599992923046
20
-160.73312844415409
10
112.54999929219392
20
-160.73312844417757
42
-0.41421356237272688
10
111.2499992921955
20
-159.43312844417758
10
111.24999929219547
20
-149.48312844412581
42
-0.41421356237309104
10
112.54999929219549
20
-148.1831284441258
10
140.75999929224648
20
-148.18312844411957
42
-0.41421356237169027
10
142.0599992921955
20
-149.48312844407479
10
142.05999929226576
20
-159.43312844407484
42
-0.41421356236951712
0
CIRCLE
5
101
100
AcDbEntity
8
0
100
AcDbCircle
10
3.80099929219549
20
-156.36432844406579
30
0
40
1.5000000000000016
210
0
220
-0
230
1
0
CIRCLE
5
102
100
AcDbEntity
8
0
100
AcDbCircle
10
-91.300000707805992
20
-154.45812844410864
30
0
40
11.000000000000023
210
0
220
0
230
1
0
CIRCLE
5
103
100
AcDbEntity
8
0
100
AcDbCircle
10
-131.20000070779994
20
-144.55812844410261
30
0
40
1.6000000000000028
210
0
220
0
230
1
0
CIRCLE
5
104
100
AcDbEntity
8
0
100
AcDbCircle
10
-101.20000070779994
20
-144.55812844410261
30
0
40
1.6000000000000028
210
0
220
0
230
1
0
CIRCLE
5
105
100
AcDbEntity
8
0
100
AcDbCircle
10
-25.00000070780451
20
-164.45812844416764
30
0
40
4.1000000000000005
210
0
220
0
230
1
0
CIRCLE
5
106
100
AcDbEntity
8
0
100
AcDbCircle
10
103.05099929217047
20
-156.36432844406579
30
0
40
1.5000000000000049
210
0
220
-0
230
1
0
LWPOLYLINE
5
107
100
AcDbEntity
8
0
100
AcDbPolyline
90
8
70
1
43
0.0
10
150.9999992921955
20
-159.43312844391301
10
150.99999929219547
20
-149.48312844410313
42
-0.41421356237310708
10
152.29999929219554
20
-148.18312844410309
10
180.50999929219543
20
-148.18312844410303
42
-0.41421356237308704
10
181.80999929219547
20
-149.48312844410304
10
181.80999929213351
20
-159.43312844410298
42
-0.41421356232134288
10
180.50999929224906
20
-160.73312844386396
10
152.29999929222345
20
-160.73312844394351
42
-0.41421356237249474
0
LWPOLYLINE
5
108
100
AcDbEntity
8
0
100
AcDbPolyline
90
8
70
1
43
0.0
10
16.299999292048451
20
-148.18312844428385
10
44.509999292195388
20
-148.18312844397153
42
-0.41421356237311907
10
45.809999292195499
20
-149.48312844397148
10
45.809999292195407
20
-159.43312844422769
42
-0.41421356237309503
10
44.509999292195488
20
-160.73312844422762
10
16.299999292180782
20
-160.73312844422765
42
-0.41421356237310758
10
14.999999292195485
20
-159.43312844424236
10
14.999999292195517
20
-149.48312844414201
42
-0.41421356237192841
0
CIRCLE
5
109
100
AcDbEntity
8
0
100
AcDbCircle
10
-81.400000707799933
20
-164.35812844409821
30
0
40
1.6000000000000205
210
0
220
0
230
1
0
CIRCLE
5
110
100
AcDbEntity
8
0
100
AcDbCircle
10
-121.30000070780599
20
-154.45812844410864
30
0
40
11.000000000000023
210
0
220
0
230
1
0
CIRCLE
5
111
100
AcDbEntity
8
0
100
AcDbCircle
10
-111.40000070779993
20
-164.35812844409821
30
0
40
1.6000000000000205
210
0
220
0
230
1
0
CIRCLE
5
112
100
AcDbEntity
8
0
100
AcDbCircle
10
-25.00000070780451
20
-144.45812844416764
30
0
40
4.1000000000000005
210
0
220
0
230
1
0
LWPOLYLINE
5
113
100
AcDbEntity
8
0
100
AcDbPolyline
90
8
70
1
43
0.0
10
64.799999292195508
20
-148.18312844405091
10
93.009999292195459
20
-148.18312844407592
42
-0.41421356237632878
10
94.30999929217046
20
-149.48312844406524
10
94.30999929219513
20
-159.43312844406523
42
-0.41421356237252677
10
93.009999292197591
20
-160.73312844406536
10
64.799999292197697
20
-160.73312844412067
42
-0.41421356237361134
10
63.499999292195497
20
-159.43312844412071
10
63.499999292195419
20
-149.48312844405095
42
-0.41421356237307699
0
CIRCLE
5
114
100
AcDbEntity
8
0
100
AcDbCircle
10
190.30099929219546
20
-156.36432844406579
30
0
40
1.4999999999999871
210
0
220
-0
230
1
0
LWPOLYLINE
5
115
100
AcDbEntity
8
0
100
AcDbPolyline
90
4
70
1
43
0.0
10
241.29999929219701
20
-176.28312844403507
10
241.29999929219701
20
-132.63312844403507
10
-241.30000070780602
20
-132.63312844403504
10
-241.30000070780599
20
-176.28312844403501
0
LWPOLYLINE
5
116
100
AcDbEntity
8
0
100
AcDbPolyline
90
4
70
1
43
0.0
10
228.89757481645901
20
-134.83313010439903
10
236.10243428767703
20
-134.83313010439903
42
-0.42601873717097749
10
236.10243428767703
20
-142.33313010439903
10
228.89757481645901
20
-142.33313010439903
42
-0.42601873717088434
0
LWPOLYLINE
5
117
100
AcDbEntity
8
0
100
AcDbPolyline
90
4
70
1
43
0.0
10
-236.10242518353701
20
-134.83313010439903
10
-228.89756571232704
20
-134.83313010439903
42
-0.42601873717088434
10
-228.89756571232704
20
-142.33313010439903
10
-236.10242518353701
20
-142.33313010439903
42
-0.42601873717163535
0
LWPOLYLINE
5
118
100
AcDbEntity
8
0
100
AcDbPolyline
90
4
70
1
43
0.0
10
228.89757481645901
20
-166.58313010439906
10
236.10243428767703
20
-166.58313010439906
42
-0.42601873717097749
10
236.10243428767703
20
-174.08313010439906
10
228.89757481645901
20
-174.08313010439906
42
-0.42601873717088434
0
LWPOLYLINE
5
119
100
AcDbEntity
8
0
100
AcDbPolyline
90
4
70
1
43
0.0
10
-236.10242518353701
20
-166.58313010439906
10
-228.89756571232704
20
-166.58313010439906
42
-0.42601873717087707
10
-228.89756571232698
20
-174.08313010439906
10
-236.10242518353704
20
-174.08313010439909
42
-0.42601873717164107
0
CIRCLE
5
120
100
AcDbEntity
8
0
100
AcDbCircle
10
208.75000000000099
20
-140.4831284440348
30
0
40
2.250000000000016
210
7.9433910595200105e-31
220
-3.1554436208839547e-30
230
1
0
CIRCLE
5
121
100
AcDbEntity
8
0
100
AcDbCircle
10
208.75000000000099
20
-168.4831284440348
30
0
40
2.250000000000016
210
1.1127595234242195e-30
220
-3.155443620883954e-30
230
1
0
CIRCLE
5
122
100
AcDbEntity
8
0
100
AcDbCircle
10
-208.74999999999801
20
-140.48312844403276
30
0
40
2.2500000000020055
210
1.1504221534434826e-30
220
1.1761824610232314e-42
230
1
0
CIRCLE
5
123
100
AcDbEntity
8
0
100
AcDbCircle
10
-208.74999999999801
20
-168.48312844403273
30
0
40
2.2500000000020055
210
1.5886782119018325e-30
220
1.5740820249692937e-42
230
1
0
ENDSEC
0
SECTION
2
OBJECTS
0
DICTIONARY
5
C
100
AcDbDictionary
3
ACAD_GROUP
350
D
3
ACAD_MLINESTYLE
350
17
0
DICTIONARY
5
D
100
AcDbDictionary
0
DICTIONARY
5
1A
330
C
100
AcDbDictionary
0
DICTIONARY
5
17
100
AcDbDictionary
0
ENDSEC
0
EOF
