0
SECTION
2
HEADER
9
$INSUNITS
70
4
9
$ACADVER
1
AC1014
9
$HANDSEED
5
FFFF
0
ENDSEC
0
SECTION
2
TABLES
0
TABLE
2
VPORT
5
8
100
AcDbSymbolTable
0
ENDTAB
0
TABLE
2
LTYPE
5
5
100
AcDbSymbolTable
0
LTYPE
5
14
100
AcDbSymbolTableRecord
100
AcDbLinetypeTableRecord
2
BYBLOCK
70
0
0
LTYPE
5
15
100
AcDbSymbolTableRecord
100
AcDbLinetypeTableRecord
2
BYLAYER
70
0
0
ENDTAB
0
TABLE
2
LAYER
5
2
100
AcDbSymbolTable
70
2
0
LAYER
5
50
100
AcDbSymbolTableRecord
100
AcDbLayerTableRecord
2
0
70
0
6
CONTINUOUS
0
ENDTAB
0
TABLE
2
STYLE
5
3
100
AcDbSymbolTable
70
1
0
STYLE
5
11
100
AcDbSymbolTableRecord
100
AcDbTextStyleTableRecord
2
STANDARD
70
0
0
ENDTAB
0
TABLE
2
VIEW
5
6
100
AcDbSymbolTable
70
0
0
ENDTAB
0
TABLE
2
UCS
5
7
100
AcDbSymbolTable
70
0
0
ENDTAB
0
TABLE
2
APPID
5
9
100
AcDbSymbolTable
70
2
0
APPID
5
12
100
AcDbSymbolTableRecord
100
AcDbRegAppTableRecord
2
ACAD
70
0
0
ENDTAB
0
TABLE
2
DIMSTYLE
5
A
100
AcDbSymbolTable
70
1
0
ENDTAB
0
TABLE
2
BLOCK_RECORD
5
1
100
AcDbSymbolTable
70
1
0
BLOCK_RECORD
5
1F
100
AcDbSymbolTableRecord
100
AcDbBlockTableRecord
2
*MODEL_SPACE
0
BLOCK_RECORD
5
1B
100
AcDbSymbolTableRecord
100
AcDbBlockTableRecord
2
*PAPER_SPACE
0
ENDTAB
0
ENDSEC
0
SECTION
2
BLOCKS
0
BLOCK
5
20
100
AcDbEntity
100
AcDbBlockBegin
2
*MODEL_SPACE
0
ENDBLK
5
21
100
AcDbEntity
100
AcDbBlockEnd
0
BLOCK
5
1C
100
AcDbEntity
100
AcDbBlockBegin
2
*PAPER_SPACE
0
ENDBLK
5
1D
100
AcDbEntity
100
AcDbBlockEnd
0
ENDSEC
0
SECTION
2
ENTITIES
0
CIRCLE
5
100
100
AcDbEntity
8
0
100
AcDbCircle
10
84.999999292195497
20
-156.35365544403524
30
0
40
1.5000000000000049
210
0
220
0
230
1
0
CIRCLE
5
101
100
AcDbEntity
8
0
100
AcDbCircle
10
24.999999292195501
20
-154.45812844403517
30
0
40
4.1000000000000005
210
0
220
0
230
1
0
LWPOLYLINE
5
102
100
AcDbEntity
8
0
100
AcDbPolyline
90
8
70
1
43
0.0
10
125.09553129219547
20
-160.73312844403512
42
0.41421356237307905
10
126.39553129219544
20
-159.43312844403513
10
126.39553129219559
20
-149.48312844403506
42
0.41421356237306706
10
125.09553129219546
20
-148.18312844403505
10
96.885531292195338
20
-148.18312844403516
42
0.41421356237308704
10
95.585531292195327
20
-149.48312844403517
10
95.585531292195327
20
-159.43312844403525
42
0.41421356237309503
10
96.885531292195367
20
-160.73312844403523
0
CIRCLE
5
103
100
AcDbEntity
8
0
100
AcDbCircle
10
-103.1500007078053
20
-154.45812844403514
30
0
40
3.1999999999999966
210
0
220
0
230
1
0
CIRCLE
5
104
100
AcDbEntity
8
0
100
AcDbCircle
10
-63.150000707805312
20
-154.45812844403517
30
0
40
3.2000000000000055
210
0
220
0
230
1
0
CIRCLE
5
105
100
AcDbEntity
8
0
100
AcDbCircle
10
136.99999929219547
20
-156.35365544403504
30
0
40
1.5000000000000049
210
0
220
0
230
1
0
LWPOLYLINE
5
106
100
AcDbEntity
8
0
100
AcDbPolyline
90
4
70
1
43
0.0
10
241.29999929219701
20
-176.28312844403507
10
241.29999929219701
20
-132.63312844403507
10
-241.30000070780602
20
-132.63312844403504
10
-241.30000070780599
20
-176.28312844403501
0
LWPOLYLINE
5
107
100
AcDbEntity
8
0
100
AcDbPolyline
90
4
70
1
43
0.0
10
228.89757481645901
20
-134.83313010439903
10
236.10243428767703
20
-134.83313010439903
42
-0.42601873717097749
10
236.10243428767703
20
-142.33313010439903
10
228.89757481645901
20
-142.33313010439903
42
-0.42601873717088434
0
LWPOLYLINE
5
108
100
AcDbEntity
8
0
100
AcDbPolyline
90
4
70
1
43
0.0
10
-236.10242518353701
20
-134.83313010439903
10
-228.89756571232704
20
-134.83313010439903
42
-0.42601873717088434
10
-228.89756571232704
20
-142.33313010439903
10
-236.10242518353701
20
-142.33313010439903
42
-0.42601873717163535
0
LWPOLYLINE
5
109
100
AcDbEntity
8
0
100
AcDbPolyline
90
4
70
1
43
0.0
10
228.89757481645901
20
-166.58313010439906
10
236.10243428767703
20
-166.58313010439906
42
-0.42601873717097749
10
236.10243428767703
20
-174.08313010439906
10
228.89757481645901
20
-174.08313010439906
42
-0.42601873717088434
0
LWPOLYLINE
5
110
100
AcDbEntity
8
0
100
AcDbPolyline
90
4
70
1
43
0.0
10
-236.10242518353701
20
-166.58313010439906
10
-228.89756571232704
20
-166.58313010439906
42
-0.42601873717087707
10
-228.89756571232698
20
-174.08313010439906
10
-236.10242518353704
20
-174.08313010439909
42
-0.42601873717164107
0
CIRCLE
5
111
100
AcDbEntity
8
0
100
AcDbCircle
10
208.75000000000099
20
-140.4831284440348
30
0
40
2.250000000000016
210
7.9433910595200105e-31
220
-3.1554436208839547e-30
230
1
0
CIRCLE
5
112
100
AcDbEntity
8
0
100
AcDbCircle
10
208.75000000000099
20
-168.4831284440348
30
0
40
2.250000000000016
210
1.1127595234242195e-30
220
-3.155443620883954e-30
230
1
0
CIRCLE
5
113
100
AcDbEntity
8
0
100
AcDbCircle
10
-208.74999999999801
20
-140.48312844403276
30
0
40
2.2500000000020055
210
1.1504221534434826e-30
220
1.1761824610232314e-42
230
1
0
CIRCLE
5
114
100
AcDbEntity
8
0
100
AcDbCircle
10
-208.74999999999801
20
-168.48312844403273
30
0
40
2.2500000000020055
210
1.5886782119018325e-30
220
1.5740820249692937e-42
230
1
0
ENDSEC
0
SECTION
2
OBJECTS
0
DICTIONARY
5
C
100
AcDbDictionary
3
ACAD_GROUP
350
D
3
ACAD_MLINESTYLE
350
17
0
DICTIONARY
5
D
100
AcDbDictionary
0
DICTIONARY
5
1A
330
C
100
AcDbDictionary
0
DICTIONARY
5
17
100
AcDbDictionary
0
ENDSEC
0
EOF
