0
SECTION
2
HEADER
9
$INSUNITS
70
4
9
$ACADVER
1
AC1014
9
$HANDSEED
5
FFFF
0
ENDSEC
0
SECTION
2
TABLES
0
TABLE
2
VPORT
5
8
100
AcDbSymbolTable
0
ENDTAB
0
TABLE
2
LTYPE
5
5
100
AcDbSymbolTable
0
LTYPE
5
14
100
AcDbSymbolTableRecord
100
AcDbLinetypeTableRecord
2
BYBLOCK
70
0
0
LTYPE
5
15
100
AcDbSymbolTableRecord
100
AcDbLinetypeTableRecord
2
BYLAYER
70
0
0
ENDTAB
0
TABLE
2
LAYER
5
2
100
AcDbSymbolTable
70
2
0
LAYER
5
50
100
AcDbSymbolTableRecord
100
AcDbLayerTableRecord
2
0
70
0
6
CONTINUOUS
0
ENDTAB
0
TABLE
2
STYLE
5
3
100
AcDbSymbolTable
70
1
0
STYLE
5
11
100
AcDbSymbolTableRecord
100
AcDbTextStyleTableRecord
2
STANDARD
70
0
0
ENDTAB
0
TABLE
2
VIEW
5
6
100
AcDbSymbolTable
70
0
0
ENDTAB
0
TABLE
2
UCS
5
7
100
AcDbSymbolTable
70
0
0
ENDTAB
0
TABLE
2
APPID
5
9
100
AcDbSymbolTable
70
2
0
APPID
5
12
100
AcDbSymbolTableRecord
100
AcDbRegAppTableRecord
2
ACAD
70
0
0
ENDTAB
0
TABLE
2
DIMSTYLE
5
A
100
AcDbSymbolTable
70
1
0
ENDTAB
0
TABLE
2
BLOCK_RECORD
5
1
100
AcDbSymbolTable
70
1
0
BLOCK_RECORD
5
1F
100
AcDbSymbolTableRecord
100
AcDbBlockTableRecord
2
*MODEL_SPACE
0
BLOCK_RECORD
5
1B
100
AcDbSymbolTableRecord
100
AcDbBlockTableRecord
2
*PAPER_SPACE
0
ENDTAB
0
ENDSEC
0
SECTION
2
BLOCKS
0
BLOCK
5
20
100
AcDbEntity
100
AcDbBlockBegin
2
*MODEL_SPACE
0
ENDBLK
5
21
100
AcDbEntity
100
AcDbBlockEnd
0
BLOCK
5
1C
100
AcDbEntity
100
AcDbBlockBegin
2
*PAPER_SPACE
0
ENDBLK
5
1D
100
AcDbEntity
100
AcDbBlockEnd
0
ENDSEC
0
SECTION
2
ENTITIES
0
LWPOLYLINE
5
100
100
AcDbEntity
8
0
100
AcDbPolyline
90
8
70
1
43
0.0
10
-222.74999905210834
20
-154.30527804689498
10
222.74999901064135
20
-154.30527810676668
10
222.74999997932395
20
-153.65361205692571
10
222.75000002320616
20
172.64638794307618
10
221.25000002340778
20
174.14638794327857
10
-221.24999997659222
20
174.14638800274719
10
-222.74999997679384
20
172.64638800294793
10
-222.75000002061503
20
-153.65361199705401
0
CIRCLE
5
101
100
AcDbEntity
8
0
100
AcDbCircle
10
-179.99999997719704
20
169.64638799720049
30
-3.5527136788005009e-14
40
1.549999999999977
210
0
220
-0
230
1
0
CIRCLE
5
102
100
AcDbEntity
8
0
100
AcDbCircle
10
-59.999999977196161
20
169.64638798107475
30
0
40
1.550000000003557
210
6.8031249935867703e-30
220
2.7105054312137617e-20
230
1
0
CIRCLE
5
103
100
AcDbEntity
8
0
100
AcDbCircle
10
60.00000002280359
20
169.6463879649485
30
0
40
1.5500000000068159
210
6.3108872417680944e-30
220
-8.4610972728169605e-40
230
1
0
CIRCLE
5
104
100
AcDbEntity
8
0
100
AcDbCircle
10
180.00000002280399
20
169.64638794881679
30
0
40
1.5500000000090364
210
-2.5091311860643437e-30
220
2.7105054312137611e-20
230
1
0
CIRCLE
5
105
100
AcDbEntity
8
0
100
AcDbCircle
10
-67.749999993380015
20
49.146387982124971
30
0
40
1.6000000000000003
210
-0
220
0
230
1
0
CIRCLE
5
106
100
AcDbEntity
8
0
100
AcDbCircle
10
-47.749999993380015
20
49.146387979437122
30
0
40
1.6000000000000014
210
3.6427098570236567e-30
220
2.7105054312137617e-20
230
1
0
CIRCLE
5
107
100
AcDbEntity
8
0
100
AcDbCircle
10
-67.749999996067871
20
29.146387982124974
30
0
40
1.6000000000000003
210
-0
220
0
230
1
0
CIRCLE
5
108
100
AcDbEntity
8
0
100
AcDbCircle
10
-47.749999996067871
20
29.146387979437129
30
-3.5527136788005009e-14
40
1.6000000000000014
210
3.6427098570236567e-30
220
2.7105054312137617e-20
230
1
0
CIRCLE
5
109
100
AcDbEntity
8
0
100
AcDbCircle
10
7.2500000066199712
20
49.146387972038639
30
3.5527136788005009e-14
40
1.6000000000000003
210
-0
220
0
230
1
0
CIRCLE
5
110
100
AcDbEntity
8
0
100
AcDbCircle
10
27.25000000661997
20
49.146387969350791
30
0
40
1.6000000000000014
210
3.6427098570236567e-30
220
2.7105054312137617e-20
230
1
0
CIRCLE
5
111
100
AcDbEntity
8
0
100
AcDbCircle
10
27.250000003932126
20
29.146387969350801
30
-3.5527136788005009e-14
40
1.6000000000000014
210
3.6427098570236567e-30
220
2.7105054312137617e-20
230
1
0
CIRCLE
5
112
100
AcDbEntity
8
0
100
AcDbCircle
10
7.2500000039321257
20
29.146387972038646
30
0
40
1.6000000000000003
210
-0
220
0
230
1
0
CIRCLE
5
113
100
AcDbEntity
8
0
100
AcDbCircle
10
82.250000006619956
20
49.146387961952314
30
0
40
1.6000000000000003
210
-0
220
0
230
1
0
CIRCLE
5
114
100
AcDbEntity
8
0
100
AcDbCircle
10
102.25000000661996
20
49.146387959264473
30
0
40
1.6000000000000014
210
3.6427098570236567e-30
220
2.7105054312137617e-20
230
1
0
CIRCLE
5
115
100
AcDbEntity
8
0
100
AcDbCircle
10
102.25000000393212
20
29.146387959264484
30
0
40
1.6000000000000014
210
3.6427098570236567e-30
220
2.7105054312137617e-20
230
1
0
CIRCLE
5
116
100
AcDbEntity
8
0
100
AcDbCircle
10
82.250000003932115
20
29.146387961952328
30
-3.5527136788005009e-14
40
1.6000000000000003
210
-0
220
0
230
1
0
CIRCLE
5
117
100
AcDbEntity
8
0
100
AcDbCircle
10
157.25000000661996
20
49.146387951866004
30
0
40
1.6000000000000003
210
-0
220
0
230
1
0
CIRCLE
5
118
100
AcDbEntity
8
0
100
AcDbCircle
10
177.25000000661996
20
49.146387949178148
30
3.5527136788005009e-14
40
1.6000000000000014
210
3.6427098570236567e-30
220
2.7105054312137617e-20
230
1
0
CIRCLE
5
119
100
AcDbEntity
8
0
100
AcDbCircle
10
177.25000000393212
20
29.146387949178155
30
0
40
1.6000000000000014
210
3.6427098570236567e-30
220
2.7105054312137617e-20
230
1
0
CIRCLE
5
120
100
AcDbEntity
8
0
100
AcDbCircle
10
157.25000000393212
20
29.146387951866007
30
-3.5527136788005009e-14
40
1.6000000000000003
210
-0
220
0
230
1
0
CIRCLE
5
121
100
AcDbEntity
8
0
100
AcDbCircle
10
0.34999999276406246
20
-54.028612027029119
30
0
40
1.981199999999995
210
4.8727121525730987e-31
220
2.7105054312137617e-20
230
1
0
CIRCLE
5
122
100
AcDbEntity
8
0
100
AcDbCircle
10
0.34999997996317933
20
-149.27861202702917
30
0
40
1.9812000000000005
210
-3.1554436208840472e-30
220
4.2406781997314632e-40
230
1
0
CIRCLE
5
123
100
AcDbEntity
8
0
100
AcDbCircle
10
-114.65000002003683
20
-149.27861201156338
30
0
40
1.9811999999999945
210
-3.6427148361413574e-30
220
-2.7105054312137617e-20
230
1
0
CIRCLE
5
124
100
AcDbEntity
8
0
100
AcDbCircle
10
-114.65000000723595
20
-54.028612011563368
30
0
40
1.9812000000000003
210
-3.1554436208840472e-30
220
4.2406781997314632e-40
230
1
0
ENDSEC
0
SECTION
2
OBJECTS
0
DICTIONARY
5
C
100
AcDbDictionary
3
ACAD_GROUP
350
D
3
ACAD_MLINESTYLE
350
17
0
DICTIONARY
5
D
100
AcDbDictionary
0
DICTIONARY
5
1A
330
C
100
AcDbDictionary
0
DICTIONARY
5
17
100
AcDbDictionary
0
ENDSEC
0
EOF
