0
SECTION
2
HEADER
9
$INSUNITS
70
4
9
$ACADVER
1
AC1014
9
$HANDSEED
5
FFFF
0
ENDSEC
0
SECTION
2
TABLES
0
TABLE
2
VPORT
5
8
100
AcDbSymbolTable
0
ENDTAB
0
TABLE
2
LTYPE
5
5
100
AcDbSymbolTable
0
LTYPE
5
14
100
AcDbSymbolTableRecord
100
AcDbLinetypeTableRecord
2
BYBLOCK
70
0
0
LTYPE
5
15
100
AcDbSymbolTableRecord
100
AcDbLinetypeTableRecord
2
BYLAYER
70
0
0
ENDTAB
0
TABLE
2
LAYER
5
2
100
AcDbSymbolTable
70
2
0
LAYER
5
50
100
AcDbSymbolTableRecord
100
AcDbLayerTableRecord
2
0
70
0
6
CONTINUOUS
0
ENDTAB
0
TABLE
2
STYLE
5
3
100
AcDbSymbolTable
70
1
0
STYLE
5
11
100
AcDbSymbolTableRecord
100
AcDbTextStyleTableRecord
2
STANDARD
70
0
0
ENDTAB
0
TABLE
2
VIEW
5
6
100
AcDbSymbolTable
70
0
0
ENDTAB
0
TABLE
2
UCS
5
7
100
AcDbSymbolTable
70
0
0
ENDTAB
0
TABLE
2
APPID
5
9
100
AcDbSymbolTable
70
2
0
APPID
5
12
100
AcDbSymbolTableRecord
100
AcDbRegAppTableRecord
2
ACAD
70
0
0
ENDTAB
0
TABLE
2
DIMSTYLE
5
A
100
AcDbSymbolTable
70
1
0
ENDTAB
0
TABLE
2
BLOCK_RECORD
5
1
100
AcDbSymbolTable
70
1
0
BLOCK_RECORD
5
1F
100
AcDbSymbolTableRecord
100
AcDbBlockTableRecord
2
*MODEL_SPACE
0
BLOCK_RECORD
5
1B
100
AcDbSymbolTableRecord
100
AcDbBlockTableRecord
2
*PAPER_SPACE
0
ENDTAB
0
ENDSEC
0
SECTION
2
BLOCKS
0
BLOCK
5
20
100
AcDbEntity
100
AcDbBlockBegin
2
*MODEL_SPACE
0
ENDBLK
5
21
100
AcDbEntity
100
AcDbBlockEnd
0
BLOCK
5
1C
100
AcDbEntity
100
AcDbBlockBegin
2
*PAPER_SPACE
0
ENDBLK
5
1D
100
AcDbEntity
100
AcDbBlockEnd
0
ENDSEC
0
SECTION
2
ENTITIES
0
CIRCLE
5
100
100
AcDbEntity
8
0
100
AcDbCircle
10
102.30946821233991
20
-132.98536526641811
30
0
40
1.5000000000000047
210
0
220
3.944304526105059e-31
230
1
0
LWPOLYLINE
5
101
100
AcDbEntity
8
0
100
AcDbPolyline
90
4
70
1
43
0.0
10
179.70000021233994
20
-150.36483826641808
10
179.70000021233994
20
-176.86483826641813
10
76.900000212339918
20
-176.86483826641813
10
76.900000212339933
20
-150.36483826641808
0
CIRCLE
5
102
100
AcDbEntity
8
0
100
AcDbCircle
10
154.30946821233991
20
-132.98536526641811
30
0
40
1.5000000000000047
210
0
220
3.944304526105059e-31
230
1
0
LWPOLYLINE
5
103
100
AcDbEntity
8
0
100
AcDbPolyline
90
8
70
1
43
0.0
10
114.19500021233989
20
-124.81483826641809
10
142.40500021233987
20
-124.81483826641799
42
-0.41421356237307905
10
143.70500021234
20
-126.11483826641813
10
143.70500021233991
20
-136.06483826641809
42
-0.41421356237311102
10
142.40500021233993
20
-137.36483826641808
10
114.19500021233993
20
-137.36483826641808
42
-0.41421356237309503
10
112.89500021233991
20
-136.06483826641806
10
112.89500021233991
20
-126.11483826641809
42
-0.41421356237311102
0
CIRCLE
5
104
100
AcDbEntity
8
0
100
AcDbCircle
10
169.8050252123399
20
-133.31483826641812
30
0
40
1.6499999999999926
210
0
220
0
230
1
0
LWPOLYLINE
5
105
100
AcDbEntity
8
0
100
AcDbPolyline
90
2
70
1
43
0.0
10
-22.210000707804504
20
-150.29940589969107
10
-22.210000707804504
20
-153.33026386403066
42
-3.9361791744667172
0
CIRCLE
5
106
100
AcDbEntity
8
0
100
AcDbCircle
10
-98.250000707806024
20
-116.81483488186083
30
0
40
1.8500000000000061
210
0
220
0
230
1
0
CIRCLE
5
107
100
AcDbEntity
8
0
100
AcDbCircle
10
-148.25000070780601
20
-116.81483488186083
30
0
40
1.8500000000000061
210
0
220
0
230
1
0
LWPOLYLINE
5
108
100
AcDbEntity
8
0
100
AcDbPolyline
90
2
70
1
43
0.0
10
-22.210000707804511
20
-130.29940589969107
42
3.9361791744667096
10
-22.210000707804511
20
-133.33026386403066
0
CIRCLE
5
109
100
AcDbEntity
8
0
100
AcDbCircle
10
-98.250000707806024
20
-166.81483488186086
30
0
40
1.8500000000000061
210
0
220
0
230
1
0
LWPOLYLINE
5
110
100
AcDbEntity
8
0
100
AcDbPolyline
90
8
70
1
43
0.0
10
-94.750000707806024
20
-132.44733788426322
10
-94.750000707806024
20
-151.1823318794585
42
-0.23828089158134691
10
-113.88250371020838
20
-170.31483488186086
10
-132.61749770540362
20
-170.31483488186083
42
-0.2382808915813476
10
-151.75000070780601
20
-151.18233187945847
10
-151.75000070780607
20
-132.44733788426322
42
-0.23828089158134738
10
-132.61749770540365
20
-113.31483488186083
10
-113.88250371020843
20
-113.31483488186083
42
-0.23828089158134702
0
CIRCLE
5
111
100
AcDbEntity
8
0
100
AcDbCircle
10
-148.25000070780601
20
-166.8148348818608
30
0
40
1.8500000000000061
210
0
220
0
230
1
0
CIRCLE
5
112
100
AcDbEntity
8
0
100
AcDbCircle
10
24.999999292195501
20
-141.81483488186086
30
0
40
3.9999999999999973
210
0
220
0
230
1
0
LWPOLYLINE
5
113
100
AcDbEntity
8
0
100
AcDbPolyline
90
4
70
1
43
0.0
10
241.29999929219701
20
-185.86483488186076
10
241.29999929219701
20
-97.764834881860708
10
-241.30000070780602
20
-97.764834881860679
10
-241.30000070780599
20
-185.86483488186076
0
LWPOLYLINE
5
114
100
AcDbEntity
8
0
100
AcDbPolyline
90
4
70
1
43
0.0
10
228.89757481645901
20
-99.964836542224674
10
236.10243428767703
20
-99.964836542224702
42
-0.42601873717097821
10
236.10243428767703
20
-107.4648365422247
10
228.89757481645901
20
-107.46483654222472
42
-0.42601873717088506
0
LWPOLYLINE
5
115
100
AcDbEntity
8
0
100
AcDbPolyline
90
4
70
1
43
0.0
10
-236.10242518353701
20
-99.964836542224674
10
-228.89756571232704
20
-99.964836542224674
42
-0.42601873717088506
10
-228.89756571232704
20
-107.4648365422247
10
-236.10242518353701
20
-107.4648365422247
42
-0.42601873717163596
0
LWPOLYLINE
5
116
100
AcDbEntity
8
0
100
AcDbPolyline
90
4
70
1
43
0.0
10
228.89757481645901
20
-176.16483654222463
10
236.10243428767703
20
-176.16483654222458
42
-0.42601873717094596
10
236.10243428767703
20
-183.66483654222515
10
228.89757481645901
20
-183.66483654222506
42
-0.42601873717095506
0
LWPOLYLINE
5
117
100
AcDbEntity
8
0
100
AcDbPolyline
90
4
70
1
43
0.0
10
-236.10242518353701
20
-176.16483654222463
10
-228.89756571232704
20
-176.16483654222458
42
-0.42601873717084987
10
-228.89756571232704
20
-183.66483654222515
10
-236.10242518353704
20
-183.66483654222506
42
-0.42601873717170885
0
CIRCLE
5
118
100
AcDbEntity
8
0
100
AcDbCircle
10
208.75000000000148
20
-115.31483488186019
30
0
40
2.2500000000005129
210
2.7122910276151601e-43
220
-3.944304526105059e-31
230
1
0
CIRCLE
5
119
100
AcDbEntity
8
0
100
AcDbCircle
10
208.75000000000148
20
-168.31483488185989
30
0
40
2.2500000000005129
210
-6.8040825434463573e-44
220
-3.944304526105059e-31
230
1
0
CIRCLE
5
120
100
AcDbEntity
8
0
100
AcDbCircle
10
-208.74999999999801
20
-115.31483488185863
30
0
40
2.2500000000020046
210
3.643376007241284e-43
220
-3.9443045261050599e-31
230
1
0
CIRCLE
5
121
100
AcDbEntity
8
0
100
AcDbCircle
10
-208.74999999999801
20
-168.31483488185836
30
0
40
2.2500000000020046
210
1.1004863939827493e-42
220
-3.9443045261050599e-31
230
1
0
ENDSEC
0
SECTION
2
OBJECTS
0
DICTIONARY
5
C
100
AcDbDictionary
3
ACAD_GROUP
350
D
3
ACAD_MLINESTYLE
350
17
0
DICTIONARY
5
D
100
AcDbDictionary
0
DICTIONARY
5
1A
330
C
100
AcDbDictionary
0
DICTIONARY
5
17
100
AcDbDictionary
0
ENDSEC
0
EOF
