0
SECTION
2
HEADER
9
$INSUNITS
70
4
9
$ACADVER
1
AC1014
9
$HANDSEED
5
FFFF
0
ENDSEC
0
SECTION
2
TABLES
0
TABLE
2
VPORT
5
8
100
AcDbSymbolTable
0
ENDTAB
0
TABLE
2
LTYPE
5
5
100
AcDbSymbolTable
0
LTYPE
5
14
100
AcDbSymbolTableRecord
100
AcDbLinetypeTableRecord
2
BYBLOCK
70
0
0
LTYPE
5
15
100
AcDbSymbolTableRecord
100
AcDbLinetypeTableRecord
2
BYLAYER
70
0
0
ENDTAB
0
TABLE
2
LAYER
5
2
100
AcDbSymbolTable
70
2
0
LAYER
5
50
100
AcDbSymbolTableRecord
100
AcDbLayerTableRecord
2
0
70
0
6
CONTINUOUS
0
ENDTAB
0
TABLE
2
STYLE
5
3
100
AcDbSymbolTable
70
1
0
STYLE
5
11
100
AcDbSymbolTableRecord
100
AcDbTextStyleTableRecord
2
STANDARD
70
0
0
ENDTAB
0
TABLE
2
VIEW
5
6
100
AcDbSymbolTable
70
0
0
ENDTAB
0
TABLE
2
UCS
5
7
100
AcDbSymbolTable
70
0
0
ENDTAB
0
TABLE
2
APPID
5
9
100
AcDbSymbolTable
70
2
0
APPID
5
12
100
AcDbSymbolTableRecord
100
AcDbRegAppTableRecord
2
ACAD
70
0
0
ENDTAB
0
TABLE
2
DIMSTYLE
5
A
100
AcDbSymbolTable
70
1
0
ENDTAB
0
TABLE
2
BLOCK_RECORD
5
1
100
AcDbSymbolTable
70
1
0
BLOCK_RECORD
5
1F
100
AcDbSymbolTableRecord
100
AcDbBlockTableRecord
2
*MODEL_SPACE
0
BLOCK_RECORD
5
1B
100
AcDbSymbolTableRecord
100
AcDbBlockTableRecord
2
*PAPER_SPACE
0
ENDTAB
0
ENDSEC
0
SECTION
2
BLOCKS
0
BLOCK
5
20
100
AcDbEntity
100
AcDbBlockBegin
2
*MODEL_SPACE
0
ENDBLK
5
21
100
AcDbEntity
100
AcDbBlockEnd
0
BLOCK
5
1C
100
AcDbEntity
100
AcDbBlockBegin
2
*PAPER_SPACE
0
ENDBLK
5
1D
100
AcDbEntity
100
AcDbBlockEnd
0
ENDSEC
0
SECTION
2
ENTITIES
0
LWPOLYLINE
5
100
100
AcDbEntity
8
0
100
AcDbPolyline
90
2
70
1
43
0.0
10
78.039999999998443
20
-130.2994058997397
42
3.9361791744667172
10
78.039999999998443
20
-133.33026386407928
0
CIRCLE
5
101
100
AcDbEntity
8
0
100
AcDbCircle
10
-148
20
-166.81483488190946
30
0
40
1.8500000000000061
210
-0
220
0
230
1
0
CIRCLE
5
102
100
AcDbEntity
8
0
100
AcDbCircle
10
-194.25
20
-150.26483488190402
30
0
40
11.800000000000004
210
-0
220
5.0487097934144767e-29
230
1
0
CIRCLE
5
103
100
AcDbEntity
8
0
100
AcDbCircle
10
-203.75
20
-106.26483488190395
30
0
40
1.6000000000000025
210
-0
220
0
230
1
0
CIRCLE
5
104
100
AcDbEntity
8
0
100
AcDbCircle
10
-203.75
20
-138.26483488190402
30
0
40
1.6000000000000025
210
-0
220
0
230
1
0
CIRCLE
5
105
100
AcDbEntity
8
0
100
AcDbCircle
10
-148
20
-116.81483488190948
30
0
40
1.8500000000000061
210
-0
220
0
230
1
0
LWPOLYLINE
5
106
100
AcDbEntity
8
0
100
AcDbPolyline
90
2
70
1
43
0.0
10
53.013932022498658
20
-135.76483488190948
42
5.5901699437494701
10
57.486067977498237
20
-135.76483488190948
0
LWPOLYLINE
5
107
100
AcDbEntity
8
0
100
AcDbPolyline
90
2
70
1
43
0.0
10
78.039999999998443
20
-150.2994058997397
10
78.039999999998443
20
-153.33026386407928
42
-3.9361791744667172
0
CIRCLE
5
108
100
AcDbEntity
8
0
100
AcDbCircle
10
-98
20
-166.81483488190949
30
0
40
1.8500000000000061
210
-0
220
0
230
1
0
CIRCLE
5
109
100
AcDbEntity
8
0
100
AcDbCircle
10
-184.75
20
-162.26483488190408
30
0
40
1.6000000000000025
210
-0
220
0
230
1
0
CIRCLE
5
110
100
AcDbEntity
8
0
100
AcDbCircle
10
-194.25
20
-118.26483488190397
30
0
40
11.800000000000004
210
-0
220
5.0487097934144767e-29
230
1
0
CIRCLE
5
111
100
AcDbEntity
8
0
100
AcDbCircle
10
-184.75
20
-130.26483488190397
30
0
40
1.6000000000000025
210
-0
220
0
230
1
0
LWPOLYLINE
5
112
100
AcDbEntity
8
0
100
AcDbPolyline
90
8
70
1
43
0.0
10
-132.36749699759761
20
-113.31483488190948
10
-113.63250300240239
20
-113.31483488190946
42
-0.23828089158134785
10
-94.500000000000014
20
-132.44733788431188
10
-94.499999999999943
20
-151.18233187950713
42
-0.23828089158134691
10
-113.63250300240239
20
-170.31483488190952
10
-132.36749699759758
20
-170.31483488190946
42
-0.23828089158134669
10
-151.5
20
-151.18233187950713
10
-151.49999999999997
20
-132.44733788431188
42
-0.2382808915813476
0
CIRCLE
5
113
100
AcDbEntity
8
0
100
AcDbCircle
10
-98
20
-116.81483488190948
30
0
40
1.8500000000000061
210
-0
220
0
230
1
0
CIRCLE
5
114
100
AcDbEntity
8
0
100
AcDbCircle
10
163
20
-141.81483488190949
30
0
40
2.1000000000000099
210
-0
220
0
230
1
0
LWPOLYLINE
5
115
100
AcDbEntity
8
0
100
AcDbPolyline
90
4
70
1
43
0.0
10
-223
20
-182.8648348819149
10
223
20
-182.8648348819149
10
223
20
-100.76483488190384
10
-223
20
-100.76483488190384
0
CIRCLE
5
116
100
AcDbEntity
8
0
100
AcDbCircle
10
217.00000579575999
20
-107.08983174428019
30
0
40
1.1250000000000078
210
-1.3552113148314597e-41
220
-5.0487097934144756e-29
230
1
0
CIRCLE
5
117
100
AcDbEntity
8
0
100
AcDbCircle
10
217.00000579575999
20
-176.53983174428072
30
0
40
1.1250000000000078
210
2.9894367238925183e-44
220
-5.0487097934144756e-29
230
1
0
CIRCLE
5
118
100
AcDbEntity
8
0
100
AcDbCircle
10
-217.00000579575999
20
-107.08983174428016
30
0
40
1.1250000000000078
210
1.4349296274686045e-41
220
-5.0487097934144756e-29
230
1
0
CIRCLE
5
119
100
AcDbEntity
8
0
100
AcDbCircle
10
-217.00000579576002
20
-176.53983174428072
30
0
40
1.1250000000000078
210
-5.9788734477858514e-43
220
-5.0487097934144756e-29
230
1
0
ENDSEC
0
SECTION
2
OBJECTS
0
DICTIONARY
5
C
100
AcDbDictionary
3
ACAD_GROUP
350
D
3
ACAD_MLINESTYLE
350
17
0
DICTIONARY
5
D
100
AcDbDictionary
0
DICTIONARY
5
1A
330
C
100
AcDbDictionary
0
DICTIONARY
5
17
100
AcDbDictionary
0
ENDSEC
0
EOF
