0
SECTION
2
HEADER
9
$INSUNITS
70
4
9
$ACADVER
1
AC1014
9
$HANDSEED
5
FFFF
0
ENDSEC
0
SECTION
2
TABLES
0
TABLE
2
VPORT
5
8
100
AcDbSymbolTable
0
ENDTAB
0
TABLE
2
LTYPE
5
5
100
AcDbSymbolTable
0
LTYPE
5
14
100
AcDbSymbolTableRecord
100
AcDbLinetypeTableRecord
2
BYBLOCK
70
0
0
LTYPE
5
15
100
AcDbSymbolTableRecord
100
AcDbLinetypeTableRecord
2
BYLAYER
70
0
0
ENDTAB
0
TABLE
2
LAYER
5
2
100
AcDbSymbolTable
70
2
0
LAYER
5
50
100
AcDbSymbolTableRecord
100
AcDbLayerTableRecord
2
0
70
0
6
CONTINUOUS
0
ENDTAB
0
TABLE
2
STYLE
5
3
100
AcDbSymbolTable
70
1
0
STYLE
5
11
100
AcDbSymbolTableRecord
100
AcDbTextStyleTableRecord
2
STANDARD
70
0
0
ENDTAB
0
TABLE
2
VIEW
5
6
100
AcDbSymbolTable
70
0
0
ENDTAB
0
TABLE
2
UCS
5
7
100
AcDbSymbolTable
70
0
0
ENDTAB
0
TABLE
2
APPID
5
9
100
AcDbSymbolTable
70
2
0
APPID
5
12
100
AcDbSymbolTableRecord
100
AcDbRegAppTableRecord
2
ACAD
70
0
0
ENDTAB
0
TABLE
2
DIMSTYLE
5
A
100
AcDbSymbolTable
70
1
0
ENDTAB
0
TABLE
2
BLOCK_RECORD
5
1
100
AcDbSymbolTable
70
1
0
BLOCK_RECORD
5
1F
100
AcDbSymbolTableRecord
100
AcDbBlockTableRecord
2
*MODEL_SPACE
0
BLOCK_RECORD
5
1B
100
AcDbSymbolTableRecord
100
AcDbBlockTableRecord
2
*PAPER_SPACE
0
ENDTAB
0
ENDSEC
0
SECTION
2
BLOCKS
0
BLOCK
5
20
100
AcDbEntity
100
AcDbBlockBegin
2
*MODEL_SPACE
0
ENDBLK
5
21
100
AcDbEntity
100
AcDbBlockEnd
0
BLOCK
5
1C
100
AcDbEntity
100
AcDbBlockBegin
2
*PAPER_SPACE
0
ENDBLK
5
1D
100
AcDbEntity
100
AcDbBlockEnd
0
ENDSEC
0
SECTION
2
ENTITIES
0
CIRCLE
5
100
100
AcDbEntity
8
0
100
AcDbCircle
10
-77.495557707804551
20
-271.87093158029853
30
0
40
1.5000000000000036
210
0
220
-0
230
1
0
LWPOLYLINE
5
101
100
AcDbEntity
8
0
100
AcDbPolyline
90
8
70
1
43
0.0
10
50.095531292195439
20
-276.25040458029832
10
21.885531292195527
20
-276.25040458029849
42
-0.41421356237312401
10
20.58553129219549
20
-274.95040458029843
10
20.585531292195341
20
-265.00040458029866
42
-0.41421356237309503
10
21.885531292195509
20
-263.70040458029848
10
50.095531292195417
20
-263.70040458029837
42
-0.41421356237308704
10
51.395531292195564
20
-265.00040458029855
10
51.395531292195415
20
-274.95040458029837
42
-0.41421356237308304
0
CIRCLE
5
102
100
AcDbEntity
8
0
100
AcDbCircle
10
144.99999858439097
20
-272.75040458029827
30
0
40
2.0000000000000107
210
0
220
2.4651903288156619e-32
230
1
0
CIRCLE
5
103
100
AcDbEntity
8
0
100
AcDbCircle
10
-7.0780450389662519e-07
20
-287.75040458029832
30
0
40
3.9999999999999956
210
0
220
0
230
1
0
CIRCLE
5
104
100
AcDbEntity
8
0
100
AcDbCircle
10
-95
20
-272.75040458029832
30
0
40
2.0000000000000107
210
0
220
2.4651903288156619e-32
230
1
0
CIRCLE
5
105
100
AcDbEntity
8
0
100
AcDbCircle
10
-145
20
-272.75040458029832
30
0
40
2.0000000000000107
210
0
220
2.4651903288156619e-32
230
1
0
CIRCLE
5
106
100
AcDbEntity
8
0
100
AcDbCircle
10
-7.0780450389662519e-07
20
-307.75040458029832
30
0
40
3.9999999999999956
210
0
220
0
230
1
0
CIRCLE
5
107
100
AcDbEntity
8
0
100
AcDbCircle
10
144.99999858439105
20
-322.75040458029821
30
0
40
2.0000000000000107
210
0
220
2.4651903288156619e-32
230
1
0
CIRCLE
5
108
100
AcDbEntity
8
0
100
AcDbCircle
10
61.999999292195469
20
-271.87093158029819
30
0
40
1.5000000000000036
210
0
220
-0
230
1
0
CIRCLE
5
109
100
AcDbEntity
8
0
100
AcDbCircle
10
-25.495557707804508
20
-271.87093158029819
30
0
40
1.4999999999999991
210
0
220
-0
230
1
0
LWPOLYLINE
5
110
100
AcDbEntity
8
0
100
AcDbPolyline
90
8
70
1
43
0.0
10
-37.400025707804531
20
-276.25040458029832
10
-65.61002570780451
20
-276.25040458029849
42
-0.41421356237311302
10
-66.910025707804536
20
-274.95040458029843
10
-66.91002570780455
20
-265.00040458029849
42
-0.41421356237307905
10
-65.610025707804525
20
-263.70040458029843
10
-37.400025707804545
20
-263.70040458029837
42
-0.41421356237310408
10
-36.100025707804406
20
-265.00040458029849
10
-36.100025707804548
20
-274.95040458029837
42
-0.41421356237308499
0
CIRCLE
5
111
100
AcDbEntity
8
0
100
AcDbCircle
10
9.9999992921954899
20
-271.87093158029853
30
0
40
1.5000000000000013
210
0
220
-0
230
1
0
CIRCLE
5
112
100
AcDbEntity
8
0
100
AcDbCircle
10
94.999998584390966
20
-272.75040458029827
30
0
40
2.0000000000000107
210
0
220
2.4651903288156619e-32
230
1
0
CIRCLE
5
113
100
AcDbEntity
8
0
100
AcDbCircle
10
-95
20
-322.75040458029832
30
0
40
2.0000000000000107
210
0
220
2.4651903288156619e-32
230
1
0
LWPOLYLINE
5
114
100
AcDbEntity
8
0
100
AcDbPolyline
90
8
70
1
43
0.0
10
-110.63250300240222
20
-326.25040458029832
10
-129.36749699759775
20
-326.25040458029832
42
-0.23828089158134527
10
-148.5
20
-307.11790157789596
10
-148.49999999999991
20
-288.3829075827008
42
-0.23828089158134574
10
-129.36749699759778
20
-269.25040458029844
10
-110.63250300240222
20
-269.25040458029844
42
-0.2382808915813468
10
-91.5
20
-288.3829075827008
10
-91.499999999999915
20
-307.11790157789602
42
-0.23828089158134574
0
CIRCLE
5
115
100
AcDbEntity
8
0
100
AcDbCircle
10
-145
20
-322.75040458029832
30
0
40
2.0000000000000107
210
0
220
2.4651903288156619e-32
230
1
0
LWPOLYLINE
5
116
100
AcDbEntity
8
0
100
AcDbPolyline
90
8
70
1
43
0.0
10
91.499998584391008
20
-307.11790157789591
10
91.499998584390994
20
-288.38290758270068
42
-0.23828089158134502
10
110.63250158679321
20
-269.25040458029832
10
129.36749558198869
20
-269.25040458029838
42
-0.23828089158134586
10
148.49999858439099
20
-288.38290758270062
10
148.49999858439097
20
-307.11790157789585
42
-0.23828089158134644
10
129.36749558198883
20
-326.25040458029815
10
110.63250158679324
20
-326.25040458029838
42
-0.23828089158134597
0
CIRCLE
5
117
100
AcDbEntity
8
0
100
AcDbCircle
10
94.999998584391037
20
-322.75040458029827
30
0
40
2.0000000000000107
210
0
220
2.4651903288156619e-32
230
1
0
CIRCLE
5
118
100
AcDbEntity
8
0
100
AcDbCircle
10
77.495556292195459
20
-272.20040458029808
30
0
40
1.6500000000000004
210
-4.1581639062579597e-112
220
-2.4651903288156619e-32
230
1
0
CIRCLE
5
119
100
AcDbEntity
8
0
100
AcDbCircle
10
-10.000000707804508
20
-272.20040458029808
30
0
40
1.6500000000000004
210
-4.1581639062579597e-112
220
-2.4651903288156619e-32
230
1
0
LWPOLYLINE
5
120
100
AcDbEntity
8
0
100
AcDbPolyline
90
4
70
1
43
0.0
10
241.29999929219701
20
-341.80040458029839
10
241.29999929219701
20
-253.70040458029837
10
-241.30000070780602
20
-253.70040458029837
10
-241.30000070780599
20
-341.80040458029839
0
LWPOLYLINE
5
121
100
AcDbEntity
8
0
100
AcDbPolyline
90
4
70
1
43
0.0
10
228.89757481645901
20
-255.90040624066236
10
236.10243428767703
20
-255.90040624066236
42
-0.42601873717097749
10
236.10243428767703
20
-263.40040624066239
10
228.89757481645901
20
-263.40040624066239
42
-0.42601873717088434
0
LWPOLYLINE
5
122
100
AcDbEntity
8
0
100
AcDbPolyline
90
4
70
1
43
0.0
10
-236.10242518353701
20
-255.90040624066236
10
-228.89756571232704
20
-255.90040624066236
42
-0.42601873717088434
10
-228.89756571232704
20
-263.40040624066239
10
-236.10242518353701
20
-263.40040624066239
42
-0.4260187371716353
0
LWPOLYLINE
5
123
100
AcDbEntity
8
0
100
AcDbPolyline
90
4
70
1
43
0.0
10
228.89757481645901
20
-332.10040624066232
10
236.102434287677
20
-332.10040624066215
42
-0.42601873717093863
10
236.10243428767703
20
-339.60040624066278
10
228.89757481645898
20
-339.60040624066266
42
-0.42601873717096239
0
LWPOLYLINE
5
124
100
AcDbEntity
8
0
100
AcDbPolyline
90
4
70
1
43
0.0
10
-236.10242518353701
20
-332.10040624066232
10
-228.89756571232704
20
-332.10040624066215
42
-0.42601873717085575
10
-228.89756571232707
20
-339.60040624066272
10
-236.10242518353698
20
-339.60040624066261
42
-0.42601873717170163
0
CIRCLE
5
125
100
AcDbEntity
8
0
100
AcDbCircle
10
-208.74999999999852
20
-324.2504045802965
30
0
40
4.3500000000015149
210
-3.1428547454248729e-45
220
-4.9303806576313238e-32
230
1
0
CIRCLE
5
126
100
AcDbEntity
8
0
100
AcDbCircle
10
208.75000000000153
20
-324.25040458029753
30
0
40
4.3500000000005192
210
7.0467595188739597e-45
220
-4.9303806576313249e-32
230
1
0
CIRCLE
5
127
100
AcDbEntity
8
0
100
AcDbCircle
10
-208.74999999999852
20
-271.25040458029645
30
0
40
4.3500000000015149
210
-1.7314894818581326e-46
220
-4.9303806576313238e-32
230
1
0
CIRCLE
5
128
100
AcDbEntity
8
0
100
AcDbCircle
10
208.75000000000153
20
-271.25040458029753
30
0
40
4.3500000000005192
210
1.0066799312677086e-44
220
-4.9303806576313249e-32
230
1
0
CIRCLE
5
129
100
AcDbEntity
8
0
100
AcDbCircle
10
-7.0780450389662519e-07
20
-287.75040458029832
30
0
40
5
210
0
220
0
230
1
0
CIRCLE
5
130
100
AcDbEntity
8
0
100
AcDbCircle
10
-7.0780450389662519e-07
20
-307.75040458029832
30
0
40
5
210
0
220
0
230
1
0
CIRCLE
5
131
100
AcDbEntity
8
0
100
AcDbCircle
10
9.9999992921954899
20
-271.87093158029853
30
0
40
3.0000000000000004
210
0
220
0
230
1
0
CIRCLE
5
132
100
AcDbEntity
8
0
100
AcDbCircle
10
61.999999292195469
20
-271.87093158029819
30
0
40
2.9999999999999982
210
0
220
0
230
1
0
CIRCLE
5
133
100
AcDbEntity
8
0
100
AcDbCircle
10
-25.495557707804508
20
-271.87093158029819
30
0
40
2.9999999999999982
210
0
220
0
230
1
0
CIRCLE
5
134
100
AcDbEntity
8
0
100
AcDbCircle
10
-77.495557707804551
20
-271.87093158029853
30
0
40
2.9999999999999982
210
0
220
0
230
1
0
ENDSEC
0
SECTION
2
OBJECTS
0
DICTIONARY
5
C
100
AcDbDictionary
3
ACAD_GROUP
350
D
3
ACAD_MLINESTYLE
350
17
0
DICTIONARY
5
D
100
AcDbDictionary
0
DICTIONARY
5
1A
330
C
100
AcDbDictionary
0
DICTIONARY
5
17
100
AcDbDictionary
0
ENDSEC
0
EOF
