0
SECTION
2
HEADER
9
$INSUNITS
70
4
9
$ACADVER
1
AC1014
9
$HANDSEED
5
FFFF
0
ENDSEC
0
SECTION
2
TABLES
0
TABLE
2
VPORT
5
8
100
AcDbSymbolTable
0
ENDTAB
0
TABLE
2
LTYPE
5
5
100
AcDbSymbolTable
0
LTYPE
5
14
100
AcDbSymbolTableRecord
100
AcDbLinetypeTableRecord
2
BYBLOCK
70
0
0
LTYPE
5
15
100
AcDbSymbolTableRecord
100
AcDbLinetypeTableRecord
2
BYLAYER
70
0
0
ENDTAB
0
TABLE
2
LAYER
5
2
100
AcDbSymbolTable
70
2
0
LAYER
5
50
100
AcDbSymbolTableRecord
100
AcDbLayerTableRecord
2
0
70
0
6
CONTINUOUS
0
ENDTAB
0
TABLE
2
STYLE
5
3
100
AcDbSymbolTable
70
1
0
STYLE
5
11
100
AcDbSymbolTableRecord
100
AcDbTextStyleTableRecord
2
STANDARD
70
0
0
ENDTAB
0
TABLE
2
VIEW
5
6
100
AcDbSymbolTable
70
0
0
ENDTAB
0
TABLE
2
UCS
5
7
100
AcDbSymbolTable
70
0
0
ENDTAB
0
TABLE
2
APPID
5
9
100
AcDbSymbolTable
70
2
0
APPID
5
12
100
AcDbSymbolTableRecord
100
AcDbRegAppTableRecord
2
ACAD
70
0
0
ENDTAB
0
TABLE
2
DIMSTYLE
5
A
100
AcDbSymbolTable
70
1
0
ENDTAB
0
TABLE
2
BLOCK_RECORD
5
1
100
AcDbSymbolTable
70
1
0
BLOCK_RECORD
5
1F
100
AcDbSymbolTableRecord
100
AcDbBlockTableRecord
2
*MODEL_SPACE
0
BLOCK_RECORD
5
1B
100
AcDbSymbolTableRecord
100
AcDbBlockTableRecord
2
*PAPER_SPACE
0
ENDTAB
0
ENDSEC
0
SECTION
2
BLOCKS
0
BLOCK
5
20
100
AcDbEntity
100
AcDbBlockBegin
2
*MODEL_SPACE
0
ENDBLK
5
21
100
AcDbEntity
100
AcDbBlockEnd
0
BLOCK
5
1C
100
AcDbEntity
100
AcDbBlockBegin
2
*PAPER_SPACE
0
ENDBLK
5
1D
100
AcDbEntity
100
AcDbBlockEnd
0
ENDSEC
0
SECTION
2
ENTITIES
0
CIRCLE
5
100
100
AcDbEntity
8
0
100
AcDbCircle
10
-30
20
-307.75040458029218
30
0
40
3.2500000000000018
210
0
220
-0
230
1
0
CIRCLE
5
101
100
AcDbEntity
8
0
100
AcDbCircle
10
-115
20
-322.75040458029224
30
0
40
1.9999999999999929
210
0
220
-0
230
1
0
CIRCLE
5
102
100
AcDbEntity
8
0
100
AcDbCircle
10
65
20
-272.75040458029224
30
0
40
2.0000000000000018
210
0
220
-0
230
1
0
LWPOLYLINE
5
103
100
AcDbEntity
8
0
100
AcDbPolyline
90
8
70
1
43
0.0
10
99.367496997597797
20
-326.25040458029218
10
80.632503002402203
20
-326.25040458029218
42
-0.23828089158134502
10
61.5
20
-307.11790157788988
10
61.50000000000005
20
-288.38290758269466
42
-0.23828089158134527
10
80.632503002402188
20
-269.2504045802923
10
99.367496997597755
20
-269.2504045802923
42
-0.23828089158134622
10
118.5
20
-288.3829075826946
10
118.50000000000006
20
-307.11790157788988
42
-0.23828089158134561
0
CIRCLE
5
104
100
AcDbEntity
8
0
100
AcDbCircle
10
-205.75
20
-285.75040458029218
30
0
40
1.6000000000000014
210
0
220
-0
230
1
0
CIRCLE
5
105
100
AcDbEntity
8
0
100
AcDbCircle
10
-150.75000000000017
20
-309.75040458029235
30
0
40
1.6000000000000014
210
0
220
-0
230
1
0
CIRCLE
5
106
100
AcDbEntity
8
0
100
AcDbCircle
10
-169.75000000000011
20
-285.75040458029224
30
0
40
1.6000000000000014
210
0
220
-0
230
1
0
CIRCLE
5
107
100
AcDbEntity
8
0
100
AcDbCircle
10
160.25000000000017
20
-297.7504045802923
30
0
40
11.799999999999997
210
0
220
-0
230
1
0
CIRCLE
5
108
100
AcDbEntity
8
0
100
AcDbCircle
10
115
20
-272.75040458029224
30
0
40
2.0000000000000107
210
0
220
-0
230
1
0
LWPOLYLINE
5
109
100
AcDbEntity
8
0
100
AcDbPolyline
90
8
70
1
43
0.0
10
-118.5
20
-307.11790157788988
10
-118.5
20
-288.3829075826946
42
-0.23828089158134622
10
-99.367496997597783
20
-269.2504045802923
10
-80.632503002402188
20
-269.25040458029224
42
-0.23828089158134549
10
-61.5
20
-288.3829075826946
10
-61.499999999999986
20
-307.11790157788988
42
-0.23828089158134502
10
-80.632503002402188
20
-326.25040458029218
10
-99.367496997597783
20
-326.25040458029218
42
-0.23828089158134549
0
CIRCLE
5
110
100
AcDbEntity
8
0
100
AcDbCircle
10
-115
20
-272.75040458029224
30
0
40
2.0000000000000107
210
0
220
-0
230
1
0
CIRCLE
5
111
100
AcDbEntity
8
0
100
AcDbCircle
10
30
20
-287.75040458029218
30
0
40
3.2500000000000018
210
0
220
-0
230
1
0
CIRCLE
5
112
100
AcDbEntity
8
0
100
AcDbCircle
10
-30
20
-287.75040458029218
30
0
40
3.2500000000000018
210
0
220
-0
230
1
0
CIRCLE
5
113
100
AcDbEntity
8
0
100
AcDbCircle
10
-65
20
-322.75040458029224
30
0
40
2.0000000000000018
210
0
220
-0
230
1
0
CIRCLE
5
114
100
AcDbEntity
8
0
100
AcDbCircle
10
65
20
-322.75040458029224
30
0
40
2.0000000000000018
210
0
220
-0
230
1
0
CIRCLE
5
115
100
AcDbEntity
8
0
100
AcDbCircle
10
169.75000000000017
20
-309.7504045802923
30
0
40
1.6000000000000014
210
0
220
-0
230
1
0
CIRCLE
5
116
100
AcDbEntity
8
0
100
AcDbCircle
10
-186.75
20
-309.7504045802923
30
0
40
1.6000000000000014
210
0
220
-0
230
1
0
CIRCLE
5
117
100
AcDbEntity
8
0
100
AcDbCircle
10
-160.25000000000017
20
-297.7504045802923
30
0
40
11.799999999999997
210
0
220
-0
230
1
0
CIRCLE
5
118
100
AcDbEntity
8
0
100
AcDbCircle
10
-196.25
20
-297.75040458029224
30
0
40
11.799999999999997
210
0
220
-0
230
1
0
CIRCLE
5
119
100
AcDbEntity
8
0
100
AcDbCircle
10
150.75000000000006
20
-285.75040458029235
30
0
40
1.6000000000000014
210
0
220
-0
230
1
0
CIRCLE
5
120
100
AcDbEntity
8
0
100
AcDbCircle
10
115
20
-322.75040458029224
30
0
40
1.9999999999999929
210
0
220
-0
230
1
0
CIRCLE
5
121
100
AcDbEntity
8
0
100
AcDbCircle
10
-65
20
-272.75040458029224
30
0
40
2.0000000000000018
210
0
220
-0
230
1
0
LWPOLYLINE
5
122
100
AcDbEntity
8
0
100
AcDbPolyline
90
2
70
1
43
0.0
10
-2.2360679774997938
20
-266.70040458029223
10
2.2360679774997898
20
-266.70040458029223
42
-5.5901699437494701
0
CIRCLE
5
123
100
AcDbEntity
8
0
100
AcDbCircle
10
30
20
-307.75040458029218
30
0
40
3.2500000000000018
210
0
220
-0
230
1
0
LWPOLYLINE
5
124
100
AcDbEntity
8
0
100
AcDbPolyline
90
4
70
1
43
0.0
10
-223
20
-338.80040458029777
10
223
20
-338.80040458029777
10
223
20
-256.70040458028672
10
-223
20
-256.70040458028672
0
CIRCLE
5
125
100
AcDbEntity
8
0
100
AcDbCircle
10
217.00000000000125
20
-263.0254045802867
30
0
40
2.4999999999999911
210
7.9244207537596708e-29
220
3.5340968553897499e-28
230
1
0
CIRCLE
5
126
100
AcDbEntity
8
0
100
AcDbCircle
10
-216.99999999999878
20
-263.0254045802867
30
0
40
2.4999999999999911
210
2.0036809120695537e-28
220
3.5340968553891365e-28
230
1
0
CIRCLE
5
127
100
AcDbEntity
8
0
100
AcDbCircle
10
216.99999999999872
20
-332.47540458029778
30
0
40
2.4999999999999991
210
0
220
0
230
1
0
CIRCLE
5
128
100
AcDbEntity
8
0
100
AcDbCircle
10
-217.00000000000125
20
-332.47540458029778
30
0
40
2.4999999999999991
210
-2.2958874039497803e-41
220
1.1093017595597496e-53
230
1
0
CIRCLE
5
129
100
AcDbEntity
8
0
100
AcDbCircle
10
-1.5265566588595902e-15
20
-272.75040458029224
30
1.9267853884466235e-44
40
9.0000000000000018
210
0
220
0
230
1
0
CIRCLE
5
130
100
AcDbEntity
8
0
100
AcDbCircle
10
30
20
-287.75040458029218
30
0
40
4.7500000000000018
210
0
220
0
230
1
0
CIRCLE
5
131
100
AcDbEntity
8
0
100
AcDbCircle
10
30
20
-307.75040458029218
30
0
40
4.7500000000000009
210
0
220
0
230
1
0
CIRCLE
5
132
100
AcDbEntity
8
0
100
AcDbCircle
10
-30
20
-287.75040458029218
30
0
40
4.7500000000000009
210
0
220
0
230
1
0
CIRCLE
5
133
100
AcDbEntity
8
0
100
AcDbCircle
10
-30
20
-307.75040458029218
30
0
40
4.7500000000000009
210
0
220
0
230
1
0
CIRCLE
5
134
100
AcDbEntity
8
0
100
AcDbCircle
10
169.75000000000017
20
-309.7504045802923
30
0
40
3.0000000000000071
210
0
220
0
230
1
0
CIRCLE
5
135
100
AcDbEntity
8
0
100
AcDbCircle
10
150.75000000000006
20
-285.75040458029235
30
0
40
3.0000000000000071
210
0
220
0
230
1
0
CIRCLE
5
136
100
AcDbEntity
8
0
100
AcDbCircle
10
-205.75
20
-285.75040458029218
30
0
40
3.000000000000016
210
0
220
0
230
1
0
CIRCLE
5
137
100
AcDbEntity
8
0
100
AcDbCircle
10
-186.75
20
-309.7504045802923
30
0
40
3.0000000000000049
210
0
220
0
230
1
0
CIRCLE
5
138
100
AcDbEntity
8
0
100
AcDbCircle
10
-169.75000000000011
20
-285.75040458029224
30
0
40
2.999999999999992
210
0
220
0
230
1
0
CIRCLE
5
139
100
AcDbEntity
8
0
100
AcDbCircle
10
-150.75000000000017
20
-309.75040458029235
30
0
40
3.0000000000000044
210
0
220
0
230
1
0
CIRCLE
5
140
100
AcDbEntity
8
0
100
AcDbCircle
10
-178.25000000000011
20
-324.7504045802923
30
0
40
2.1000000000000085
210
0
220
-0
230
1
0
CIRCLE
5
141
100
AcDbEntity
8
0
100
AcDbCircle
10
-178.25000000000011
20
-324.7504045802923
30
0
40
3.5999999999999943
210
0
220
0
230
1
0
ENDSEC
0
SECTION
2
OBJECTS
0
DICTIONARY
5
C
100
AcDbDictionary
3
ACAD_GROUP
350
D
3
ACAD_MLINESTYLE
350
17
0
DICTIONARY
5
D
100
AcDbDictionary
0
DICTIONARY
5
1A
330
C
100
AcDbDictionary
0
DICTIONARY
5
17
100
AcDbDictionary
0
ENDSEC
0
EOF
