0
SECTION
2
HEADER
9
$INSUNITS
70
4
9
$ACADVER
1
AC1014
9
$HANDSEED
5
FFFF
0
ENDSEC
0
SECTION
2
TABLES
0
TABLE
2
VPORT
5
8
100
AcDbSymbolTable
0
ENDTAB
0
TABLE
2
LTYPE
5
5
100
AcDbSymbolTable
0
LTYPE
5
14
100
AcDbSymbolTableRecord
100
AcDbLinetypeTableRecord
2
BYBLOCK
70
0
0
LTYPE
5
15
100
AcDbSymbolTableRecord
100
AcDbLinetypeTableRecord
2
BYLAYER
70
0
0
ENDTAB
0
TABLE
2
LAYER
5
2
100
AcDbSymbolTable
70
2
0
LAYER
5
50
100
AcDbSymbolTableRecord
100
AcDbLayerTableRecord
2
0
70
0
6
CONTINUOUS
0
ENDTAB
0
TABLE
2
STYLE
5
3
100
AcDbSymbolTable
70
1
0
STYLE
5
11
100
AcDbSymbolTableRecord
100
AcDbTextStyleTableRecord
2
STANDARD
70
0
0
ENDTAB
0
TABLE
2
VIEW
5
6
100
AcDbSymbolTable
70
0
0
ENDTAB
0
TABLE
2
UCS
5
7
100
AcDbSymbolTable
70
0
0
ENDTAB
0
TABLE
2
APPID
5
9
100
AcDbSymbolTable
70
2
0
APPID
5
12
100
AcDbSymbolTableRecord
100
AcDbRegAppTableRecord
2
ACAD
70
0
0
ENDTAB
0
TABLE
2
DIMSTYLE
5
A
100
AcDbSymbolTable
70
1
0
ENDTAB
0
TABLE
2
BLOCK_RECORD
5
1
100
AcDbSymbolTable
70
1
0
BLOCK_RECORD
5
1F
100
AcDbSymbolTableRecord
100
AcDbBlockTableRecord
2
*MODEL_SPACE
0
BLOCK_RECORD
5
1B
100
AcDbSymbolTableRecord
100
AcDbBlockTableRecord
2
*PAPER_SPACE
0
ENDTAB
0
ENDSEC
0
SECTION
2
BLOCKS
0
BLOCK
5
20
100
AcDbEntity
100
AcDbBlockBegin
2
*MODEL_SPACE
0
ENDBLK
5
21
100
AcDbEntity
100
AcDbBlockEnd
0
BLOCK
5
1C
100
AcDbEntity
100
AcDbBlockBegin
2
*PAPER_SPACE
0
ENDBLK
5
1D
100
AcDbEntity
100
AcDbBlockEnd
0
ENDSEC
0
SECTION
2
ENTITIES
0
CIRCLE
5
100
100
AcDbEntity
8
0
100
AcDbCircle
10
161.74999999999898
20
-142.45812844403525
30
0
40
1.6000000000000025
210
0
220
0
230
1
0
LWPOLYLINE
5
101
100
AcDbEntity
8
0
100
AcDbPolyline
90
4
70
1
43
0.0
10
6.1179491890697761
20
-158.11442771624417
10
6.1179491890704689
20
-153.65032619500636
10
63.882050804209925
20
-153.65032619500795
10
63.88205080420984
20
-158.11442771624576
0
LWPOLYLINE
5
102
100
AcDbEntity
8
0
100
AcDbPolyline
90
4
70
1
43
0.0
10
-63.882050810930274
20
-158.11442771624223
10
-63.882050810929584
20
-153.6503261950044
10
-6.1179491957901266
20
-153.65032619500599
10
-6.1179491957902066
20
-158.11442771624382
0
CIRCLE
5
103
100
AcDbEntity
8
0
100
AcDbCircle
10
194.24999999999901
20
-154.45812844403517
30
0
40
4.050000000000014
210
0
220
0
230
1
0
CIRCLE
5
104
100
AcDbEntity
8
0
100
AcDbCircle
10
180.74999999999898
20
-166.45812844403531
30
0
40
1.6000000000000025
210
0
220
0
230
1
0
LWPOLYLINE
5
105
100
AcDbEntity
8
0
100
AcDbPolyline
90
4
70
1
43
0.0
10
76.117949189069705
20
-158.1144277162461
10
76.117949189070401
20
-153.65032619500826
10
133.88205080420985
20
-153.65032619500988
10
133.88205080420977
20
-158.11442771624769
0
LWPOLYLINE
5
106
100
AcDbEntity
8
0
100
AcDbPolyline
90
4
70
1
43
0.0
10
-133.88205081093025
20
-158.1144277162403
10
-133.88205081092957
20
-153.65032619500249
10
-76.117949195790104
20
-153.65032619500408
10
-76.117949195790203
20
-158.11442771624189
0
CIRCLE
5
107
100
AcDbEntity
8
0
100
AcDbCircle
10
171.24999999999901
20
-154.45812844403522
30
0
40
11.800000000000004
210
0
220
-1.97215226305253e-31
230
1
0
LWPOLYLINE
5
108
100
AcDbEntity
8
0
100
AcDbPolyline
90
4
70
1
43
0.0
10
-172.85000000000099
20
-144.4581284440352
10
-172.85000000000096
20
-145.56768413567804
42
-12.778888791683515
10
-175.650000000001
20
-145.56768413567804
10
-175.650000000001
20
-144.4581284440352
0
LWPOLYLINE
5
109
100
AcDbEntity
8
0
100
AcDbPolyline
90
4
70
1
43
0.0
10
241.29999929219701
20
-176.28312844403513
10
241.29999929219701
20
-132.63312844403515
10
-241.30000070780602
20
-132.63312844403512
10
-241.30000070780599
20
-176.28312844403513
0
LWPOLYLINE
5
110
100
AcDbEntity
8
0
100
AcDbPolyline
90
4
70
1
43
0.0
10
228.89757481645901
20
-134.83313010439912
10
236.10243428767703
20
-134.83313010439912
42
-0.42601873717097749
10
236.10243428767703
20
-142.33313010439912
10
228.89757481645901
20
-142.33313010439915
42
-0.42601873717088506
0
LWPOLYLINE
5
111
100
AcDbEntity
8
0
100
AcDbPolyline
90
4
70
1
43
0.0
10
-236.10242518353701
20
-134.83313010439912
10
-228.89756571232704
20
-134.83313010439912
42
-0.42601873717088434
10
-228.89756571232704
20
-142.33313010439912
10
-236.10242518353701
20
-142.33313010439912
42
-0.42601873717163596
0
LWPOLYLINE
5
112
100
AcDbEntity
8
0
100
AcDbPolyline
90
4
70
1
43
0.0
10
228.89757481645901
20
-166.58313010439912
10
236.10243428767703
20
-166.58313010439912
42
-0.42601873717097749
10
236.10243428767703
20
-174.08313010439912
10
228.89757481645901
20
-174.08313010439912
42
-0.42601873717088434
0
LWPOLYLINE
5
113
100
AcDbEntity
8
0
100
AcDbPolyline
90
4
70
1
43
0.0
10
-236.10242518353701
20
-166.58313010439912
10
-228.89756571232704
20
-166.58313010439912
42
-0.42601873717088434
10
-228.89756571232704
20
-174.08313010439912
10
-236.10242518353701
20
-174.08313010439912
42
-0.4260187371716353
0
CIRCLE
5
114
100
AcDbEntity
8
0
100
AcDbCircle
10
-208.74999999999852
20
-168.48312844403318
30
0
40
4.3500000000015167
210
-4.462844560786951e-31
220
3.944304526103127e-31
230
1
0
CIRCLE
5
115
100
AcDbEntity
8
0
100
AcDbCircle
10
208.75000000000099
20
-168.48312844403472
30
0
40
4.3499999999999899
210
1.9834864714610601e-31
220
-1.9721522630523857e-31
230
1
0
CIRCLE
5
116
100
AcDbEntity
8
0
100
AcDbCircle
10
-208.74999999999852
20
-140.48312844403318
30
0
40
4.3500000000015167
210
-1.9834864714616841e-31
220
3.944304526104167e-31
230
1
0
CIRCLE
5
117
100
AcDbEntity
8
0
100
AcDbCircle
10
208.75000000000102
20
-140.48312844403475
30
0
40
4.3500000000000254
210
-1.7001312612522309e-31
220
-1.5620895485190801e-44
230
1
0
ENDSEC
0
SECTION
2
OBJECTS
0
DICTIONARY
5
C
100
AcDbDictionary
3
ACAD_GROUP
350
D
3
ACAD_MLINESTYLE
350
17
0
DICTIONARY
5
D
100
AcDbDictionary
0
DICTIONARY
5
1A
330
C
100
AcDbDictionary
0
DICTIONARY
5
17
100
AcDbDictionary
0
ENDSEC
0
EOF
