0
SECTION
2
HEADER
9
$INSUNITS
70
4
9
$ACADVER
1
AC1014
9
$HANDSEED
5
FFFF
0
ENDSEC
0
SECTION
2
TABLES
0
TABLE
2
VPORT
5
8
100
AcDbSymbolTable
0
ENDTAB
0
TABLE
2
LTYPE
5
5
100
AcDbSymbolTable
0
LTYPE
5
14
100
AcDbSymbolTableRecord
100
AcDbLinetypeTableRecord
2
BYBLOCK
70
0
0
LTYPE
5
15
100
AcDbSymbolTableRecord
100
AcDbLinetypeTableRecord
2
BYLAYER
70
0
0
ENDTAB
0
TABLE
2
LAYER
5
2
100
AcDbSymbolTable
70
2
0
LAYER
5
50
100
AcDbSymbolTableRecord
100
AcDbLayerTableRecord
2
0
70
0
6
CONTINUOUS
0
ENDTAB
0
TABLE
2
STYLE
5
3
100
AcDbSymbolTable
70
1
0
STYLE
5
11
100
AcDbSymbolTableRecord
100
AcDbTextStyleTableRecord
2
STANDARD
70
0
0
ENDTAB
0
TABLE
2
VIEW
5
6
100
AcDbSymbolTable
70
0
0
ENDTAB
0
TABLE
2
UCS
5
7
100
AcDbSymbolTable
70
0
0
ENDTAB
0
TABLE
2
APPID
5
9
100
AcDbSymbolTable
70
2
0
APPID
5
12
100
AcDbSymbolTableRecord
100
AcDbRegAppTableRecord
2
ACAD
70
0
0
ENDTAB
0
TABLE
2
DIMSTYLE
5
A
100
AcDbSymbolTable
70
1
0
ENDTAB
0
TABLE
2
BLOCK_RECORD
5
1
100
AcDbSymbolTable
70
1
0
BLOCK_RECORD
5
1F
100
AcDbSymbolTableRecord
100
AcDbBlockTableRecord
2
*MODEL_SPACE
0
BLOCK_RECORD
5
1B
100
AcDbSymbolTableRecord
100
AcDbBlockTableRecord
2
*PAPER_SPACE
0
ENDTAB
0
ENDSEC
0
SECTION
2
BLOCKS
0
BLOCK
5
20
100
AcDbEntity
100
AcDbBlockBegin
2
*MODEL_SPACE
0
ENDBLK
5
21
100
AcDbEntity
100
AcDbBlockEnd
0
BLOCK
5
1C
100
AcDbEntity
100
AcDbBlockBegin
2
*PAPER_SPACE
0
ENDBLK
5
1D
100
AcDbEntity
100
AcDbBlockEnd
0
ENDSEC
0
SECTION
2
ENTITIES
0
CIRCLE
5
100
100
AcDbEntity
8
0
100
AcDbCircle
10
-70.150000016723681
20
124.14638796137478
30
2.042810365310288e-11
40
1.6000000000000023
210
-2.9387717326180718e-30
220
-1.6443343540083202e-13
230
1
0
CIRCLE
5
101
100
AcDbEntity
8
0
100
AcDbCircle
10
-102.75000001672367
20
124.1463879613643
30
2.042810365310288e-11
40
1.6000000000000023
210
-7.8173019490436814e-31
220
-1.6443343540083202e-13
230
1
0
CIRCLE
5
102
100
AcDbEntity
8
0
100
AcDbCircle
10
-201.50000000397213
20
-8.6036120505277136
30
-1.3855583347321954e-12
40
1.6000000000000023
210
-7.8173019490436814e-31
220
-1.6443343540083202e-13
230
1
0
CIRCLE
5
103
100
AcDbEntity
8
0
100
AcDbCircle
10
-147.90000000397217
20
-8.6036120505104723
30
-1.4210854715202004e-12
40
1.6000000000000023
210
-7.8173019490436814e-31
220
-1.6443343540083202e-13
230
1
0
CIRCLE
5
104
100
AcDbEntity
8
0
100
AcDbCircle
10
-201.50000000399675
20
67.896387949472313
30
1.1155520951433573e-11
40
1.6000000000000023
210
-7.8173019490436814e-31
220
-1.6443343540083202e-13
230
1
0
CIRCLE
5
105
100
AcDbEntity
8
0
100
AcDbCircle
10
-147.90000000399681
20
67.896387949489551
30
1.1155520951433573e-11
40
1.6000000000000023
210
-7.8173019490436814e-31
220
-1.6443343540083202e-13
230
1
0
CIRCLE
5
106
100
AcDbEntity
8
0
100
AcDbCircle
10
-143.99999997776348
20
-140.15374045448036
30
-2.3057111775415251e-11
40
1.6000000000000023
210
-7.8173019490436814e-31
220
-1.6443343540083202e-13
230
1
0
CIRCLE
5
107
100
AcDbEntity
8
0
100
AcDbCircle
10
-87.249999994766156
20
-8.0537404149527596
30
-1.2789769243681803e-12
40
1.6000000000000023
210
-7.8173019490436814e-31
220
-1.6443343540083202e-13
230
1
0
CIRCLE
5
108
100
AcDbEntity
8
0
100
AcDbCircle
10
-9.1499999947461976
20
-69.953740414927651
30
-1.1475265182525618e-11
40
1.6000000000000001
210
-3.5586681893739149e-30
220
-1.6443346250588631e-13
230
1
0
CIRCLE
5
109
100
AcDbEntity
8
0
100
AcDbCircle
10
68.950000005233861
20
-8.0537404149024656
30
-1.3145040611561853e-12
40
1.6000000000000023
210
-2.630622941516114e-30
220
-1.6443343540083202e-13
230
1
0
CIRCLE
5
110
100
AcDbEntity
8
0
100
AcDbCircle
10
147.05000000525379
20
-69.953740414877359
30
-1.1510792319313623e-11
40
1.6000000000000023
210
-7.8173019490436814e-31
220
-1.6443343540083202e-13
230
1
0
CIRCLE
5
111
100
AcDbEntity
8
0
100
AcDbCircle
10
187.65000000525379
20
-69.853740414864291
30
-1.1475265182525618e-11
40
1.6000000000000023
210
-7.8173019490436814e-31
220
-1.6443343540083202e-13
230
1
0
CIRCLE
5
112
100
AcDbEntity
8
0
100
AcDbCircle
10
68.950000005253798
20
-69.953740414902512
30
-1.1510792319313623e-11
40
1.6000000000000023
210
-2.630622941516114e-30
220
-1.6443343540083202e-13
230
1
0
CIRCLE
5
113
100
AcDbEntity
8
0
100
AcDbCircle
10
-9.1499999947661266
20
-8.0537404149276206
30
-1.3145040611561853e-12
40
1.6000000000000023
210
1.2643777780126307e-30
220
-1.6443343540083202e-13
230
1
0
CIRCLE
5
114
100
AcDbEntity
8
0
100
AcDbCircle
10
-46.649999994746246
20
-69.853740414939722
30
-1.1475265182525618e-11
40
1.6000000000000023
210
-2.630622941516114e-30
220
-1.6443343540083202e-13
230
1
0
CIRCLE
5
115
100
AcDbEntity
8
0
100
AcDbCircle
10
144.00000001967692
20
-121.15374041568261
30
-1.9895196601282805e-11
40
1.6000000000000023
210
-7.8173019490436814e-31
220
-1.6443343540083202e-13
230
1
0
CIRCLE
5
116
100
AcDbEntity
8
0
100
AcDbCircle
10
-143.99999998032308
20
-121.15374045448037
30
-1.9895196601282805e-11
40
1.6000000000000023
210
-7.8173019490436814e-31
220
-1.6443343540083202e-13
230
1
0
CIRCLE
5
117
100
AcDbEntity
8
0
100
AcDbCircle
10
-43.949999994770472
20
5.3462595850611807
30
8.8817841970012523e-13
40
1.5999999999999934
210
-2.5689931832957225e-30
220
-1.6443343540083202e-13
230
1
0
CIRCLE
5
118
100
AcDbEntity
8
0
100
AcDbCircle
10
31.450000005253756
20
-69.853740414914597
30
-1.1475265182525618e-11
40
1.6000000000000023
210
9.1925113197843821e-31
220
-1.6443343540083202e-13
230
1
0
CIRCLE
5
119
100
AcDbEntity
8
0
100
AcDbCircle
10
112.25000000522954
20
5.3462595851114578
30
8.8817841970012523e-13
40
1.6000000000000023
210
-7.8173019490436814e-31
220
-1.6443343540083202e-13
230
1
0
CIRCLE
5
120
100
AcDbEntity
8
0
100
AcDbCircle
10
190.35000000522956
20
5.3462595851366155
30
8.8817841970012523e-13
40
1.6000000000000023
210
-7.8173019490436814e-31
220
-1.6443343540083202e-13
230
1
0
CIRCLE
5
121
100
AcDbEntity
8
0
100
AcDbCircle
10
147.05000000523384
20
-8.0537404148773248
30
-1.3145040611561853e-12
40
1.6000000000000023
210
-7.8173019490436814e-31
220
-1.6443343540083202e-13
230
1
0
CIRCLE
5
122
100
AcDbEntity
8
0
100
AcDbCircle
10
109.55000000525374
20
-69.85374041488943
30
-1.1475265182525618e-11
40
1.6000000000000023
210
-7.8173019490436814e-31
220
-1.6443343540083202e-13
230
1
0
CIRCLE
5
123
100
AcDbEntity
8
0
100
AcDbCircle
10
34.150000005229543
20
5.3462595850863366
30
8.8817841970012523e-13
40
1.5999999999999934
210
-5.0218575562199137e-30
220
-1.6443343540083202e-13
230
1
0
CIRCLE
5
124
100
AcDbEntity
8
0
100
AcDbCircle
10
-87.249999994746204
20
-69.95374041495279
30
-1.1475265182525618e-11
40
1.6000000000000023
210
-7.8173019490436814e-31
220
-1.6443343540083202e-13
230
1
0
CIRCLE
5
125
100
AcDbEntity
8
0
100
AcDbCircle
10
144.00000002223652
20
-140.15374041568259
30
-2.3057111775415251e-11
40
1.6000000000000023
210
-7.8173019490436814e-31
220
-1.6443343540083202e-13
230
1
0
LWPOLYLINE
5
126
100
AcDbEntity
8
0
100
AcDbPolyline
90
8
70
1
43
0.0
10
222.74999905404781
20
-154.30527804681981
10
222.7500000206955
20
-153.65361199698083
10
222.74999997673825
20
172.64638800302262
10
221.24999997653615
20
174.14638800282034
10
-221.25000002346385
20
174.14638794320928
10
-222.7500000232618
20
172.64638794300743
10
-222.74999997930453
20
-153.65361205699597
10
-222.74999901248177
20
-154.30527810683489
0
CIRCLE
5
127
100
AcDbEntity
8
0
100
AcDbCircle
10
179.99999997714235
20
169.64638799725961
30
2.7888802378583932e-11
40
2.3499999999999956
210
-3.4194254833966898e-30
220
-1.6443343540083202e-13
230
1
0
CIRCLE
5
128
100
AcDbEntity
8
0
100
AcDbCircle
10
-180.00000002285765
20
169.64638794876242
30
2.7888802378583932e-11
40
2.3499999999999961
210
-4.8180235714092125e-28
220
-1.64433435400832e-13
230
1
0
CIRCLE
5
129
100
AcDbEntity
8
0
100
AcDbCircle
10
-60.000000022858053
20
169.64638796492818
30
2.7888802378583932e-11
40
2.3499999999999961
210
-3.7916361149555909e-29
220
-1.6443346250588631e-13
230
1
0
CIRCLE
5
130
100
AcDbEntity
8
0
100
AcDbCircle
10
59.999999977141954
20
169.6463879810938
30
2.7888802378583932e-11
40
2.3499999999999956
210
6.1846838096343976e-29
220
-1.6443340829577771e-13
230
1
0
ENDSEC
0
SECTION
2
OBJECTS
0
DICTIONARY
5
C
100
AcDbDictionary
3
ACAD_GROUP
350
D
3
ACAD_MLINESTYLE
350
17
0
DICTIONARY
5
D
100
AcDbDictionary
0
DICTIONARY
5
1A
330
C
100
AcDbDictionary
0
DICTIONARY
5
17
100
AcDbDictionary
0
ENDSEC
0
EOF
