0
SECTION
2
HEADER
9
$INSUNITS
70
4
9
$ACADVER
1
AC1014
9
$HANDSEED
5
FFFF
0
ENDSEC
0
SECTION
2
TABLES
0
TABLE
2
VPORT
5
8
100
AcDbSymbolTable
0
ENDTAB
0
TABLE
2
LTYPE
5
5
100
AcDbSymbolTable
0
LTYPE
5
14
100
AcDbSymbolTableRecord
100
AcDbLinetypeTableRecord
2
BYBLOCK
70
0
0
LTYPE
5
15
100
AcDbSymbolTableRecord
100
AcDbLinetypeTableRecord
2
BYLAYER
70
0
0
ENDTAB
0
TABLE
2
LAYER
5
2
100
AcDbSymbolTable
70
2
0
LAYER
5
50
100
AcDbSymbolTableRecord
100
AcDbLayerTableRecord
2
0
70
0
6
CONTINUOUS
0
ENDTAB
0
TABLE
2
STYLE
5
3
100
AcDbSymbolTable
70
1
0
STYLE
5
11
100
AcDbSymbolTableRecord
100
AcDbTextStyleTableRecord
2
STANDARD
70
0
0
ENDTAB
0
TABLE
2
VIEW
5
6
100
AcDbSymbolTable
70
0
0
ENDTAB
0
TABLE
2
UCS
5
7
100
AcDbSymbolTable
70
0
0
ENDTAB
0
TABLE
2
APPID
5
9
100
AcDbSymbolTable
70
2
0
APPID
5
12
100
AcDbSymbolTableRecord
100
AcDbRegAppTableRecord
2
ACAD
70
0
0
ENDTAB
0
TABLE
2
DIMSTYLE
5
A
100
AcDbSymbolTable
70
1
0
ENDTAB
0
TABLE
2
BLOCK_RECORD
5
1
100
AcDbSymbolTable
70
1
0
BLOCK_RECORD
5
1F
100
AcDbSymbolTableRecord
100
AcDbBlockTableRecord
2
*MODEL_SPACE
0
BLOCK_RECORD
5
1B
100
AcDbSymbolTableRecord
100
AcDbBlockTableRecord
2
*PAPER_SPACE
0
ENDTAB
0
ENDSEC
0
SECTION
2
BLOCKS
0
BLOCK
5
20
100
AcDbEntity
100
AcDbBlockBegin
2
*MODEL_SPACE
0
ENDBLK
5
21
100
AcDbEntity
100
AcDbBlockEnd
0
BLOCK
5
1C
100
AcDbEntity
100
AcDbBlockBegin
2
*PAPER_SPACE
0
ENDBLK
5
1D
100
AcDbEntity
100
AcDbBlockEnd
0
ENDSEC
0
SECTION
2
ENTITIES
0
LINE
5
100
100
AcDbEntity
8
0
100
AcDbLine
10
222.75000000617328
20
-45.853612207399159
30
2.0194839173657902e-27
11
222.74999999290395
21
52.646387792675078
31
3.5527136788005009e-14
0
LINE
5
101
100
AcDbEntity
8
0
100
AcDbLine
10
222.74999999290395
20
52.646387792675078
30
3.5527136788005009e-14
11
221.24999999270185
21
54.146387792472822
31
3.5527136788005009e-14
0
LINE
5
102
100
AcDbEntity
8
0
100
AcDbLine
10
221.24999999270185
20
54.146387792472822
30
3.5527136788005009e-14
11
-221.25000000729815
21
54.146387732861768
31
3.5527136788007029e-14
0
LINE
5
103
100
AcDbEntity
8
0
100
AcDbLine
10
-221.25000000729815
20
54.146387732861768
30
3.5527136788007029e-14
11
-222.75000000709611
21
52.646387732659868
31
3.5527136788005009e-14
0
LINE
5
104
100
AcDbEntity
8
0
100
AcDbLine
10
-222.75000000709611
20
52.646387732659868
30
3.5527136788005009e-14
11
-222.74999999382675
21
-45.853612267414945
31
0
0
CIRCLE
5
105
100
AcDbEntity
8
0
100
AcDbCircle
10
179.99999999330808
20
49.646387786912001
30
3.5527136788005009e-14
40
2.3499999999999961
210
6.3108872417680944e-30
220
8.4062603939938075e-40
230
1
0
CIRCLE
5
106
100
AcDbEntity
8
0
100
AcDbCircle
10
-180.00000000669192
20
49.646387738414852
30
3.5527136788005009e-14
40
2.3499999999999974
210
-3.407879110554771e-28
220
-4.5393658294846243e-38
230
1
0
CIRCLE
5
107
100
AcDbEntity
8
0
100
AcDbCircle
10
-60.000000006692332
20
49.646387754580566
30
0
40
2.3499999999999961
210
5.3187531670534199e-29
220
2.7105054312137617e-20
230
1
0
CIRCLE
5
108
100
AcDbEntity
8
0
100
AcDbCircle
10
59.999999993307675
20
49.646387770746216
30
0
40
2.3499999999999961
210
6.8965565404828418e-29
220
2.7105054312137617e-20
230
1
0
CIRCLE
5
109
100
AcDbEntity
8
0
100
AcDbCircle
10
88.000000723231793
20
-114.55010897458926
30
3.5527136788005009e-14
40
1.0500000000000052
210
-1.9345871518560333e-30
220
2.7105054312137611e-20
230
1
0
CIRCLE
5
110
100
AcDbEntity
8
0
100
AcDbCircle
10
-116.24999998457173
20
-114.55010900210466
30
3.5527136788005009e-14
40
1.0500000000000052
210
-1.9345871518560333e-30
220
2.7105054312137611e-20
230
1
0
CIRCLE
5
111
100
AcDbEntity
8
0
100
AcDbCircle
10
10.00000071447535
20
-49.550110352339914
30
0
40
1.0500000000000009
210
9.1564608526365065e-32
220
2.7105054312137605e-20
230
1
0
CIRCLE
5
112
100
AcDbEntity
8
0
100
AcDbCircle
10
-194.24999997985677
20
-149.55010827640464
30
0
40
1.0500000000000052
210
-6.1606276266473234e-30
220
2.7105054312137611e-20
230
1
0
CIRCLE
5
113
100
AcDbEntity
8
0
100
AcDbCircle
10
160.00000072525253
20
-129.55010864937225
30
0
40
1.0500000000000052
210
-1.9345871518560333e-30
220
2.7105054312137611e-20
230
1
0
CIRCLE
5
114
100
AcDbEntity
8
0
100
AcDbCircle
10
10.000000727946784
20
-149.55010824888922
30
0
40
1.0500000000000009
210
9.1564608526365065e-32
220
2.7105054312137605e-20
230
1
0
CIRCLE
5
115
100
AcDbEntity
8
0
100
AcDbCircle
10
-194.24999999332817
20
-49.550110379855298
30
0
40
1.0500000000000052
210
-6.1606276266473234e-30
220
2.7105054312137611e-20
230
1
0
CIRCLE
5
116
100
AcDbEntity
8
0
100
AcDbCircle
10
-44.249999993328181
20
-49.550110359648166
30
0
40
1.0500000000000052
210
-2.0519771650446813e-30
220
2.7105054312137611e-20
230
1
0
CIRCLE
5
117
100
AcDbEntity
8
0
100
AcDbCircle
10
-44.249999982551039
20
-129.55010867688765
30
3.5527136788005009e-14
40
1.0500000000000052
210
-1.9345871518560333e-30
220
2.7105054312137611e-20
230
1
0
CIRCLE
5
118
100
AcDbEntity
8
0
100
AcDbCircle
10
160.00000071447533
20
-49.550110332132775
30
3.5527136788005009e-14
40
1.0500000000000052
210
-2.0519771650446813e-30
220
2.7105054312137611e-20
230
1
0
LINE
5
119
100
AcDbEntity
8
0
100
AcDbLine
10
-222.74999999382675
20
-45.853612057069896
30
0
11
-222.74999997930453
21
-153.65361205699841
31
3.5527136788005009e-14
0
LINE
5
120
100
AcDbEntity
8
0
100
AcDbLine
10
-222.74999997930453
20
-153.65361205699841
30
3.5527136788005009e-14
11
-222.74999901248177
21
-154.30527810683742
31
-1.6940658945086007e-20
0
LINE
5
121
100
AcDbEntity
8
0
100
AcDbLine
10
-222.74999901248177
20
-154.30527810683742
30
-1.6940658945086007e-20
11
222.74999905404781
21
-154.30527804682228
31
3.5527136788005009e-14
0
LINE
5
122
100
AcDbEntity
8
0
100
AcDbLine
10
222.74999905404781
20
-154.30527804682228
30
3.5527136788005009e-14
11
222.7500000206955
21
-153.6536119969833
31
1.6940658945086007e-20
0
LINE
5
123
100
AcDbEntity
8
0
100
AcDbLine
10
222.7500000206955
20
-153.6536119969833
30
1.6940658945086007e-20
11
222.75000000617328
21
-45.853611997054095
31
0
0
LINE
5
124
100
AcDbEntity
8
0
100
AcDbLine
10
-221.25000000729815
20
54.146387732861754
30
3.5527136788005009e-14
11
221.24999999270185
21
54.146387792472837
31
3.552713678800299e-14
0
LINE
5
125
100
AcDbEntity
8
0
100
AcDbLine
10
221.24999999270185
20
54.146387792472837
30
3.552713678800299e-14
11
222.74999999290395
21
52.646387792675107
31
3.5527136788005009e-14
0
LINE
5
126
100
AcDbEntity
8
0
100
AcDbLine
10
222.74999999290395
20
52.646387792675107
30
3.5527136788005009e-14
11
222.75000000617328
21
-45.853612207399159
31
3.5527136788005009e-14
0
LINE
5
127
100
AcDbEntity
8
0
100
AcDbLine
10
-222.74999999382675
20
-45.853612267414945
30
0
11
-222.75000000709611
21
52.646387732659853
31
0
0
LINE
5
128
100
AcDbEntity
8
0
100
AcDbLine
10
-222.75000000709611
20
52.646387732659853
30
0
11
-221.25000000729815
21
54.146387732861754
31
3.5527136788005009e-14
0
ELLIPSE
5
129
100
AcDbEntity
8
0
100
AcDbEllipse
10
-180.00000000669277
20
49.645882787877831
30
0
11
1.1250000000000071
21
1.51127269871902e-10
31
0.0
40
0.99999997896549286
41
0
42
6.2831853071795862
0
ELLIPSE
5
130
100
AcDbEntity
8
0
100
AcDbEllipse
10
-60.000000006693227
20
49.645882804043481
30
0
11
1.1249999999999982
21
1.5119832414398226e-10
31
0.0
40
0.99999997896549286
41
0
42
6.2831853071795862
0
ELLIPSE
5
131
100
AcDbEntity
8
0
100
AcDbEllipse
10
59.999999993306766
20
49.645882820209195
30
3.5527136788005009e-14
11
1.1249999999999982
21
1.5119832414398226e-10
31
0.0
40
0.99999997896549286
41
0
42
6.2831853071795862
0
ELLIPSE
5
132
100
AcDbEntity
8
0
100
AcDbEllipse
10
179.9999999933072
20
49.64588283637498
30
0
11
1.1250000000000071
21
1.51127269871902e-10
31
0.0
40
0.99999997896549286
41
0
42
6.2831853071795862
0
ENDSEC
0
SECTION
2
OBJECTS
0
DICTIONARY
5
C
100
AcDbDictionary
3
ACAD_GROUP
350
D
3
ACAD_MLINESTYLE
350
17
0
DICTIONARY
5
D
100
AcDbDictionary
0
DICTIONARY
5
1A
330
C
100
AcDbDictionary
0
DICTIONARY
5
17
100
AcDbDictionary
0
ENDSEC
0
EOF
