0
SECTION
2
HEADER
9
$INSUNITS
70
4
9
$ACADVER
1
AC1014
9
$HANDSEED
5
FFFF
0
ENDSEC
0
SECTION
2
TABLES
0
TABLE
2
VPORT
5
8
100
AcDbSymbolTable
0
ENDTAB
0
TABLE
2
LTYPE
5
5
100
AcDbSymbolTable
0
LTYPE
5
14
100
AcDbSymbolTableRecord
100
AcDbLinetypeTableRecord
2
BYBLOCK
70
0
0
LTYPE
5
15
100
AcDbSymbolTableRecord
100
AcDbLinetypeTableRecord
2
BYLAYER
70
0
0
ENDTAB
0
TABLE
2
LAYER
5
2
100
AcDbSymbolTable
70
2
0
LAYER
5
50
100
AcDbSymbolTableRecord
100
AcDbLayerTableRecord
2
0
70
0
6
CONTINUOUS
0
ENDTAB
0
TABLE
2
STYLE
5
3
100
AcDbSymbolTable
70
1
0
STYLE
5
11
100
AcDbSymbolTableRecord
100
AcDbTextStyleTableRecord
2
STANDARD
70
0
0
ENDTAB
0
TABLE
2
VIEW
5
6
100
AcDbSymbolTable
70
0
0
ENDTAB
0
TABLE
2
UCS
5
7
100
AcDbSymbolTable
70
0
0
ENDTAB
0
TABLE
2
APPID
5
9
100
AcDbSymbolTable
70
2
0
APPID
5
12
100
AcDbSymbolTableRecord
100
AcDbRegAppTableRecord
2
ACAD
70
0
0
ENDTAB
0
TABLE
2
DIMSTYLE
5
A
100
AcDbSymbolTable
70
1
0
ENDTAB
0
TABLE
2
BLOCK_RECORD
5
1
100
AcDbSymbolTable
70
1
0
BLOCK_RECORD
5
1F
100
AcDbSymbolTableRecord
100
AcDbBlockTableRecord
2
*MODEL_SPACE
0
BLOCK_RECORD
5
1B
100
AcDbSymbolTableRecord
100
AcDbBlockTableRecord
2
*PAPER_SPACE
0
ENDTAB
0
ENDSEC
0
SECTION
2
BLOCKS
0
BLOCK
5
20
100
AcDbEntity
100
AcDbBlockBegin
2
*MODEL_SPACE
0
ENDBLK
5
21
100
AcDbEntity
100
AcDbBlockEnd
0
BLOCK
5
1C
100
AcDbEntity
100
AcDbBlockBegin
2
*PAPER_SPACE
0
ENDBLK
5
1D
100
AcDbEntity
100
AcDbBlockEnd
0
ENDSEC
0
SECTION
2
ENTITIES
0
CIRCLE
5
100
100
AcDbEntity
8
0
100
AcDbCircle
10
161.24999999999901
20
-166.45812844402602
30
0
40
1.6000000000000028
210
0
220
-0
230
1
0
CIRCLE
5
101
100
AcDbEntity
8
0
100
AcDbCircle
10
-137.24999999999901
20
-166.45812844402602
30
0
40
1.6000000000000205
210
0
220
-0
230
1
0
CIRCLE
5
102
100
AcDbEntity
8
0
100
AcDbCircle
10
-149.24999999999901
20
-154.45812844402602
30
0
40
13.000000000000018
210
0
220
-0
230
1
0
LWPOLYLINE
5
103
100
AcDbEntity
8
0
100
AcDbPolyline
90
2
70
1
43
0.0
10
119
20
-142.34457557146001
10
118.99999999999997
20
-144.57168131659199
42
-5.5677643628300073
0
LWPOLYLINE
5
104
100
AcDbEntity
8
0
100
AcDbPolyline
90
2
70
1
43
0.0
10
53
20
-142.34457557146001
10
52.999999999999986
20
-144.57168131659202
42
-5.5677643628300215
0
LWPOLYLINE
5
105
100
AcDbEntity
8
0
100
AcDbPolyline
90
2
70
1
43
0.0
10
-69
20
-164.34457557146001
10
-69
20
-166.57168131659202
42
-5.5677643628300357
0
LWPOLYLINE
5
106
100
AcDbEntity
8
0
100
AcDbPolyline
90
2
70
1
43
0.0
10
-113
20
-142.34457557146001
10
-113.00000000000009
20
-144.57168131659199
42
-5.5677643628300357
0
LWPOLYLINE
5
107
100
AcDbEntity
8
0
100
AcDbPolyline
90
2
70
1
43
0.0
10
-113
20
-164.34457557146001
10
-113
20
-166.57168131659202
42
-5.5677643628300357
0
LWPOLYLINE
5
108
100
AcDbEntity
8
0
100
AcDbPolyline
90
2
70
1
43
0.0
10
-47
20
-164.34457557146001
10
-47
20
-166.57168131659202
42
-5.5677643628300215
0
LWPOLYLINE
5
109
100
AcDbEntity
8
0
100
AcDbPolyline
90
2
70
1
43
0.0
10
53
20
-164.34457557146001
10
53
20
-166.57168131659202
42
-5.5677643628300215
0
LWPOLYLINE
5
110
100
AcDbEntity
8
0
100
AcDbPolyline
90
2
70
1
43
0.0
10
119
20
-164.34457557146001
10
119
20
-166.57168131659202
42
-5.5677643628300073
0
CIRCLE
5
111
100
AcDbEntity
8
0
100
AcDbCircle
10
-137.24999999999901
20
-142.45812844402599
30
0
40
1.6000000000000028
210
0
220
-0
230
1
0
CIRCLE
5
112
100
AcDbEntity
8
0
100
AcDbCircle
10
137.24999999999901
20
-142.45812844402599
30
0
40
1.6000000000000028
210
0
220
-0
230
1
0
CIRCLE
5
113
100
AcDbEntity
8
0
100
AcDbCircle
10
137.24999999999901
20
-166.45812844402602
30
0
40
1.6000000000000205
210
0
220
-0
230
1
0
CIRCLE
5
114
100
AcDbEntity
8
0
100
AcDbCircle
10
161.24999999999901
20
-142.45812844402599
30
0
40
1.6000000000000028
210
0
220
-0
230
1
0
CIRCLE
5
115
100
AcDbEntity
8
0
100
AcDbCircle
10
-161.24999999999901
20
-166.45812844402602
30
0
40
1.6000000000000028
210
0
220
-0
230
1
0
LWPOLYLINE
5
116
100
AcDbEntity
8
0
100
AcDbPolyline
90
2
70
1
43
0.0
10
75
20
-164.34457557146001
10
75
20
-166.57168131659202
42
-5.5677643628300357
0
LWPOLYLINE
5
117
100
AcDbEntity
8
0
100
AcDbPolyline
90
2
70
1
43
0.0
10
97
20
-142.34457557146001
10
97
20
-144.57168131659202
42
-5.5677643628300073
0
LWPOLYLINE
5
118
100
AcDbEntity
8
0
100
AcDbPolyline
90
2
70
1
43
0.0
10
-69
20
-142.34457557146001
10
-69.000000000000014
20
-144.57168131659202
42
-5.5677643628300357
0
LWPOLYLINE
5
119
100
AcDbEntity
8
0
100
AcDbPolyline
90
2
70
1
43
0.0
10
-91.000000000000014
20
-164.34457557146001
10
-91.000000000000014
20
-166.57168131659202
42
-5.5677643628300357
0
CIRCLE
5
120
100
AcDbEntity
8
0
100
AcDbCircle
10
-184.74999999999903
20
-166.45812844402602
30
0
40
1.6000000000000028
210
0
220
-0
230
1
0
CIRCLE
5
121
100
AcDbEntity
8
0
100
AcDbCircle
10
-194.24999999999901
20
-154.45812844402602
30
0
40
11.800000000000008
210
0
220
-0
230
1
0
LWPOLYLINE
5
122
100
AcDbEntity
8
0
100
AcDbPolyline
90
2
70
1
43
0.0
10
-91.000000000000014
20
-142.34457557146001
10
-91.000000000000085
20
-144.57168131659199
42
-5.5677643628300357
0
LWPOLYLINE
5
123
100
AcDbEntity
8
0
100
AcDbPolyline
90
2
70
1
43
0.0
10
-47
20
-142.34457557146001
10
-47.000000000000021
20
-144.57168131659202
42
-5.5677643628300002
0
LWPOLYLINE
5
124
100
AcDbEntity
8
0
100
AcDbPolyline
90
2
70
1
43
0.0
10
75
20
-142.34457557146001
10
74.999999999999986
20
-144.57168131659202
42
-5.5677643628300215
0
LWPOLYLINE
5
125
100
AcDbEntity
8
0
100
AcDbPolyline
90
2
70
1
43
0.0
10
97
20
-164.34457557146001
10
97
20
-166.57168131659202
42
-5.5677643628300073
0
CIRCLE
5
126
100
AcDbEntity
8
0
100
AcDbCircle
10
-161.24999999999901
20
-142.45812844402599
30
0
40
1.6000000000000028
210
0
220
-0
230
1
0
CIRCLE
5
127
100
AcDbEntity
8
0
100
AcDbCircle
10
149.24999999999901
20
-154.45812844402602
30
0
40
13.000000000000018
210
0
220
-0
230
1
0
CIRCLE
5
128
100
AcDbEntity
8
0
100
AcDbCircle
10
174.25
20
-154.45812844402599
30
0
40
2.1000000000000103
210
-0
220
3.1554436208840479e-30
230
1
0
LWPOLYLINE
5
129
100
AcDbEntity
8
0
100
AcDbPolyline
90
4
70
1
43
0.0
10
-222.75000000000003
20
-173.28312844402544
10
222.75000000000003
20
-173.28312844402544
10
222.75000000000003
20
-135.63312844402634
10
-222.75000000000003
20
-135.63312844402634
0
CIRCLE
5
130
100
AcDbEntity
8
0
100
AcDbCircle
10
217.00000190116162
20
-141.95812844402636
30
0
40
2.3499999999999965
210
-1.3007812799335975e-29
220
-3.1554436208750011e-30
230
1
0
CIRCLE
5
131
100
AcDbEntity
8
0
100
AcDbCircle
10
-216.99999809883835
20
-141.95812844402636
30
0
40
2.3499999999999965
210
-1.1539188773657905e-29
220
-3.1554436208758482e-30
230
1
0
CIRCLE
5
132
100
AcDbEntity
8
0
100
AcDbCircle
10
217.00000190115833
20
-166.95812844402542
30
0
40
2.3500000000000023
210
0
220
-0
230
1
0
CIRCLE
5
133
100
AcDbEntity
8
0
100
AcDbCircle
10
-216.99999809884173
20
-166.95812844402542
30
0
40
2.3500000000000032
210
-3.3568549158346729e-30
220
2.4359375749245004e-42
230
1
0
CIRCLE
5
134
100
AcDbEntity
8
0
100
AcDbCircle
10
50.650000707804502
20
-156.20805525533882
30
0
40
0.99999999999999711
210
0
220
3.1554436208840479e-30
230
1
0
CIRCLE
5
135
100
AcDbEntity
8
0
100
AcDbCircle
10
110.65000070780449
20
-156.20805525533882
30
0
40
0.99999999999999711
210
0
220
3.1554436208840479e-30
230
1
0
LINE
5
136
100
AcDbEntity
8
0
100
AcDbLine
10
137.36358614467522
20
-155.46985512288535
30
1.7763568394002505e-14
11
133.86981730519125
21
-154.27770719614983
31
1.7763568394002505e-14
0
ARC
5
137
100
AcDbEntity
8
0
100
AcDbCircle
10
133.44999626921114
20
-155.50805279708825
30
8.8817841970012523e-15
40
1.2999999999999756
210
-2.2063667709686247e-15
220
-6.4660734409853764e-15
230
1
100
AcDbArc
50
71.159227763147257
51
89.999984986440325
0
LINE
5
138
100
AcDbEntity
8
0
100
AcDbLine
10
133.449996609858
20
-154.20805279708836
30
8.8817841970012523e-15
11
114.04999804845156
21
-154.20804263009043
31
0
0
ARC
5
139
100
AcDbEntity
8
0
100
AcDbCircle
10
114.04999770780469
20
-155.50804263009047
30
8.8817841970012523e-15
40
1.3000000000001055
210
1.7902674515031935e-21
220
6.8321416900001731e-15
230
1
100
AcDbArc
50
89.999984986440325
51
180
0
LINE
5
140
100
AcDbEntity
8
0
100
AcDbLine
10
112.7499977078046
20
-155.50804263009047
30
8.8817841970012523e-15
11
112.74999770780451
21
-158.00804770921206
31
8.8817841970012523e-15
0
ARC
5
141
100
AcDbEntity
8
0
100
AcDbCircle
10
114.04999770780458
20
-158.00804770921206
30
8.8817841970012523e-15
40
1.3000000000000789
210
0
220
0
230
1
100
AcDbArc
50
180
51
269.99998496054053
0
LINE
5
142
100
AcDbEntity
8
0
100
AcDbLine
10
114.04999736657007
20
-159.3080477092121
30
8.8817841970012523e-15
11
133.41658818290387
21
-159.30805279271152
31
-8.8817841970012523e-15
0
ARC
5
143
100
AcDbEntity
8
0
100
AcDbCircle
10
133.41658870788009
20
-157.30805252602039
30
-8.8817841970012523e-15
40
2.0000002666911931
210
0
220
0
230
1
100
AcDbArc
50
269.99998496054087
51
272.40642477386433
0
LINE
5
144
100
AcDbEntity
8
0
100
AcDbLine
10
133.5005640962043
20
-159.30628904878756
30
-8.8817841970012523e-15
11
136.82977731607463
21
-159.16637969883456
31
-8.8817841970012476e-15
0
ARC
5
145
100
AcDbEntity
8
0
100
AcDbCircle
10
136.7500007078045
20
-157.26805525533885
30
-8.8817841970012523e-15
40
1.9000028433387974
210
3.8326716375913446e-44
220
1.6106706359275498e-45
230
1
100
AcDbArc
50
-87.593575226135314
51
71.159230070109047
0
CIRCLE
5
146
100
AcDbEntity
8
0
100
AcDbCircle
10
-157.49999999999903
20
-157.26805525534448
30
-8.8817841970012523e-15
40
1.8999999999999968
210
0
220
0
230
1
0
CIRCLE
5
147
100
AcDbEntity
8
0
100
AcDbCircle
10
-97.499999999982393
20
-162.32805525534445
30
-1.7763568394002505e-14
40
1.8999999999999968
210
0
220
0
230
1
0
LWPOLYLINE
5
148
100
AcDbEntity
8
0
100
AcDbPolyline
90
8
70
1
43
0.0
10
29.094531707804503
20
-142.84804923683876
10
29.094531723324746
20
-152.50239925889616
42
0.4142135623730836
10
30.004531719767424
20
-153.41239925533881
10
41.014260692703772
20
-153.41239925533881
42
0.41421356237309503
10
41.924260710703749
20
-152.50239923733884
10
41.924260707804507
20
-142.84804925256492
42
0.41421356237308932
10
41.014260710578384
20
-141.9380492553388
10
30.004531689304468
20
-141.9380492553388
42
0.41421356237309503
0
LINE
5
149
100
AcDbEntity
8
0
100
AcDbLine
10
-100.74943299372451
20
-159.30629152399655
30
-8.8817841970012523e-15
11
-97.42022199372451
21
-159.16637968285241
31
-8.8817841970012523e-15
0
ARC
5
150
100
AcDbEntity
8
0
100
AcDbCircle
10
-97.499999999999005
20
-157.26805525534451
30
-8.8817841970012523e-15
40
1.9000000427258914
210
-0
220
0
230
1
100
AcDbArc
50
-87.593533085308323
51
71.159272167020575
0
LINE
5
151
100
AcDbEntity
8
0
100
AcDbLine
10
-96.886416788743219
20
-155.46985732262181
30
-8.8817841970012523e-15
11
-100.38018563391017
21
-154.27770941254101
31
1.7763568394002505e-14
0
ARC
5
152
100
AcDbEntity
8
0
100
AcDbCircle
10
-100.8000057163796
20
-155.50805533883451
30
8.8817841970012523e-15
40
1.2999999999967784
210
-2.2063617598102205e-15
220
-6.4660751509186542e-15
230
1
100
AcDbArc
50
71.15927216698897
51
89.999969972890028
0
LINE
5
153
100
AcDbEntity
8
0
100
AcDbLine
10
-100.80000503508609
20
-154.20805533883791
30
8.8817841970012523e-15
11
-120.20000482944647
21
-154.20804008834386
31
-7.3955709864469857e-31
0
ARC
5
154
100
AcDbEntity
8
0
100
AcDbCircle
10
-120.20000300001151
20
-155.50804517183136
30
8.8817841970012523e-15
40
1.2999999999875107
210
-2.6014213087740788e-29
220
-3.0341170132859364e-30
230
1
100
AcDbArc
50
90.000080629609215
51
180
0
LINE
5
155
100
AcDbEntity
8
0
100
AcDbLine
10
-121.50000299999901
20
-155.50804517183136
30
8.8817841970012523e-15
11
-121.500002999999
21
-158.00804516307321
31
8.8817841970012523e-15
0
ARC
5
156
100
AcDbEntity
8
0
100
AcDbCircle
10
-120.20000299999887
20
-158.00804516307321
30
8.8817841970012523e-15
40
1.3000000000001144
210
0
220
0
230
1
100
AcDbArc
50
180
51
269.99996992108294
0
LINE
5
157
100
AcDbEntity
8
0
100
AcDbLine
10
-120.20000368246386
20
-159.30804007957553
30
-8.8817841970012523e-15
11
-100.8334140499543
21
-159.30805546114397
31
-8.8817841970012476e-15
0
ARC
5
158
100
AcDbEntity
8
0
100
AcDbCircle
10
-100.83341300000137
20
-157.30805423156181
30
-8.8817841970012523e-15
40
2.0000012295824114
210
1.2941653064385052e-36
220
2.4651888132389193e-30
230
1
100
AcDbArc
50
269.99996992108277
51
272.40655602591403
0
LWPOLYLINE
5
159
100
AcDbEntity
8
0
100
AcDbPolyline
90
10
70
1
43
0.0
10
-151.50000357752245
20
-155.50804993585581
10
-151.5000041919107
20
-158.00804990781336
42
0.41421363350487844
10
-150.20000419567504
20
-159.30805022729609
10
-130.83341000579065
20
-159.30805028338622
42
0.010498446268694388
10
-130.74945020120364
20
-159.30628719431206
10
-127.42023920120366
20
-159.16640393813961
42
0.82986811764674373
10
-126.88640215120459
20
-155.4698863245668
10
-130.38016061321551
20
-154.27770798551845
42
0.082396070415240497
10
-130.79999141138043
20
-154.20805025534116
10
-150.20000357752596
20
-154.20805025534116
42
0.41421349039303407
0
CIRCLE
5
160
100
AcDbEntity
8
0
100
AcDbCircle
10
-24.999999292195501
20
-154.45812844403522
30
-8.8817841970012523e-15
40
4.100000000000005
210
0
220
0
230
1
0
CIRCLE
5
161
100
AcDbEntity
8
0
100
AcDbCircle
10
-93.599999999999056
20
-156.20805525534448
30
0
40
0.99999999999999711
210
0
220
3.1554436208840479e-30
230
1
0
CIRCLE
5
162
100
AcDbEntity
8
0
100
AcDbCircle
10
-153.60000074955255
20
-156.20805525534115
30
0
40
0.99999999999999711
210
0
220
3.1554436208840479e-30
230
1
0
LINE
5
163
100
AcDbEntity
8
0
100
AcDbLine
10
103.50056636910423
20
-159.30628904643478
30
-8.8817841970012523e-15
11
106.82977736910418
21
-159.1663796966057
31
-8.8817841970012523e-15
0
ARC
5
164
100
AcDbEntity
8
0
100
AcDbCircle
10
106.7500007078045
20
-157.26805525533882
30
-8.8817841970012523e-15
40
1.8999999999998105
210
-0
220
0
230
1
100
AcDbArc
50
-87.593573625582493
51
71.15923192503999
0
LINE
5
165
100
AcDbEntity
8
0
100
AcDbLine
10
107.36358516823353
20
-155.4698577940128
30
-8.8817841970012523e-15
11
103.86981624083859
21
-154.27771012491368
31
1.7763568394002508e-14
0
ARC
5
166
100
AcDbEntity
8
0
100
AcDbCircle
10
103.44999543886614
20
-155.50805279708806
30
8.8817841970012523e-15
40
1.2999999999999503
210
-4.2929117844426066e-29
220
1.4648387875197056e-29
230
1
100
AcDbArc
50
71.159195838599302
51
89.999984986438434
0
LINE
5
167
100
AcDbEntity
8
0
100
AcDbLine
10
103.44999577951305
20
-154.20805279708813
30
8.8817841970012523e-15
11
84.049998048451556
21
-154.20804263009043
31
0
0
ARC
5
168
100
AcDbEntity
8
0
100
AcDbCircle
10
84.049997707804664
20
-155.50804263009047
30
8.8817841970012523e-15
40
1.3000000000001055
210
1.7902675448595161e-21
220
6.8321416900001731e-15
230
1
100
AcDbArc
50
89.999984986439074
51
180
0
LINE
5
169
100
AcDbEntity
8
0
100
AcDbLine
10
82.749997707804596
20
-155.50804263009047
30
8.8817841970012523e-15
11
82.749997707804425
21
-158.00804770920519
31
8.8817841970012523e-15
0
ARC
5
170
100
AcDbEntity
8
0
100
AcDbCircle
10
84.049997707804508
20
-158.00804770920519
30
8.8817841970012523e-15
40
1.3000000000000789
210
-2.922875843152016e-74
220
2.1390626656864468e-60
230
1
100
AcDbArc
50
180
51
269.99998643325392
0
LINE
5
171
100
AcDbEntity
8
0
100
AcDbLine
10
84.049997399984804
20
-159.30804770920523
30
8.8817841970012523e-15
11
103.41659039998412
21
-159.30805279270456
31
-8.8817841970012523e-15
0
ARC
5
172
100
AcDbEntity
8
0
100
AcDbCircle
10
103.41659092496039
20
-157.30805252603727
30
-8.8817841970012523e-15
40
2.0000002666673544
210
7.5231638452623803e-37
220
-1.9747410055006195e-43
230
1
100
AcDbArc
50
269.99998496053962
51
272.4064263744192
0
CIRCLE
5
173
100
AcDbEntity
8
0
100
AcDbCircle
10
140.65000070780454
20
-156.20805525533882
30
0
40
0.99999999999999711
210
0
220
3.1554436208840479e-30
230
1
0
CIRCLE
5
174
100
AcDbEntity
8
0
100
AcDbCircle
10
76.750000707804503
20
-162.3280552553388
30
-1.7763568394002505e-14
40
1.9000000000000057
210
0
220
0
230
1
0
CIRCLE
5
175
100
AcDbEntity
8
0
100
AcDbCircle
10
46.750000707804496
20
-157.26805525533882
30
-8.8817841970012523e-15
40
1.9000000000000057
210
0
220
0
230
1
0
CIRCLE
5
176
100
AcDbEntity
8
0
100
AcDbCircle
10
106.75000070780449
20
-162.3280552553388
30
-1.7763568394002505e-14
40
1.8999999999999968
210
0
220
0
230
1
0
LWPOLYLINE
5
177
100
AcDbEntity
8
0
100
AcDbPolyline
90
8
70
1
43
0.0
10
163.44999804845128
20
-154.20805279708736
10
144.04999804845141
20
-154.20804263009143
42
0.41421363912164449
10
142.7499977078046
20
-155.5080426300915
10
142.74999770780448
20
-158.008047713591
42
0.41421348562455373
10
144.04999736715786
20
-159.30804771359104
10
163.44999736715789
20
-159.30805279708727
42
0.41421363912164055
10
164.74999770780454
20
-158.0080527970874
10
164.74999770780454
20
-155.50805279708732
42
0.41421348562454974
0
CIRCLE
5
178
100
AcDbEntity
8
0
100
AcDbCircle
10
-157.49999999999901
20
-162.32805525534445
30
-1.7763568394002505e-14
40
1.8999999999999968
210
0
220
0
230
1
0
CIRCLE
5
179
100
AcDbEntity
8
0
100
AcDbCircle
10
-123.599999999999
20
-156.20805525534448
30
0
40
0.99999999999999711
210
0
220
3.1554436208840479e-30
230
1
0
CIRCLE
5
180
100
AcDbEntity
8
0
100
AcDbCircle
10
-63.599999999999
20
-156.20805525534448
30
0
40
0.99999999999999711
210
0
220
3.1554436208840479e-30
230
1
0
LINE
5
181
100
AcDbEntity
8
0
100
AcDbLine
10
-66.886416780507943
20
-155.4698573705767
30
1.7763568394002505e-14
11
-70.380185611067603
21
-154.27770941768713
31
1.7763568394002505e-14
0
ARC
5
182
100
AcDbEntity
8
0
100
AcDbCircle
10
-70.800005708614947
20
-155.50805533884417
30
8.8817841970012523e-15
40
1.300000000004786
210
-2.2063618390249142e-15
220
-6.4660751238444588e-15
230
1
100
AcDbArc
50
71.159271464948219
51
89.999969972881885
0
LINE
5
183
100
AcDbEntity
8
0
100
AcDbLine
10
-70.800005027321248
20
-154.20805533883959
30
8.8817841970012523e-15
11
-90.200004829395624
21
-154.20804008834224
31
2.9582283945787943e-30
0
ARC
5
184
100
AcDbEntity
8
0
100
AcDbCircle
10
-90.200002999960873
20
-155.50804517188038
30
8.8817841970012523e-15
40
1.3000000000381724
210
6.7336989804414525e-29
220
9.4760113370423686e-35
230
1
100
AcDbArc
50
90.000080629600461
51
180
0
LINE
5
185
100
AcDbEntity
8
0
100
AcDbLine
10
-91.50000299999904
20
-155.50804517188038
30
8.8817841970012523e-15
11
-91.50000299999904
21
-158.00804516308949
31
8.8817841970012523e-15
0
ARC
5
186
100
AcDbEntity
8
0
100
AcDbCircle
10
-90.200003000000905
20
-158.00804516308949
30
8.8817841970012523e-15
40
1.2999999999981426
210
0
220
1.6337679974216992e-62
230
1
100
AcDbArc
50
180
51
269.99996992107856
0
LINE
5
187
100
AcDbEntity
8
0
100
AcDbLine
10
-90.20000368246599
20
-159.30804007958983
30
-8.8817841970012523e-15
11
-70.833410757987636
21
-159.30805533008819
31
-8.8817841970012444e-15
0
ARC
5
188
100
AcDbEntity
8
0
100
AcDbCircle
10
-70.833409708035035
20
-157.30805505931687
30
-8.8817841970012523e-15
40
2.0000002644107178
210
-6.5856144013940813e-45
220
3.4572910113526427e-51
230
1
100
AcDbArc
50
269.99996992107759
51
272.40646569555935
0
LINE
5
189
100
AcDbEntity
8
0
100
AcDbLine
10
-70.749432892629486
20
-159.30629151982831
30
-8.8817841970012523e-15
11
-67.420221892629201
21
-159.1663796358466
31
-8.8817841970012523e-15
0
ARC
5
190
100
AcDbEntity
8
0
100
AcDbCircle
10
-67.499999999999034
20
-157.26805525534448
30
-8.8817841970012523e-15
40
1.9000000000063881
210
-0
220
0
230
1
100
AcDbArc
50
-87.593529979880685
51
71.159271464979938
0
LINE
5
191
100
AcDbEntity
8
0
100
AcDbLine
10
-175.15546957303613
20
-142.84804928464047
30
1.7763568394002505e-14
11
-175.15546902777169
21
-152.50239928844695
31
1.7763568394002505e-14
0
ARC
5
192
100
AcDbEntity
8
0
100
AcDbCircle
10
-174.24546903133086
20
-152.50239924990029
30
-1.7763568394002505e-14
40
0.90999999644083207
210
3.9040809809843718e-14
220
1.6537291098238747e-21
230
1
100
AcDbArc
50
180.00000225887271
51
269.99999990632693
0
LINE
5
193
100
AcDbEntity
8
0
100
AcDbLine
10
-174.24546903281862
20
-153.41239924634112
30
-1.7763568394002505e-14
11
-163.23574026973532
21
-153.41239926434116
31
8.8817841970012523e-15
0
ARC
5
194
100
AcDbEntity
8
0
100
AcDbCircle
10
-163.23574026824755
20
-152.50239924633948
30
-1.7763568394002505e-14
40
0.91000001800168207
210
4.7871213845092219e-23
220
2.9280606663630316e-14
230
1
100
AcDbArc
50
269.99999990632693
51
360
0
LINE
5
195
100
AcDbEntity
8
0
100
AcDbLine
10
-162.32574026824591
20
-152.50239925523323
30
-1.7763568394002505e-14
11
-162.3257402142458
21
-142.84805156975551
31
-1.7763568394002505e-14
0
ARC
5
196
100
AcDbEntity
8
0
100
AcDbCircle
10
-163.23574021146999
20
-142.84804924331536
30
1.7763568394002505e-14
40
0.90999999722717828
210
3.9040809775980343e-14
220
-9.9808909170829339e-20
230
1
100
AcDbArc
50
-0.00014647879720792201
51
90.000000096275045
0
LINE
5
197
100
AcDbEntity
8
0
100
AcDbLine
10
-163.23574021299908
20
-141.93804924609117
30
1.7763568394002505e-14
11
-174.24546945674643
21
-141.93804926459114
31
-8.8817841970012523e-15
0
ARC
5
198
100
AcDbEntity
8
0
100
AcDbCircle
10
-174.24546945521735
20
-142.84804924609381
30
1.7763568394002505e-14
40
0.90999998150266492
210
-4.9200687947353387e-23
220
2.9280607838040628e-14
230
1
100
AcDbArc
50
90.000000096275045
51
180.00000225887271
0
LINE
5
199
100
AcDbEntity
8
0
100
AcDbLine
10
-40.800002318704962
20
-154.20805533884047
30
0
11
-60.200004829408087
21
-154.20804008834207
31
-2.2186712959340957e-30
0
ARC
5
200
100
AcDbEntity
8
0
100
AcDbCircle
10
-60.200002999973321
20
-155.50804517186771
30
8.8817841970012523e-15
40
1.3000000000256846
210
1.140153822221879e-28
220
1.6044837743186392e-34
230
1
100
AcDbArc
50
90.000080629601698
51
180
0
LINE
5
201
100
AcDbEntity
8
0
100
AcDbLine
10
-61.500002999998998
20
-155.50804517186771
30
8.8817841970012523e-15
11
-61.500002999998991
21
-158.00804517184315
31
8.8817841970012523e-15
0
ARC
5
202
100
AcDbEntity
8
0
100
AcDbCircle
10
-60.200002999999462
20
-158.00804517184318
30
8.8817841970012523e-15
40
1.2999999999995282
210
0
220
0
230
1
100
AcDbArc
50
180
51
269.99996997288412
0
LINE
5
203
100
AcDbEntity
8
0
100
AcDbLine
10
-60.200003681289083
20
-159.30804008834488
30
-8.8817841970012523e-15
11
-40.800003681317946
21
-159.30805533884012
31
-8.8817841970012555e-15
0
ARC
5
204
100
AcDbEntity
8
0
100
AcDbCircle
10
-40.80000300002429
20
-158.00805533881504
30
8.8817841970012523e-15
40
1.3000000000252685
210
-7.1610688721723585e-21
220
-1.3664283379734457e-14
230
1
100
AcDbArc
50
-90.000030027116253
51
0
0
LINE
5
205
100
AcDbEntity
8
0
100
AcDbLine
10
-39.500002999998998
20
-158.00805533881504
30
8.8817841970012523e-15
11
-39.500002999999005
21
-155.50805533883994
31
8.8817841970012523e-15
0
ARC
5
206
100
AcDbEntity
8
0
100
AcDbCircle
10
-40.800002999998661
20
-155.50805533883994
30
8.8817841970012523e-15
40
1.2999999999996525
210
0
220
0
230
1
100
AcDbArc
50
0
51
89.999969972881885
0
CIRCLE
5
207
100
AcDbEntity
8
0
100
AcDbCircle
10
-67.499999999992738
20
-162.32805525534445
30
-1.7763568394002505e-14
40
1.9000000000000057
210
0
220
0
230
1
0
CIRCLE
5
208
100
AcDbEntity
8
0
100
AcDbCircle
10
-127.49999999999901
20
-162.32805525534445
30
-1.7763568394002505e-14
40
1.8999999999999968
210
0
220
0
230
1
0
LWPOLYLINE
5
209
100
AcDbEntity
8
0
100
AcDbPolyline
90
10
70
1
43
0.0
10
52.749997707804503
20
-155.50804771358898
10
52.749997707804503
20
-158.0080477092142
42
0.41421348549216574
10
54.04999736657026
20
-159.30804770921424
10
73.416590554506271
20
-159.30805279271124
42
0.010500108714618393
10
73.500563645927869
20
-159.30628916713863
10
76.82977464592787
20
-159.16638460154923
42
0.82986813801067427
10
77.363587990431071
20
-155.46986354751559
10
73.86982221790575
20
-154.27770782455036
42
0.082394384111295835
10
73.449999680966116
20
-154.20805279709055
10
54.049998048451435
20
-154.20804771358908
42
0.41421363912170456
0
CIRCLE
5
210
100
AcDbEntity
8
0
100
AcDbCircle
10
136.7500007078045
20
-162.3280552553388
30
-1.7763568394002505e-14
40
1.8999999999999968
210
0
220
0
230
1
0
CIRCLE
5
211
100
AcDbEntity
8
0
100
AcDbCircle
10
80.650000707804494
20
-156.20805525533882
30
0
40
0.99999999999999711
210
0
220
3.1554436208840479e-30
230
1
0
CIRCLE
5
212
100
AcDbEntity
8
0
100
AcDbCircle
10
46.750000707804496
20
-162.3280552553388
30
-1.7763568394002505e-14
40
1.9000000000000057
210
0
220
0
230
1
0
LWPOLYLINE
5
213
100
AcDbEntity
8
0
100
AcDbPolyline
90
4
70
1
43
0.0
10
-241.29999929219701
20
-176.2831284440351
10
-241.29999929219701
20
-132.63312844403509
10
241.30000070780602
20
-132.63312844403509
10
241.30000070780599
20
-176.2831284440351
0
LWPOLYLINE
5
214
100
AcDbEntity
8
0
100
AcDbPolyline
90
4
70
1
43
0.0
10
-228.89757481645901
20
-134.83313010439906
10
-236.10243428767703
20
-134.83313010439906
42
0.42601873717097749
10
-236.10243428767703
20
-142.33313010439906
10
-228.89757481645901
20
-142.33313010439906
42
0.42601873717088434
0
LWPOLYLINE
5
215
100
AcDbEntity
8
0
100
AcDbPolyline
90
4
70
1
43
0.0
10
236.10242518353701
20
-134.83313010439906
10
228.89756571232704
20
-134.83313010439906
42
0.42601873717088146
10
228.89756571232704
20
-142.33313010439906
10
236.10242518353701
20
-142.33313010439906
42
0.42601873717163824
0
LWPOLYLINE
5
216
100
AcDbEntity
8
0
100
AcDbPolyline
90
4
70
1
43
0.0
10
-228.89757481645901
20
-166.58313010439909
10
-236.10243428767703
20
-166.58313010439909
42
0.42601873717097749
10
-236.10243428767703
20
-174.08313010439909
10
-228.89757481645901
20
-174.08313010439909
42
0.42601873717088434
0
LWPOLYLINE
5
217
100
AcDbEntity
8
0
100
AcDbPolyline
90
4
70
1
43
0.0
10
236.10242518353701
20
-166.58313010439909
10
228.89756571232704
20
-166.58313010439909
42
0.4260187371708829
10
228.89756571232698
20
-174.08313010439909
10
236.10242518353701
20
-174.08313010439909
42
0.42601873717163535
0
CIRCLE
5
218
100
AcDbEntity
8
0
100
AcDbCircle
10
-208.75000000000099
20
-140.4831284440348
30
1.7763568394002505e-14
40
2.250000000000016
210
7.9433910595200105e-31
220
3.1554436208839547e-30
230
1
0
CIRCLE
5
219
100
AcDbEntity
8
0
100
AcDbCircle
10
-208.75000000000099
20
-168.48312844403483
30
8.8817841970012523e-15
40
2.250000000000016
210
1.1127595234242195e-30
220
3.155443620883954e-30
230
1
0
CIRCLE
5
220
100
AcDbEntity
8
0
100
AcDbCircle
10
208.74999999999801
20
-140.48312844403279
30
1.7763568394002505e-14
40
2.2500000000020055
210
1.1504221534434826e-30
220
-1.1761824610232314e-42
230
1
0
CIRCLE
5
221
100
AcDbEntity
8
0
100
AcDbCircle
10
208.74999999999801
20
-168.48312844403279
30
8.8817841970012523e-15
40
2.2500000000020055
210
1.5886782119018325e-30
220
-1.5740820249692937e-42
230
1
0
ENDSEC
0
SECTION
2
OBJECTS
0
DICTIONARY
5
C
100
AcDbDictionary
3
ACAD_GROUP
350
D
3
ACAD_MLINESTYLE
350
17
0
DICTIONARY
5
D
100
AcDbDictionary
0
DICTIONARY
5
1A
330
C
100
AcDbDictionary
0
DICTIONARY
5
17
100
AcDbDictionary
0
ENDSEC
0
EOF
